<svg width="672" height="494" viewBox="0 0 672 494" fill="none" xmlns="http://www.w3.org/2000/svg">
<rect x="4" width="649" height="445" rx="14" fill="white"/>
<g filter="url(#filter0_d_634_321)">
<path d="M43 36C43 33.2386 45.2386 31 48 31H609C611.761 31 614 33.2386 614 36V408C614 410.761 611.761 413 609 413H48C45.2386 413 43 410.761 43 408V36Z" fill="#F7F7F7"/>
</g>
<path d="M133 334H536" stroke="#F0F0F0" stroke-width="2"/>
<path d="M133 278H536" stroke="#F0F0F0" stroke-width="2"/>
<path d="M133 222H536" stroke="#F0F0F0" stroke-width="2"/>
<path d="M133 165H536" stroke="#F0F0F0" stroke-width="2"/>
<path d="M133 109H536" stroke="#F0F0F0" stroke-width="2"/>
<path d="M133 87V334" stroke="#F0F0F0" stroke-width="2"/>
<path d="M186 87V334" stroke="#F0F0F0" stroke-width="2"/>
<path d="M239 87V334" stroke="#F0F0F0" stroke-width="2"/>
<path d="M292 87V334" stroke="#F0F0F0" stroke-width="2"/>
<path d="M345 87V334" stroke="#F0F0F0" stroke-width="2"/>
<path d="M398 87V334" stroke="#F0F0F0" stroke-width="2"/>
<path d="M451 87V334" stroke="#F0F0F0" stroke-width="2"/>
<path d="M504 87V334" stroke="#F0F0F0" stroke-width="2"/>
<path d="M135.241 346.879V347.963C135.241 348.546 135.189 349.037 135.085 349.438C134.981 349.838 134.831 350.16 134.636 350.404C134.44 350.648 134.204 350.826 133.928 350.937C133.654 351.044 133.345 351.098 133 351.098C132.727 351.098 132.474 351.063 132.243 350.995C132.012 350.927 131.804 350.818 131.618 350.668C131.436 350.515 131.28 350.316 131.149 350.072C131.019 349.828 130.92 349.532 130.852 349.184C130.783 348.835 130.749 348.428 130.749 347.963V346.879C130.749 346.296 130.801 345.808 130.905 345.414C131.013 345.02 131.164 344.704 131.359 344.467C131.555 344.226 131.789 344.053 132.062 343.949C132.339 343.845 132.648 343.793 132.99 343.793C133.267 343.793 133.521 343.827 133.752 343.896C133.986 343.961 134.195 344.066 134.377 344.213C134.559 344.356 134.714 344.548 134.841 344.789C134.971 345.027 135.07 345.318 135.139 345.663C135.207 346.008 135.241 346.413 135.241 346.879ZM134.333 348.109V346.728C134.333 346.409 134.313 346.129 134.274 345.888C134.239 345.644 134.185 345.435 134.113 345.263C134.042 345.09 133.951 344.95 133.84 344.843C133.732 344.735 133.607 344.657 133.464 344.608C133.324 344.556 133.166 344.53 132.99 344.53C132.775 344.53 132.585 344.571 132.419 344.652C132.253 344.73 132.113 344.856 131.999 345.028C131.888 345.201 131.804 345.427 131.745 345.707C131.687 345.987 131.657 346.327 131.657 346.728V348.109C131.657 348.428 131.675 348.71 131.711 348.954C131.75 349.198 131.807 349.41 131.882 349.589C131.957 349.765 132.048 349.91 132.155 350.023C132.263 350.137 132.386 350.222 132.526 350.277C132.67 350.329 132.827 350.355 133 350.355C133.221 350.355 133.415 350.313 133.581 350.229C133.747 350.144 133.885 350.012 133.996 349.833C134.11 349.651 134.195 349.418 134.25 349.135C134.305 348.848 134.333 348.507 134.333 348.109Z" fill="black"/>
<path d="M183.81 347.616L183.087 347.431L183.443 343.891H187.091V344.726H184.21L183.995 346.659C184.125 346.584 184.29 346.514 184.488 346.449C184.69 346.384 184.921 346.352 185.182 346.352C185.51 346.352 185.805 346.409 186.065 346.522C186.326 346.633 186.547 346.793 186.729 347.001C186.915 347.209 187.057 347.46 187.154 347.753C187.252 348.046 187.301 348.373 187.301 348.734C187.301 349.076 187.254 349.39 187.159 349.677C187.068 349.963 186.93 350.214 186.744 350.429C186.559 350.64 186.324 350.805 186.041 350.922C185.761 351.039 185.431 351.098 185.05 351.098C184.763 351.098 184.492 351.059 184.234 350.98C183.98 350.899 183.753 350.777 183.551 350.614C183.352 350.448 183.189 350.243 183.062 349.999C182.939 349.752 182.861 349.462 182.828 349.13H183.688C183.727 349.397 183.805 349.621 183.922 349.804C184.039 349.986 184.192 350.124 184.381 350.219C184.573 350.31 184.796 350.355 185.05 350.355C185.265 350.355 185.455 350.318 185.621 350.243C185.787 350.168 185.927 350.061 186.041 349.921C186.155 349.781 186.241 349.612 186.3 349.413C186.362 349.215 186.393 348.992 186.393 348.744C186.393 348.52 186.362 348.311 186.3 348.119C186.238 347.927 186.145 347.759 186.021 347.616C185.901 347.473 185.753 347.362 185.577 347.284C185.401 347.203 185.2 347.162 184.972 347.162C184.669 347.162 184.439 347.203 184.283 347.284C184.13 347.366 183.972 347.476 183.81 347.616Z" fill="black"/>
<path d="M234.712 343.852V351H233.809V344.979L231.987 345.644V344.828L234.57 343.852H234.712ZM241.831 346.879V347.963C241.831 348.546 241.779 349.037 241.675 349.438C241.571 349.838 241.421 350.16 241.226 350.404C241.03 350.648 240.794 350.826 240.518 350.937C240.244 351.044 239.935 351.098 239.59 351.098C239.316 351.098 239.064 351.063 238.833 350.995C238.602 350.927 238.394 350.818 238.208 350.668C238.026 350.515 237.869 350.316 237.739 350.072C237.609 349.828 237.51 349.532 237.441 349.184C237.373 348.835 237.339 348.428 237.339 347.963V346.879C237.339 346.296 237.391 345.808 237.495 345.414C237.603 345.02 237.754 344.704 237.949 344.467C238.145 344.226 238.379 344.053 238.652 343.949C238.929 343.845 239.238 343.793 239.58 343.793C239.857 343.793 240.111 343.827 240.342 343.896C240.576 343.961 240.785 344.066 240.967 344.213C241.149 344.356 241.304 344.548 241.431 344.789C241.561 345.027 241.66 345.318 241.729 345.663C241.797 346.008 241.831 346.413 241.831 346.879ZM240.923 348.109V346.728C240.923 346.409 240.903 346.129 240.864 345.888C240.828 345.644 240.775 345.435 240.703 345.263C240.632 345.09 240.54 344.95 240.43 344.843C240.322 344.735 240.197 344.657 240.054 344.608C239.914 344.556 239.756 344.53 239.58 344.53C239.365 344.53 239.175 344.571 239.009 344.652C238.843 344.73 238.703 344.856 238.589 345.028C238.478 345.201 238.394 345.427 238.335 345.707C238.276 345.987 238.247 346.327 238.247 346.728V348.109C238.247 348.428 238.265 348.71 238.301 348.954C238.34 349.198 238.397 349.41 238.472 349.589C238.547 349.765 238.638 349.91 238.745 350.023C238.853 350.137 238.976 350.222 239.116 350.277C239.259 350.329 239.417 350.355 239.59 350.355C239.811 350.355 240.005 350.313 240.171 350.229C240.337 350.144 240.475 350.012 240.586 349.833C240.7 349.651 240.785 349.418 240.84 349.135C240.895 348.848 240.923 348.507 240.923 348.109Z" fill="black"/>
<path d="M286.602 343.852V351H285.698V344.979L283.877 345.644V344.828L286.46 343.852H286.602ZM290.4 347.616L289.678 347.431L290.034 343.891H293.682V344.726H290.801L290.586 346.659C290.716 346.584 290.881 346.514 291.079 346.449C291.281 346.384 291.512 346.352 291.772 346.352C292.101 346.352 292.396 346.409 292.656 346.522C292.917 346.633 293.138 346.793 293.32 347.001C293.506 347.209 293.647 347.46 293.745 347.753C293.843 348.046 293.892 348.373 293.892 348.734C293.892 349.076 293.844 349.39 293.75 349.677C293.659 349.963 293.521 350.214 293.335 350.429C293.149 350.64 292.915 350.805 292.632 350.922C292.352 351.039 292.021 351.098 291.641 351.098C291.354 351.098 291.082 351.059 290.825 350.98C290.571 350.899 290.343 350.777 290.142 350.614C289.943 350.448 289.78 350.243 289.653 349.999C289.53 349.752 289.451 349.462 289.419 349.13H290.278C290.317 349.397 290.396 349.621 290.513 349.804C290.63 349.986 290.783 350.124 290.972 350.219C291.164 350.31 291.387 350.355 291.641 350.355C291.855 350.355 292.046 350.318 292.212 350.243C292.378 350.168 292.518 350.061 292.632 349.921C292.746 349.781 292.832 349.612 292.891 349.413C292.952 349.215 292.983 348.992 292.983 348.744C292.983 348.52 292.952 348.311 292.891 348.119C292.829 347.927 292.736 347.759 292.612 347.616C292.492 347.473 292.344 347.362 292.168 347.284C291.992 347.203 291.79 347.162 291.562 347.162C291.26 347.162 291.03 347.203 290.874 347.284C290.721 347.366 290.563 347.476 290.4 347.616Z" fill="black"/>
<path d="M340.18 350.258V351H335.526V350.351L337.855 347.758C338.142 347.439 338.363 347.169 338.52 346.947C338.679 346.723 338.79 346.522 338.852 346.347C338.917 346.168 338.949 345.985 338.949 345.8C338.949 345.565 338.9 345.354 338.803 345.165C338.708 344.973 338.568 344.82 338.383 344.706C338.197 344.592 337.973 344.535 337.709 344.535C337.393 344.535 337.13 344.597 336.918 344.721C336.71 344.841 336.553 345.01 336.449 345.229C336.345 345.447 336.293 345.697 336.293 345.98H335.39C335.39 345.58 335.478 345.214 335.653 344.882C335.829 344.55 336.09 344.286 336.435 344.091C336.78 343.892 337.204 343.793 337.709 343.793C338.158 343.793 338.542 343.873 338.861 344.032C339.18 344.188 339.424 344.41 339.594 344.696C339.766 344.979 339.853 345.312 339.853 345.692C339.853 345.901 339.817 346.112 339.745 346.327C339.677 346.539 339.581 346.75 339.457 346.962C339.337 347.174 339.195 347.382 339.032 347.587C338.873 347.792 338.702 347.994 338.52 348.192L336.615 350.258H340.18ZM345.609 346.879V347.963C345.609 348.546 345.557 349.037 345.453 349.438C345.349 349.838 345.199 350.16 345.004 350.404C344.809 350.648 344.573 350.826 344.296 350.937C344.022 351.044 343.713 351.098 343.368 351.098C343.095 351.098 342.842 351.063 342.611 350.995C342.38 350.927 342.172 350.818 341.986 350.668C341.804 350.515 341.648 350.316 341.518 350.072C341.387 349.828 341.288 349.532 341.22 349.184C341.151 348.835 341.117 348.428 341.117 347.963V346.879C341.117 346.296 341.169 345.808 341.273 345.414C341.381 345.02 341.532 344.704 341.728 344.467C341.923 344.226 342.157 344.053 342.431 343.949C342.707 343.845 343.017 343.793 343.358 343.793C343.635 343.793 343.889 343.827 344.12 343.896C344.354 343.961 344.563 344.066 344.745 344.213C344.927 344.356 345.082 344.548 345.209 344.789C345.339 345.027 345.438 345.318 345.507 345.663C345.575 346.008 345.609 346.413 345.609 346.879ZM344.701 348.109V346.728C344.701 346.409 344.682 346.129 344.643 345.888C344.607 345.644 344.553 345.435 344.481 345.263C344.41 345.09 344.319 344.95 344.208 344.843C344.101 344.735 343.975 344.657 343.832 344.608C343.692 344.556 343.534 344.53 343.358 344.53C343.144 344.53 342.953 344.571 342.787 344.652C342.621 344.73 342.481 344.856 342.367 345.028C342.257 345.201 342.172 345.427 342.113 345.707C342.055 345.987 342.025 346.327 342.025 346.728V348.109C342.025 348.428 342.043 348.71 342.079 348.954C342.118 349.198 342.175 349.41 342.25 349.589C342.325 349.765 342.416 349.91 342.523 350.023C342.631 350.137 342.755 350.222 342.895 350.277C343.038 350.329 343.196 350.355 343.368 350.355C343.59 350.355 343.783 350.313 343.949 350.229C344.115 350.144 344.254 350.012 344.364 349.833C344.478 349.651 344.563 349.418 344.618 349.135C344.674 348.848 344.701 348.507 344.701 348.109Z" fill="black"/>
<path d="M392.068 350.258V351H387.415V350.351L389.744 347.758C390.031 347.439 390.252 347.169 390.408 346.947C390.568 346.723 390.678 346.522 390.74 346.347C390.805 346.168 390.838 345.985 390.838 345.8C390.838 345.565 390.789 345.354 390.691 345.165C390.597 344.973 390.457 344.82 390.271 344.706C390.086 344.592 389.861 344.535 389.598 344.535C389.282 344.535 389.018 344.597 388.807 344.721C388.598 344.841 388.442 345.01 388.338 345.229C388.234 345.447 388.182 345.697 388.182 345.98H387.278C387.278 345.58 387.366 345.214 387.542 344.882C387.718 344.55 387.978 344.286 388.323 344.091C388.668 343.892 389.093 343.793 389.598 343.793C390.047 343.793 390.431 343.873 390.75 344.032C391.069 344.188 391.313 344.41 391.482 344.696C391.655 344.979 391.741 345.312 391.741 345.692C391.741 345.901 391.705 346.112 391.634 346.327C391.565 346.539 391.469 346.75 391.346 346.962C391.225 347.174 391.084 347.382 390.921 347.587C390.761 347.792 390.59 347.994 390.408 348.192L388.504 350.258H392.068ZM394.178 347.616L393.455 347.431L393.812 343.891H397.459V344.726H394.578L394.363 346.659C394.493 346.584 394.658 346.514 394.856 346.449C395.058 346.384 395.289 346.352 395.55 346.352C395.879 346.352 396.173 346.409 396.434 346.522C396.694 346.633 396.915 346.793 397.098 347.001C397.283 347.209 397.425 347.46 397.522 347.753C397.62 348.046 397.669 348.373 397.669 348.734C397.669 349.076 397.622 349.39 397.527 349.677C397.436 349.963 397.298 350.214 397.112 350.429C396.927 350.64 396.692 350.805 396.409 350.922C396.129 351.039 395.799 351.098 395.418 351.098C395.132 351.098 394.86 351.059 394.603 350.98C394.349 350.899 394.121 350.777 393.919 350.614C393.72 350.448 393.558 350.243 393.431 349.999C393.307 349.752 393.229 349.462 393.196 349.13H394.056C394.095 349.397 394.173 349.621 394.29 349.804C394.407 349.986 394.56 350.124 394.749 350.219C394.941 350.31 395.164 350.355 395.418 350.355C395.633 350.355 395.823 350.318 395.989 350.243C396.155 350.168 396.295 350.061 396.409 349.921C396.523 349.781 396.609 349.612 396.668 349.413C396.73 349.215 396.761 348.992 396.761 348.744C396.761 348.52 396.73 348.311 396.668 348.119C396.606 347.927 396.513 347.759 396.39 347.616C396.269 347.473 396.121 347.362 395.945 347.284C395.77 347.203 395.568 347.162 395.34 347.162C395.037 347.162 394.808 347.203 394.651 347.284C394.498 347.366 394.34 347.476 394.178 347.616Z" fill="black"/>
<path d="M440.617 347.001H441.262C441.577 347.001 441.838 346.949 442.043 346.845C442.251 346.737 442.406 346.592 442.507 346.41C442.611 346.225 442.663 346.016 442.663 345.785C442.663 345.512 442.618 345.282 442.526 345.097C442.435 344.911 442.299 344.771 442.116 344.677C441.934 344.582 441.703 344.535 441.423 344.535C441.169 344.535 440.944 344.586 440.749 344.687C440.557 344.784 440.406 344.924 440.295 345.106C440.188 345.289 440.134 345.504 440.134 345.751H439.23C439.23 345.39 439.322 345.061 439.504 344.765C439.686 344.468 439.942 344.232 440.271 344.057C440.603 343.881 440.987 343.793 441.423 343.793C441.853 343.793 442.229 343.869 442.551 344.022C442.873 344.172 443.124 344.397 443.303 344.696C443.482 344.993 443.571 345.362 443.571 345.805C443.571 345.984 443.529 346.176 443.444 346.381C443.363 346.583 443.234 346.771 443.059 346.947C442.886 347.123 442.661 347.268 442.385 347.382C442.108 347.493 441.776 347.548 441.389 347.548H440.617V347.001ZM440.617 347.743V347.201H441.389C441.841 347.201 442.215 347.255 442.512 347.362C442.808 347.47 443.041 347.613 443.21 347.792C443.382 347.971 443.503 348.168 443.571 348.383C443.643 348.594 443.679 348.806 443.679 349.018C443.679 349.35 443.622 349.644 443.508 349.901C443.397 350.159 443.239 350.377 443.034 350.556C442.832 350.735 442.595 350.87 442.321 350.961C442.048 351.052 441.75 351.098 441.428 351.098C441.118 351.098 440.827 351.054 440.554 350.966C440.284 350.878 440.044 350.751 439.836 350.585C439.628 350.416 439.465 350.209 439.348 349.965C439.23 349.717 439.172 349.436 439.172 349.12H440.075C440.075 349.368 440.129 349.584 440.236 349.77C440.347 349.955 440.503 350.1 440.705 350.204C440.91 350.305 441.151 350.355 441.428 350.355C441.704 350.355 441.942 350.308 442.141 350.214C442.342 350.116 442.497 349.97 442.604 349.774C442.715 349.579 442.771 349.333 442.771 349.037C442.771 348.741 442.709 348.498 442.585 348.31C442.461 348.118 442.285 347.976 442.058 347.885C441.833 347.79 441.568 347.743 441.262 347.743H440.617ZM449.387 346.879V347.963C449.387 348.546 449.335 349.037 449.23 349.438C449.126 349.838 448.977 350.16 448.781 350.404C448.586 350.648 448.35 350.826 448.073 350.937C447.8 351.044 447.491 351.098 447.146 351.098C446.872 351.098 446.62 351.063 446.389 350.995C446.158 350.927 445.949 350.818 445.764 350.668C445.581 350.515 445.425 350.316 445.295 350.072C445.165 349.828 445.065 349.532 444.997 349.184C444.929 348.835 444.895 348.428 444.895 347.963V346.879C444.895 346.296 444.947 345.808 445.051 345.414C445.158 345.02 445.31 344.704 445.505 344.467C445.7 344.226 445.935 344.053 446.208 343.949C446.485 343.845 446.794 343.793 447.136 343.793C447.412 343.793 447.666 343.827 447.897 343.896C448.132 343.961 448.34 344.066 448.522 344.213C448.705 344.356 448.859 344.548 448.986 344.789C449.117 345.027 449.216 345.318 449.284 345.663C449.353 346.008 449.387 346.413 449.387 346.879ZM448.479 348.109V346.728C448.479 346.409 448.459 346.129 448.42 345.888C448.384 345.644 448.33 345.435 448.259 345.263C448.187 345.09 448.096 344.95 447.985 344.843C447.878 344.735 447.753 344.657 447.609 344.608C447.469 344.556 447.312 344.53 447.136 344.53C446.921 344.53 446.73 344.571 446.564 344.652C446.398 344.73 446.258 344.856 446.145 345.028C446.034 345.201 445.949 345.427 445.891 345.707C445.832 345.987 445.803 346.327 445.803 346.728V348.109C445.803 348.428 445.821 348.71 445.856 348.954C445.896 349.198 445.952 349.41 446.027 349.589C446.102 349.765 446.193 349.91 446.301 350.023C446.408 350.137 446.532 350.222 446.672 350.277C446.815 350.329 446.973 350.355 447.146 350.355C447.367 350.355 447.561 350.313 447.727 350.229C447.893 350.144 448.031 350.012 448.142 349.833C448.256 349.651 448.34 349.418 448.396 349.135C448.451 348.848 448.479 348.507 448.479 348.109Z" fill="black"/>
<path d="M492.507 347.001H493.151C493.467 347.001 493.728 346.949 493.933 346.845C494.141 346.737 494.296 346.592 494.396 346.41C494.501 346.225 494.553 346.016 494.553 345.785C494.553 345.512 494.507 345.282 494.416 345.097C494.325 344.911 494.188 344.771 494.006 344.677C493.824 344.582 493.592 344.535 493.312 344.535C493.059 344.535 492.834 344.586 492.639 344.687C492.447 344.784 492.295 344.924 492.185 345.106C492.077 345.289 492.023 345.504 492.023 345.751H491.12C491.12 345.39 491.211 345.061 491.394 344.765C491.576 344.468 491.831 344.232 492.16 344.057C492.492 343.881 492.876 343.793 493.312 343.793C493.742 343.793 494.118 343.869 494.44 344.022C494.763 344.172 495.013 344.397 495.192 344.696C495.371 344.993 495.461 345.362 495.461 345.805C495.461 345.984 495.419 346.176 495.334 346.381C495.253 346.583 495.124 346.771 494.948 346.947C494.776 347.123 494.551 347.268 494.274 347.382C493.998 347.493 493.666 347.548 493.278 347.548H492.507V347.001ZM492.507 347.743V347.201H493.278C493.731 347.201 494.105 347.255 494.401 347.362C494.698 347.47 494.93 347.613 495.1 347.792C495.272 347.971 495.393 348.168 495.461 348.383C495.533 348.594 495.568 348.806 495.568 349.018C495.568 349.35 495.511 349.644 495.397 349.901C495.287 350.159 495.129 350.377 494.924 350.556C494.722 350.735 494.484 350.87 494.211 350.961C493.938 351.052 493.64 351.098 493.317 351.098C493.008 351.098 492.717 351.054 492.443 350.966C492.173 350.878 491.934 350.751 491.726 350.585C491.517 350.416 491.354 350.209 491.237 349.965C491.12 349.717 491.062 349.436 491.062 349.12H491.965C491.965 349.368 492.019 349.584 492.126 349.77C492.237 349.955 492.393 350.1 492.595 350.204C492.8 350.305 493.041 350.355 493.317 350.355C493.594 350.355 493.832 350.308 494.03 350.214C494.232 350.116 494.387 349.97 494.494 349.774C494.605 349.579 494.66 349.333 494.66 349.037C494.66 348.741 494.598 348.498 494.475 348.31C494.351 348.118 494.175 347.976 493.947 347.885C493.723 347.79 493.457 347.743 493.151 347.743H492.507ZM497.956 347.616L497.233 347.431L497.59 343.891H501.237V344.726H498.356L498.142 346.659C498.272 346.584 498.436 346.514 498.635 346.449C498.837 346.384 499.068 346.352 499.328 346.352C499.657 346.352 499.951 346.409 500.212 346.522C500.472 346.633 500.694 346.793 500.876 347.001C501.062 347.209 501.203 347.46 501.301 347.753C501.398 348.046 501.447 348.373 501.447 348.734C501.447 349.076 501.4 349.39 501.306 349.677C501.215 349.963 501.076 350.214 500.891 350.429C500.705 350.64 500.471 350.805 500.188 350.922C499.908 351.039 499.577 351.098 499.196 351.098C498.91 351.098 498.638 351.059 498.381 350.98C498.127 350.899 497.899 350.777 497.697 350.614C497.499 350.448 497.336 350.243 497.209 349.999C497.085 349.752 497.007 349.462 496.975 349.13H497.834C497.873 349.397 497.951 349.621 498.068 349.804C498.186 349.986 498.339 350.124 498.527 350.219C498.719 350.31 498.942 350.355 499.196 350.355C499.411 350.355 499.602 350.318 499.768 350.243C499.934 350.168 500.074 350.061 500.188 349.921C500.301 349.781 500.388 349.612 500.446 349.413C500.508 349.215 500.539 348.992 500.539 348.744C500.539 348.52 500.508 348.311 500.446 348.119C500.384 347.927 500.292 347.759 500.168 347.616C500.048 347.473 499.899 347.362 499.724 347.284C499.548 347.203 499.346 347.162 499.118 347.162C498.815 347.162 498.586 347.203 498.43 347.284C498.277 347.366 498.119 347.476 497.956 347.616Z" fill="black"/>
<path d="M111.374 337.258V338H106.721V337.351L109.05 334.758C109.336 334.439 109.558 334.169 109.714 333.947C109.873 333.723 109.984 333.522 110.046 333.347C110.111 333.168 110.144 332.985 110.144 332.8C110.144 332.565 110.095 332.354 109.997 332.165C109.903 331.973 109.763 331.82 109.577 331.706C109.392 331.592 109.167 331.535 108.903 331.535C108.588 331.535 108.324 331.597 108.112 331.721C107.904 331.841 107.748 332.01 107.644 332.229C107.539 332.447 107.487 332.697 107.487 332.98H106.584C106.584 332.58 106.672 332.214 106.848 331.882C107.023 331.55 107.284 331.286 107.629 331.091C107.974 330.892 108.399 330.793 108.903 330.793C109.353 330.793 109.737 330.873 110.056 331.032C110.375 331.188 110.619 331.41 110.788 331.696C110.961 331.979 111.047 332.312 111.047 332.692C111.047 332.901 111.011 333.112 110.939 333.327C110.871 333.539 110.775 333.75 110.651 333.962C110.531 334.174 110.389 334.382 110.227 334.587C110.067 334.792 109.896 334.994 109.714 335.192L107.81 337.258H111.374ZM116.804 333.879V334.963C116.804 335.546 116.752 336.037 116.647 336.438C116.543 336.838 116.394 337.16 116.198 337.404C116.003 337.648 115.767 337.826 115.49 337.937C115.217 338.044 114.908 338.098 114.562 338.098C114.289 338.098 114.037 338.063 113.806 337.995C113.575 337.927 113.366 337.818 113.181 337.668C112.998 337.515 112.842 337.316 112.712 337.072C112.582 336.828 112.482 336.532 112.414 336.184C112.346 335.835 112.312 335.428 112.312 334.963V333.879C112.312 333.296 112.364 332.808 112.468 332.414C112.575 332.02 112.727 331.704 112.922 331.467C113.117 331.226 113.352 331.053 113.625 330.949C113.902 330.845 114.211 330.793 114.553 330.793C114.829 330.793 115.083 330.827 115.314 330.896C115.549 330.961 115.757 331.066 115.939 331.213C116.122 331.356 116.276 331.548 116.403 331.789C116.534 332.027 116.633 332.318 116.701 332.663C116.77 333.008 116.804 333.413 116.804 333.879ZM115.896 335.109V333.728C115.896 333.409 115.876 333.129 115.837 332.888C115.801 332.644 115.747 332.435 115.676 332.263C115.604 332.09 115.513 331.95 115.402 331.843C115.295 331.735 115.17 331.657 115.026 331.608C114.886 331.556 114.729 331.53 114.553 331.53C114.338 331.53 114.147 331.571 113.981 331.652C113.815 331.73 113.675 331.856 113.562 332.028C113.451 332.201 113.366 332.427 113.308 332.707C113.249 332.987 113.22 333.327 113.22 333.728V335.109C113.22 335.428 113.238 335.71 113.273 335.954C113.312 336.198 113.369 336.41 113.444 336.589C113.519 336.765 113.61 336.91 113.718 337.023C113.825 337.137 113.949 337.222 114.089 337.277C114.232 337.329 114.39 337.355 114.562 337.355C114.784 337.355 114.978 337.313 115.144 337.229C115.31 337.144 115.448 337.012 115.559 336.833C115.673 336.651 115.757 336.418 115.812 336.135C115.868 335.848 115.896 335.507 115.896 335.109ZM122.429 333.879V334.963C122.429 335.546 122.377 336.037 122.272 336.438C122.168 336.838 122.019 337.16 121.823 337.404C121.628 337.648 121.392 337.826 121.115 337.937C120.842 338.044 120.533 338.098 120.188 338.098C119.914 338.098 119.662 338.063 119.431 337.995C119.2 337.927 118.991 337.818 118.806 337.668C118.623 337.515 118.467 337.316 118.337 337.072C118.207 336.828 118.107 336.532 118.039 336.184C117.971 335.835 117.937 335.428 117.937 334.963V333.879C117.937 333.296 117.989 332.808 118.093 332.414C118.2 332.02 118.352 331.704 118.547 331.467C118.742 331.226 118.977 331.053 119.25 330.949C119.527 330.845 119.836 330.793 120.178 330.793C120.454 330.793 120.708 330.827 120.939 330.896C121.174 330.961 121.382 331.066 121.564 331.213C121.747 331.356 121.901 331.548 122.028 331.789C122.159 332.027 122.258 332.318 122.326 332.663C122.395 333.008 122.429 333.413 122.429 333.879ZM121.521 335.109V333.728C121.521 333.409 121.501 333.129 121.462 332.888C121.426 332.644 121.372 332.435 121.301 332.263C121.229 332.09 121.138 331.95 121.027 331.843C120.92 331.735 120.795 331.657 120.651 331.608C120.511 331.556 120.354 331.53 120.178 331.53C119.963 331.53 119.772 331.571 119.606 331.652C119.44 331.73 119.3 331.856 119.187 332.028C119.076 332.201 118.991 332.427 118.933 332.707C118.874 332.987 118.845 333.327 118.845 333.728V335.109C118.845 335.428 118.863 335.71 118.898 335.954C118.938 336.198 118.994 336.41 119.069 336.589C119.144 336.765 119.235 336.91 119.343 337.023C119.45 337.137 119.574 337.222 119.714 337.277C119.857 337.329 120.015 337.355 120.188 337.355C120.409 337.355 120.603 337.313 120.769 337.229C120.935 337.144 121.073 337.012 121.184 336.833C121.298 336.651 121.382 336.418 121.438 336.135C121.493 335.848 121.521 335.507 121.521 335.109Z" fill="black"/>
<path d="M111.521 278.607V279.35H106.384V278.817L109.567 273.891H110.305L109.514 275.316L107.409 278.607H111.521ZM110.529 273.891V281H109.626V273.891H110.529ZM116.804 276.879V277.963C116.804 278.546 116.752 279.037 116.647 279.438C116.543 279.838 116.394 280.16 116.198 280.404C116.003 280.648 115.767 280.826 115.49 280.937C115.217 281.044 114.908 281.098 114.562 281.098C114.289 281.098 114.037 281.063 113.806 280.995C113.575 280.927 113.366 280.818 113.181 280.668C112.998 280.515 112.842 280.316 112.712 280.072C112.582 279.828 112.482 279.532 112.414 279.184C112.346 278.835 112.312 278.428 112.312 277.963V276.879C112.312 276.296 112.364 275.808 112.468 275.414C112.575 275.02 112.727 274.704 112.922 274.467C113.117 274.226 113.352 274.053 113.625 273.949C113.902 273.845 114.211 273.793 114.553 273.793C114.829 273.793 115.083 273.827 115.314 273.896C115.549 273.961 115.757 274.066 115.939 274.213C116.122 274.356 116.276 274.548 116.403 274.789C116.534 275.027 116.633 275.318 116.701 275.663C116.77 276.008 116.804 276.413 116.804 276.879ZM115.896 278.109V276.728C115.896 276.409 115.876 276.129 115.837 275.888C115.801 275.644 115.747 275.435 115.676 275.263C115.604 275.09 115.513 274.95 115.402 274.843C115.295 274.735 115.17 274.657 115.026 274.608C114.886 274.556 114.729 274.53 114.553 274.53C114.338 274.53 114.147 274.571 113.981 274.652C113.815 274.73 113.675 274.856 113.562 275.028C113.451 275.201 113.366 275.427 113.308 275.707C113.249 275.987 113.22 276.327 113.22 276.728V278.109C113.22 278.428 113.238 278.71 113.273 278.954C113.312 279.198 113.369 279.41 113.444 279.589C113.519 279.765 113.61 279.91 113.718 280.023C113.825 280.137 113.949 280.222 114.089 280.277C114.232 280.329 114.39 280.355 114.562 280.355C114.784 280.355 114.978 280.313 115.144 280.229C115.31 280.144 115.448 280.012 115.559 279.833C115.673 279.651 115.757 279.418 115.812 279.135C115.868 278.848 115.896 278.507 115.896 278.109ZM122.429 276.879V277.963C122.429 278.546 122.377 279.037 122.272 279.438C122.168 279.838 122.019 280.16 121.823 280.404C121.628 280.648 121.392 280.826 121.115 280.937C120.842 281.044 120.533 281.098 120.188 281.098C119.914 281.098 119.662 281.063 119.431 280.995C119.2 280.927 118.991 280.818 118.806 280.668C118.623 280.515 118.467 280.316 118.337 280.072C118.207 279.828 118.107 279.532 118.039 279.184C117.971 278.835 117.937 278.428 117.937 277.963V276.879C117.937 276.296 117.989 275.808 118.093 275.414C118.2 275.02 118.352 274.704 118.547 274.467C118.742 274.226 118.977 274.053 119.25 273.949C119.527 273.845 119.836 273.793 120.178 273.793C120.454 273.793 120.708 273.827 120.939 273.896C121.174 273.961 121.382 274.066 121.564 274.213C121.747 274.356 121.901 274.548 122.028 274.789C122.159 275.027 122.258 275.318 122.326 275.663C122.395 276.008 122.429 276.413 122.429 276.879ZM121.521 278.109V276.728C121.521 276.409 121.501 276.129 121.462 275.888C121.426 275.644 121.372 275.435 121.301 275.263C121.229 275.09 121.138 274.95 121.027 274.843C120.92 274.735 120.795 274.657 120.651 274.608C120.511 274.556 120.354 274.53 120.178 274.53C119.963 274.53 119.772 274.571 119.606 274.652C119.44 274.73 119.3 274.856 119.187 275.028C119.076 275.201 118.991 275.427 118.933 275.707C118.874 275.987 118.845 276.327 118.845 276.728V278.109C118.845 278.428 118.863 278.71 118.898 278.954C118.938 279.198 118.994 279.41 119.069 279.589C119.144 279.765 119.235 279.91 119.343 280.023C119.45 280.137 119.574 280.222 119.714 280.277C119.857 280.329 120.015 280.355 120.188 280.355C120.409 280.355 120.603 280.313 120.769 280.229C120.935 280.144 121.073 280.012 121.184 279.833C121.298 279.651 121.382 279.418 121.438 279.135C121.493 278.848 121.521 278.507 121.521 278.109Z" fill="black"/>
<path d="M110.183 217.881H110.261V218.647H110.183C109.704 218.647 109.304 218.726 108.981 218.882C108.659 219.035 108.404 219.242 108.215 219.502C108.026 219.759 107.889 220.049 107.805 220.371C107.723 220.693 107.683 221.021 107.683 221.353V222.397C107.683 222.713 107.72 222.993 107.795 223.237C107.87 223.478 107.972 223.682 108.103 223.848C108.233 224.014 108.379 224.139 108.542 224.224C108.708 224.308 108.881 224.351 109.06 224.351C109.268 224.351 109.453 224.312 109.616 224.233C109.779 224.152 109.916 224.04 110.026 223.896C110.14 223.75 110.227 223.577 110.285 223.379C110.344 223.18 110.373 222.962 110.373 222.725C110.373 222.513 110.347 222.31 110.295 222.114C110.243 221.916 110.163 221.74 110.056 221.587C109.948 221.431 109.813 221.309 109.65 221.221C109.491 221.13 109.3 221.084 109.079 221.084C108.828 221.084 108.594 221.146 108.376 221.27C108.161 221.39 107.984 221.549 107.844 221.748C107.707 221.943 107.629 222.157 107.609 222.388L107.131 222.383C107.176 222.018 107.261 221.707 107.385 221.45C107.512 221.19 107.668 220.978 107.854 220.815C108.042 220.649 108.252 220.529 108.483 220.454C108.718 220.376 108.965 220.337 109.226 220.337C109.58 220.337 109.886 220.404 110.144 220.537C110.401 220.671 110.612 220.85 110.778 221.074C110.944 221.296 111.066 221.546 111.145 221.826C111.226 222.103 111.267 222.388 111.267 222.681C111.267 223.016 111.219 223.33 111.125 223.623C111.031 223.916 110.889 224.173 110.7 224.395C110.515 224.616 110.285 224.788 110.012 224.912C109.738 225.036 109.421 225.098 109.06 225.098C108.675 225.098 108.34 225.02 108.054 224.863C107.767 224.704 107.53 224.492 107.341 224.229C107.152 223.965 107.01 223.672 106.916 223.35C106.822 223.027 106.774 222.7 106.774 222.368V221.943C106.774 221.442 106.825 220.951 106.926 220.469C107.027 219.987 107.201 219.551 107.448 219.16C107.699 218.77 108.046 218.459 108.488 218.228C108.931 217.996 109.496 217.881 110.183 217.881ZM116.804 220.879V221.963C116.804 222.546 116.752 223.037 116.647 223.438C116.543 223.838 116.394 224.16 116.198 224.404C116.003 224.648 115.767 224.826 115.49 224.937C115.217 225.044 114.908 225.098 114.562 225.098C114.289 225.098 114.037 225.063 113.806 224.995C113.575 224.927 113.366 224.818 113.181 224.668C112.998 224.515 112.842 224.316 112.712 224.072C112.582 223.828 112.482 223.532 112.414 223.184C112.346 222.835 112.312 222.428 112.312 221.963V220.879C112.312 220.296 112.364 219.808 112.468 219.414C112.575 219.02 112.727 218.704 112.922 218.467C113.117 218.226 113.352 218.053 113.625 217.949C113.902 217.845 114.211 217.793 114.553 217.793C114.829 217.793 115.083 217.827 115.314 217.896C115.549 217.961 115.757 218.066 115.939 218.213C116.122 218.356 116.276 218.548 116.403 218.789C116.534 219.027 116.633 219.318 116.701 219.663C116.77 220.008 116.804 220.413 116.804 220.879ZM115.896 222.109V220.728C115.896 220.409 115.876 220.129 115.837 219.888C115.801 219.644 115.747 219.435 115.676 219.263C115.604 219.09 115.513 218.95 115.402 218.843C115.295 218.735 115.17 218.657 115.026 218.608C114.886 218.556 114.729 218.53 114.553 218.53C114.338 218.53 114.147 218.571 113.981 218.652C113.815 218.73 113.675 218.856 113.562 219.028C113.451 219.201 113.366 219.427 113.308 219.707C113.249 219.987 113.22 220.327 113.22 220.728V222.109C113.22 222.428 113.238 222.71 113.273 222.954C113.312 223.198 113.369 223.41 113.444 223.589C113.519 223.765 113.61 223.91 113.718 224.023C113.825 224.137 113.949 224.222 114.089 224.277C114.232 224.329 114.39 224.355 114.562 224.355C114.784 224.355 114.978 224.313 115.144 224.229C115.31 224.144 115.448 224.012 115.559 223.833C115.673 223.651 115.757 223.418 115.812 223.135C115.868 222.848 115.896 222.507 115.896 222.109ZM122.429 220.879V221.963C122.429 222.546 122.377 223.037 122.272 223.438C122.168 223.838 122.019 224.16 121.823 224.404C121.628 224.648 121.392 224.826 121.115 224.937C120.842 225.044 120.533 225.098 120.188 225.098C119.914 225.098 119.662 225.063 119.431 224.995C119.2 224.927 118.991 224.818 118.806 224.668C118.623 224.515 118.467 224.316 118.337 224.072C118.207 223.828 118.107 223.532 118.039 223.184C117.971 222.835 117.937 222.428 117.937 221.963V220.879C117.937 220.296 117.989 219.808 118.093 219.414C118.2 219.02 118.352 218.704 118.547 218.467C118.742 218.226 118.977 218.053 119.25 217.949C119.527 217.845 119.836 217.793 120.178 217.793C120.454 217.793 120.708 217.827 120.939 217.896C121.174 217.961 121.382 218.066 121.564 218.213C121.747 218.356 121.901 218.548 122.028 218.789C122.159 219.027 122.258 219.318 122.326 219.663C122.395 220.008 122.429 220.413 122.429 220.879ZM121.521 222.109V220.728C121.521 220.409 121.501 220.129 121.462 219.888C121.426 219.644 121.372 219.435 121.301 219.263C121.229 219.09 121.138 218.95 121.027 218.843C120.92 218.735 120.795 218.657 120.651 218.608C120.511 218.556 120.354 218.53 120.178 218.53C119.963 218.53 119.772 218.571 119.606 218.652C119.44 218.73 119.3 218.856 119.187 219.028C119.076 219.201 118.991 219.427 118.933 219.707C118.874 219.987 118.845 220.327 118.845 220.728V222.109C118.845 222.428 118.863 222.71 118.898 222.954C118.938 223.198 118.994 223.41 119.069 223.589C119.144 223.765 119.235 223.91 119.343 224.023C119.45 224.137 119.574 224.222 119.714 224.277C119.857 224.329 120.015 224.355 120.188 224.355C120.409 224.355 120.603 224.313 120.769 224.229C120.935 224.144 121.073 224.012 121.184 223.833C121.298 223.651 121.382 223.418 121.438 223.135C121.493 222.848 121.521 222.507 121.521 222.109Z" fill="black"/>
<path d="M111.198 167.076C111.198 167.509 111.097 167.877 110.896 168.18C110.697 168.479 110.427 168.707 110.085 168.863C109.746 169.02 109.364 169.098 108.938 169.098C108.511 169.098 108.127 169.02 107.785 168.863C107.443 168.707 107.173 168.479 106.975 168.18C106.776 167.877 106.677 167.509 106.677 167.076C106.677 166.793 106.73 166.534 106.838 166.3C106.949 166.062 107.103 165.855 107.302 165.68C107.504 165.504 107.741 165.369 108.015 165.274C108.291 165.177 108.596 165.128 108.928 165.128C109.364 165.128 109.753 165.213 110.095 165.382C110.437 165.548 110.705 165.777 110.9 166.07C111.099 166.363 111.198 166.699 111.198 167.076ZM110.29 167.057C110.29 166.793 110.233 166.56 110.119 166.358C110.005 166.153 109.846 165.994 109.641 165.88C109.436 165.766 109.198 165.709 108.928 165.709C108.651 165.709 108.412 165.766 108.21 165.88C108.011 165.994 107.857 166.153 107.746 166.358C107.635 166.56 107.58 166.793 107.58 167.057C107.58 167.33 107.634 167.564 107.741 167.76C107.852 167.952 108.008 168.1 108.21 168.204C108.415 168.305 108.658 168.355 108.938 168.355C109.217 168.355 109.458 168.305 109.66 168.204C109.862 168.1 110.017 167.952 110.124 167.76C110.235 167.564 110.29 167.33 110.29 167.057ZM111.032 163.741C111.032 164.086 110.941 164.397 110.759 164.674C110.576 164.951 110.327 165.169 110.012 165.328C109.696 165.488 109.338 165.567 108.938 165.567C108.531 165.567 108.168 165.488 107.849 165.328C107.533 165.169 107.285 164.951 107.106 164.674C106.927 164.397 106.838 164.086 106.838 163.741C106.838 163.328 106.927 162.976 107.106 162.687C107.289 162.397 107.538 162.175 107.854 162.022C108.169 161.869 108.529 161.793 108.933 161.793C109.34 161.793 109.701 161.869 110.017 162.022C110.332 162.175 110.58 162.397 110.759 162.687C110.941 162.976 111.032 163.328 111.032 163.741ZM110.129 163.756C110.129 163.518 110.078 163.308 109.978 163.126C109.877 162.944 109.737 162.8 109.558 162.696C109.379 162.589 109.17 162.535 108.933 162.535C108.695 162.535 108.487 162.586 108.308 162.687C108.132 162.784 107.993 162.924 107.893 163.106C107.795 163.289 107.746 163.505 107.746 163.756C107.746 164 107.795 164.213 107.893 164.396C107.993 164.578 108.133 164.719 108.312 164.82C108.492 164.921 108.7 164.972 108.938 164.972C109.175 164.972 109.382 164.921 109.558 164.82C109.737 164.719 109.877 164.578 109.978 164.396C110.078 164.213 110.129 164 110.129 163.756ZM116.804 164.879V165.963C116.804 166.546 116.752 167.037 116.647 167.438C116.543 167.838 116.394 168.16 116.198 168.404C116.003 168.648 115.767 168.826 115.49 168.937C115.217 169.044 114.908 169.098 114.562 169.098C114.289 169.098 114.037 169.063 113.806 168.995C113.575 168.927 113.366 168.818 113.181 168.668C112.998 168.515 112.842 168.316 112.712 168.072C112.582 167.828 112.482 167.532 112.414 167.184C112.346 166.835 112.312 166.428 112.312 165.963V164.879C112.312 164.296 112.364 163.808 112.468 163.414C112.575 163.02 112.727 162.704 112.922 162.467C113.117 162.226 113.352 162.053 113.625 161.949C113.902 161.845 114.211 161.793 114.553 161.793C114.829 161.793 115.083 161.827 115.314 161.896C115.549 161.961 115.757 162.066 115.939 162.213C116.122 162.356 116.276 162.548 116.403 162.789C116.534 163.027 116.633 163.318 116.701 163.663C116.77 164.008 116.804 164.413 116.804 164.879ZM115.896 166.109V164.728C115.896 164.409 115.876 164.129 115.837 163.888C115.801 163.644 115.747 163.435 115.676 163.263C115.604 163.09 115.513 162.95 115.402 162.843C115.295 162.735 115.17 162.657 115.026 162.608C114.886 162.556 114.729 162.53 114.553 162.53C114.338 162.53 114.147 162.571 113.981 162.652C113.815 162.73 113.675 162.856 113.562 163.028C113.451 163.201 113.366 163.427 113.308 163.707C113.249 163.987 113.22 164.327 113.22 164.728V166.109C113.22 166.428 113.238 166.71 113.273 166.954C113.312 167.198 113.369 167.41 113.444 167.589C113.519 167.765 113.61 167.91 113.718 168.023C113.825 168.137 113.949 168.222 114.089 168.277C114.232 168.329 114.39 168.355 114.562 168.355C114.784 168.355 114.978 168.313 115.144 168.229C115.31 168.144 115.448 168.012 115.559 167.833C115.673 167.651 115.757 167.418 115.812 167.135C115.868 166.848 115.896 166.507 115.896 166.109ZM122.429 164.879V165.963C122.429 166.546 122.377 167.037 122.272 167.438C122.168 167.838 122.019 168.16 121.823 168.404C121.628 168.648 121.392 168.826 121.115 168.937C120.842 169.044 120.533 169.098 120.188 169.098C119.914 169.098 119.662 169.063 119.431 168.995C119.2 168.927 118.991 168.818 118.806 168.668C118.623 168.515 118.467 168.316 118.337 168.072C118.207 167.828 118.107 167.532 118.039 167.184C117.971 166.835 117.937 166.428 117.937 165.963V164.879C117.937 164.296 117.989 163.808 118.093 163.414C118.2 163.02 118.352 162.704 118.547 162.467C118.742 162.226 118.977 162.053 119.25 161.949C119.527 161.845 119.836 161.793 120.178 161.793C120.454 161.793 120.708 161.827 120.939 161.896C121.174 161.961 121.382 162.066 121.564 162.213C121.747 162.356 121.901 162.548 122.028 162.789C122.159 163.027 122.258 163.318 122.326 163.663C122.395 164.008 122.429 164.413 122.429 164.879ZM121.521 166.109V164.728C121.521 164.409 121.501 164.129 121.462 163.888C121.426 163.644 121.372 163.435 121.301 163.263C121.229 163.09 121.138 162.95 121.027 162.843C120.92 162.735 120.795 162.657 120.651 162.608C120.511 162.556 120.354 162.53 120.178 162.53C119.963 162.53 119.772 162.571 119.606 162.652C119.44 162.73 119.3 162.856 119.187 163.028C119.076 163.201 118.991 163.427 118.933 163.707C118.874 163.987 118.845 164.327 118.845 164.728V166.109C118.845 166.428 118.863 166.71 118.898 166.954C118.938 167.198 118.994 167.41 119.069 167.589C119.144 167.765 119.235 167.91 119.343 168.023C119.45 168.137 119.574 168.222 119.714 168.277C119.857 168.329 120.015 168.355 120.188 168.355C120.409 168.355 120.603 168.313 120.769 168.229C120.935 168.144 121.073 168.012 121.184 167.833C121.298 167.651 121.382 167.418 121.438 167.135C121.493 166.848 121.521 166.507 121.521 166.109Z" fill="black"/>
<path d="M104.06 105.852V113H103.156V106.979L101.335 107.644V106.828L103.918 105.852H104.06ZM111.179 108.879V109.963C111.179 110.546 111.127 111.037 111.022 111.438C110.918 111.838 110.769 112.16 110.573 112.404C110.378 112.648 110.142 112.826 109.865 112.937C109.592 113.044 109.283 113.098 108.938 113.098C108.664 113.098 108.412 113.063 108.181 112.995C107.95 112.927 107.741 112.818 107.556 112.668C107.373 112.515 107.217 112.316 107.087 112.072C106.957 111.828 106.857 111.532 106.789 111.184C106.721 110.835 106.687 110.428 106.687 109.963V108.879C106.687 108.296 106.739 107.808 106.843 107.414C106.95 107.02 107.102 106.704 107.297 106.467C107.492 106.226 107.727 106.053 108 105.949C108.277 105.845 108.586 105.793 108.928 105.793C109.204 105.793 109.458 105.827 109.689 105.896C109.924 105.961 110.132 106.066 110.314 106.213C110.497 106.356 110.651 106.548 110.778 106.789C110.909 107.027 111.008 107.318 111.076 107.663C111.145 108.008 111.179 108.413 111.179 108.879ZM110.271 110.109V108.728C110.271 108.409 110.251 108.129 110.212 107.888C110.176 107.644 110.122 107.435 110.051 107.263C109.979 107.09 109.888 106.95 109.777 106.843C109.67 106.735 109.545 106.657 109.401 106.608C109.261 106.556 109.104 106.53 108.928 106.53C108.713 106.53 108.522 106.571 108.356 106.652C108.19 106.73 108.05 106.856 107.937 107.028C107.826 107.201 107.741 107.427 107.683 107.707C107.624 107.987 107.595 108.327 107.595 108.728V110.109C107.595 110.428 107.613 110.71 107.648 110.954C107.688 111.198 107.744 111.41 107.819 111.589C107.894 111.765 107.985 111.91 108.093 112.023C108.2 112.137 108.324 112.222 108.464 112.277C108.607 112.329 108.765 112.355 108.938 112.355C109.159 112.355 109.353 112.313 109.519 112.229C109.685 112.144 109.823 112.012 109.934 111.833C110.048 111.651 110.132 111.418 110.188 111.135C110.243 110.848 110.271 110.507 110.271 110.109ZM116.804 108.879V109.963C116.804 110.546 116.752 111.037 116.647 111.438C116.543 111.838 116.394 112.16 116.198 112.404C116.003 112.648 115.767 112.826 115.49 112.937C115.217 113.044 114.908 113.098 114.562 113.098C114.289 113.098 114.037 113.063 113.806 112.995C113.575 112.927 113.366 112.818 113.181 112.668C112.998 112.515 112.842 112.316 112.712 112.072C112.582 111.828 112.482 111.532 112.414 111.184C112.346 110.835 112.312 110.428 112.312 109.963V108.879C112.312 108.296 112.364 107.808 112.468 107.414C112.575 107.02 112.727 106.704 112.922 106.467C113.117 106.226 113.352 106.053 113.625 105.949C113.902 105.845 114.211 105.793 114.553 105.793C114.829 105.793 115.083 105.827 115.314 105.896C115.549 105.961 115.757 106.066 115.939 106.213C116.122 106.356 116.276 106.548 116.403 106.789C116.534 107.027 116.633 107.318 116.701 107.663C116.77 108.008 116.804 108.413 116.804 108.879ZM115.896 110.109V108.728C115.896 108.409 115.876 108.129 115.837 107.888C115.801 107.644 115.747 107.435 115.676 107.263C115.604 107.09 115.513 106.95 115.402 106.843C115.295 106.735 115.17 106.657 115.026 106.608C114.886 106.556 114.729 106.53 114.553 106.53C114.338 106.53 114.147 106.571 113.981 106.652C113.815 106.73 113.675 106.856 113.562 107.028C113.451 107.201 113.366 107.427 113.308 107.707C113.249 107.987 113.22 108.327 113.22 108.728V110.109C113.22 110.428 113.238 110.71 113.273 110.954C113.312 111.198 113.369 111.41 113.444 111.589C113.519 111.765 113.61 111.91 113.718 112.023C113.825 112.137 113.949 112.222 114.089 112.277C114.232 112.329 114.39 112.355 114.562 112.355C114.784 112.355 114.978 112.313 115.144 112.229C115.31 112.144 115.448 112.012 115.559 111.833C115.673 111.651 115.757 111.418 115.812 111.135C115.868 110.848 115.896 110.507 115.896 110.109ZM122.429 108.879V109.963C122.429 110.546 122.377 111.037 122.272 111.438C122.168 111.838 122.019 112.16 121.823 112.404C121.628 112.648 121.392 112.826 121.115 112.937C120.842 113.044 120.533 113.098 120.188 113.098C119.914 113.098 119.662 113.063 119.431 112.995C119.2 112.927 118.991 112.818 118.806 112.668C118.623 112.515 118.467 112.316 118.337 112.072C118.207 111.828 118.107 111.532 118.039 111.184C117.971 110.835 117.937 110.428 117.937 109.963V108.879C117.937 108.296 117.989 107.808 118.093 107.414C118.2 107.02 118.352 106.704 118.547 106.467C118.742 106.226 118.977 106.053 119.25 105.949C119.527 105.845 119.836 105.793 120.178 105.793C120.454 105.793 120.708 105.827 120.939 105.896C121.174 105.961 121.382 106.066 121.564 106.213C121.747 106.356 121.901 106.548 122.028 106.789C122.159 107.027 122.258 107.318 122.326 107.663C122.395 108.008 122.429 108.413 122.429 108.879ZM121.521 110.109V108.728C121.521 108.409 121.501 108.129 121.462 107.888C121.426 107.644 121.372 107.435 121.301 107.263C121.229 107.09 121.138 106.95 121.027 106.843C120.92 106.735 120.795 106.657 120.651 106.608C120.511 106.556 120.354 106.53 120.178 106.53C119.963 106.53 119.772 106.571 119.606 106.652C119.44 106.73 119.3 106.856 119.187 107.028C119.076 107.201 118.991 107.427 118.933 107.707C118.874 107.987 118.845 108.327 118.845 108.728V110.109C118.845 110.428 118.863 110.71 118.898 110.954C118.938 111.198 118.994 111.41 119.069 111.589C119.144 111.765 119.235 111.91 119.343 112.023C119.45 112.137 119.574 112.222 119.714 112.277C119.857 112.329 120.015 112.355 120.188 112.355C120.409 112.355 120.603 112.313 120.769 112.229C120.935 112.144 121.073 112.012 121.184 111.833C121.298 111.651 121.382 111.418 121.438 111.135C121.493 110.848 121.521 110.507 121.521 110.109Z" fill="black"/>
<path d="M134.5 302.5L163.744 252.161C164.388 251.053 165.893 250.828 166.833 251.699L183.615 267.253C184.571 268.139 186.106 267.889 186.731 266.744L205.817 231.752C206.226 231.003 207.065 230.596 207.906 230.738L237.938 235.82C238.601 235.932 239.276 235.704 239.735 235.212L258.166 215.432C258.907 214.636 260.149 214.579 260.96 215.303L276.202 228.897C277.137 229.73 278.598 229.51 279.246 228.438L290.984 209.009C291.713 207.803 293.426 207.708 294.283 208.826L302.265 219.237C303.109 220.338 304.789 220.267 305.537 219.098L317.863 199.839C318.748 198.456 320.83 198.67 321.416 200.203L331.875 227.559C332.399 228.928 334.168 229.287 335.184 228.232L344.774 218.273C345.474 217.546 346.607 217.455 347.414 218.061L362.463 229.347C363.322 229.991 364.536 229.843 365.214 229.011L374.4 217.737C374.78 217.271 375.349 217 375.95 217H416.538C416.842 217 417.142 217.069 417.415 217.202L436.386 226.457C437.068 226.789 437.881 226.707 438.482 226.244L449.961 217.415C450.31 217.146 450.739 217 451.18 217L478.5 217" stroke="#0E71B4" stroke-width="2"/>
<path d="M134.5 301.5L158.5 256.5L177.461 225.214C178.035 224.268 179.267 223.967 180.212 224.542L188.101 229.344C189.116 229.962 190.442 229.564 190.949 228.49L207 194.5L221.208 166.542C221.836 165.306 223.502 165.068 224.45 166.08L236.274 178.693C236.972 179.437 238.118 179.537 238.934 178.925L251.169 169.748C252.292 168.906 253.911 169.453 254.293 170.804L259.92 190.684C260.367 192.264 262.422 192.662 263.426 191.363L280.447 169.362C281.052 168.579 282.139 168.357 283.003 168.839L301.759 179.307C302.502 179.722 303.426 179.621 304.062 179.056L316.378 168.109C316.459 168.036 316.546 167.971 316.638 167.913L351.834 145.684C353.073 144.901 354.707 145.674 354.886 147.13L359.283 182.745C359.407 183.747 360.258 184.5 361.268 184.5H396.146C396.964 184.5 397.699 184.002 398.003 183.243L411.07 150.576C411.671 149.072 413.718 148.87 414.602 150.227L432.714 178.026C433.388 179.06 434.828 179.243 435.739 178.41L450.927 164.524C451.296 164.187 451.777 164 452.276 164H474.595C475.17 164 475.718 164.248 476.097 164.68L492.903 183.82C493.282 184.252 493.83 184.5 494.405 184.5H513" stroke="#A10D59" stroke-width="2"/>
<path d="M134.5 301.5L177.813 217.308C178.413 216.142 179.954 215.859 180.929 216.736L185.662 220.996C186.949 222.154 189 221.241 189 219.509V199.423C189 198.837 189.257 198.281 189.702 197.901L205.298 184.599C205.743 184.219 206 183.663 206 183.077V168.348C206 167.806 206.22 167.287 206.61 166.91L219.799 154.161C220.494 153.489 221.571 153.41 222.356 153.975L235.524 163.439C236.361 164.041 237.518 163.908 238.197 163.132L249.572 150.132C250.341 149.253 251.697 149.218 252.511 150.056L266.905 164.873C267.548 165.535 268.559 165.671 269.354 165.204L284.689 156.183C284.895 156.062 285.12 155.979 285.355 155.937L301.442 153.098C301.807 153.034 302.147 152.87 302.423 152.624L315.05 141.4C315.344 141.139 315.707 140.97 316.096 140.915L343.002 137.071C343.329 137.024 343.639 136.897 343.905 136.701L361.766 123.541C362.232 123.197 362.825 123.073 363.39 123.2L385.891 128.251C386.579 128.405 387.134 128.91 387.354 129.58L395.575 154.677C396.017 156.026 397.684 156.498 398.768 155.581L415.718 141.239C415.904 141.081 416.06 140.89 416.178 140.676L425.301 124.089C426.05 122.728 427.996 122.702 428.78 124.043L441.594 145.95C442.109 146.832 443.206 147.183 444.138 146.766L456.82 141.081C456.94 141.027 457.064 140.985 457.192 140.956L473.978 137.119C474.32 137.041 474.677 137.054 475.012 137.157L486.576 140.716C487.16 140.895 487.794 140.798 488.297 140.452L495.234 135.683C495.41 135.562 495.605 135.47 495.81 135.41L511 131" stroke="#E2001A" stroke-width="2"/>
<path d="M134 301L158.775 312.217C159.24 312.428 159.769 312.452 160.253 312.285L176.451 306.69C176.81 306.566 177.196 306.546 177.565 306.634L202.07 312.443C202.353 312.51 202.648 312.515 202.933 312.456L231.608 306.58C231.867 306.527 232.133 306.526 232.393 306.577L262.702 312.487C262.9 312.525 263.102 312.534 263.302 312.512L318.22 306.53C318.406 306.51 318.593 306.516 318.777 306.548L353.331 312.516C353.443 312.535 353.557 312.545 353.671 312.545H409.5" stroke="#96BF0D" stroke-width="2"/>
<path d="M7.98313 479L3.39113 473.912V479H1.93513V467.848H3.39113V473.016L7.99913 467.848H9.83913L4.78313 473.432L9.88713 479H7.98313ZM10.9693 474.584C10.9693 473.688 11.1506 472.904 11.5133 472.232C11.8759 471.549 12.3719 471.021 13.0013 470.648C13.6413 470.275 14.3506 470.088 15.1293 470.088C15.8973 470.088 16.5639 470.253 17.1293 470.584C17.6946 470.915 18.1159 471.331 18.3933 471.832V470.232H19.8653V479H18.3933V477.368C18.1053 477.88 17.6733 478.307 17.0973 478.648C16.5319 478.979 15.8706 479.144 15.1133 479.144C14.3346 479.144 13.6306 478.952 13.0013 478.568C12.3719 478.184 11.8759 477.645 11.5133 476.952C11.1506 476.259 10.9693 475.469 10.9693 474.584ZM18.3933 474.6C18.3933 473.939 18.2599 473.363 17.9933 472.872C17.7266 472.381 17.3639 472.008 16.9053 471.752C16.4573 471.485 15.9613 471.352 15.4173 471.352C14.8733 471.352 14.3773 471.48 13.9293 471.736C13.4813 471.992 13.1239 472.365 12.8573 472.856C12.5906 473.347 12.4573 473.923 12.4573 474.584C12.4573 475.256 12.5906 475.843 12.8573 476.344C13.1239 476.835 13.4813 477.213 13.9293 477.48C14.3773 477.736 14.8733 477.864 15.4173 477.864C15.9613 477.864 16.4573 477.736 16.9053 477.48C17.3639 477.213 17.7266 476.835 17.9933 476.344C18.2599 475.843 18.3933 475.261 18.3933 474.6ZM26.5978 470.072C27.6644 470.072 28.5284 470.397 29.1898 471.048C29.8511 471.688 30.1818 472.616 30.1818 473.832V479H28.7418V474.04C28.7418 473.165 28.5231 472.499 28.0858 472.04C27.6484 471.571 27.0511 471.336 26.2938 471.336C25.5258 471.336 24.9124 471.576 24.4538 472.056C24.0058 472.536 23.7818 473.235 23.7818 474.152V479H22.3258V470.232H23.7818V471.48C24.0698 471.032 24.4591 470.685 24.9498 470.44C25.4511 470.195 26.0004 470.072 26.5978 470.072ZM32.0161 474.584C32.0161 473.688 32.1975 472.904 32.5601 472.232C32.9228 471.549 33.4188 471.021 34.0481 470.648C34.6881 470.275 35.4028 470.088 36.1921 470.088C36.8748 470.088 37.5095 470.248 38.0961 470.568C38.6828 470.877 39.1308 471.288 39.4401 471.8V467.16H40.9121V479H39.4401V477.352C39.1521 477.875 38.7255 478.307 38.1601 478.648C37.5948 478.979 36.9335 479.144 36.1761 479.144C35.3975 479.144 34.6881 478.952 34.0481 478.568C33.4188 478.184 32.9228 477.645 32.5601 476.952C32.1975 476.259 32.0161 475.469 32.0161 474.584ZM39.4401 474.6C39.4401 473.939 39.3068 473.363 39.0401 472.872C38.7735 472.381 38.4108 472.008 37.9521 471.752C37.5041 471.485 37.0081 471.352 36.4641 471.352C35.9201 471.352 35.4241 471.48 34.9761 471.736C34.5281 471.992 34.1708 472.365 33.9041 472.856C33.6375 473.347 33.5041 473.923 33.5041 474.584C33.5041 475.256 33.6375 475.843 33.9041 476.344C34.1708 476.835 34.5281 477.213 34.9761 477.48C35.4241 477.736 35.9201 477.864 36.4641 477.864C37.0081 477.864 37.5041 477.736 37.9521 477.48C38.4108 477.213 38.7735 476.835 39.0401 476.344C39.3068 475.843 39.4401 475.261 39.4401 474.6ZM44.1246 468.808C43.8473 468.808 43.6126 468.712 43.4206 468.52C43.2286 468.328 43.1326 468.093 43.1326 467.816C43.1326 467.539 43.2286 467.304 43.4206 467.112C43.6126 466.92 43.8473 466.824 44.1246 466.824C44.3913 466.824 44.6153 466.92 44.7966 467.112C44.9886 467.304 45.0846 467.539 45.0846 467.816C45.0846 468.093 44.9886 468.328 44.7966 468.52C44.6153 468.712 44.3913 468.808 44.1246 468.808ZM44.8286 470.232V479H43.3726V470.232H44.8286ZM46.7661 474.584C46.7661 473.688 46.9475 472.904 47.3101 472.232C47.6728 471.549 48.1688 471.021 48.7981 470.648C49.4381 470.275 50.1528 470.088 50.9421 470.088C51.6248 470.088 52.2595 470.248 52.8461 470.568C53.4328 470.877 53.8808 471.288 54.1901 471.8V467.16H55.6621V479H54.1901V477.352C53.9021 477.875 53.4755 478.307 52.9101 478.648C52.3448 478.979 51.6835 479.144 50.9261 479.144C50.1475 479.144 49.4381 478.952 48.7981 478.568C48.1688 478.184 47.6728 477.645 47.3101 476.952C46.9475 476.259 46.7661 475.469 46.7661 474.584ZM54.1901 474.6C54.1901 473.939 54.0568 473.363 53.7901 472.872C53.5235 472.381 53.1608 472.008 52.7021 471.752C52.2541 471.485 51.7581 471.352 51.2141 471.352C50.6701 471.352 50.1741 471.48 49.7261 471.736C49.2781 471.992 48.9208 472.365 48.6541 472.856C48.3875 473.347 48.2541 473.923 48.2541 474.584C48.2541 475.256 48.3875 475.843 48.6541 476.344C48.9208 476.835 49.2781 477.213 49.7261 477.48C50.1741 477.736 50.6701 477.864 51.2141 477.864C51.7581 477.864 52.2541 477.736 52.7021 477.48C53.1608 477.213 53.5235 476.835 53.7901 476.344C54.0568 475.843 54.1901 475.261 54.1901 474.6ZM57.5786 474.584C57.5786 473.688 57.76 472.904 58.1226 472.232C58.4853 471.549 58.9813 471.021 59.6106 470.648C60.2506 470.275 60.96 470.088 61.7386 470.088C62.5066 470.088 63.1733 470.253 63.7386 470.584C64.304 470.915 64.7253 471.331 65.0026 471.832V470.232H66.4746V479H65.0026V477.368C64.7146 477.88 64.2826 478.307 63.7066 478.648C63.1413 478.979 62.48 479.144 61.7226 479.144C60.944 479.144 60.24 478.952 59.6106 478.568C58.9813 478.184 58.4853 477.645 58.1226 476.952C57.76 476.259 57.5786 475.469 57.5786 474.584ZM65.0026 474.6C65.0026 473.939 64.8693 473.363 64.6026 472.872C64.336 472.381 63.9733 472.008 63.5146 471.752C63.0666 471.485 62.5706 471.352 62.0266 471.352C61.4826 471.352 60.9866 471.48 60.5386 471.736C60.0906 471.992 59.7333 472.365 59.4666 472.856C59.2 473.347 59.0666 473.923 59.0666 474.584C59.0666 475.256 59.2 475.843 59.4666 476.344C59.7333 476.835 60.0906 477.213 60.5386 477.48C60.9866 477.736 61.4826 477.864 62.0266 477.864C62.5706 477.864 63.0666 477.736 63.5146 477.48C63.9733 477.213 64.336 476.835 64.6026 476.344C64.8693 475.843 65.0026 475.261 65.0026 474.6ZM70.7111 471.432V476.6C70.7111 477.027 70.8018 477.331 70.9831 477.512C71.1645 477.683 71.4791 477.768 71.9271 477.768H72.9991V479H71.6871C70.8765 479 70.2685 478.813 69.8631 478.44C69.4578 478.067 69.2551 477.453 69.2551 476.6V471.432H68.1191V470.232H69.2551V468.024H70.7111V470.232H72.9991V471.432H70.7111ZM85.1089 472.52V473.752H78.7249V472.52H85.1089ZM91.483 468.76V467.432H94.491V479H93.019V468.76H91.483Z" fill="#333333"/>
<g filter="url(#filter1_dii_634_321)">
<circle cx="121" cy="473" r="13" fill="#E2001A"/>
</g>
<path d="M178.905 479L174.313 473.912V479H172.857V467.848H174.313V473.016L178.921 467.848H180.761L175.705 473.432L180.809 479H178.905ZM181.891 474.584C181.891 473.688 182.072 472.904 182.435 472.232C182.798 471.549 183.294 471.021 183.923 470.648C184.563 470.275 185.272 470.088 186.051 470.088C186.819 470.088 187.486 470.253 188.051 470.584C188.616 470.915 189.038 471.331 189.315 471.832V470.232H190.787V479H189.315V477.368C189.027 477.88 188.595 478.307 188.019 478.648C187.454 478.979 186.792 479.144 186.035 479.144C185.256 479.144 184.552 478.952 183.923 478.568C183.294 478.184 182.798 477.645 182.435 476.952C182.072 476.259 181.891 475.469 181.891 474.584ZM189.315 474.6C189.315 473.939 189.182 473.363 188.915 472.872C188.648 472.381 188.286 472.008 187.827 471.752C187.379 471.485 186.883 471.352 186.339 471.352C185.795 471.352 185.299 471.48 184.851 471.736C184.403 471.992 184.046 472.365 183.779 472.856C183.512 473.347 183.379 473.923 183.379 474.584C183.379 475.256 183.512 475.843 183.779 476.344C184.046 476.835 184.403 477.213 184.851 477.48C185.299 477.736 185.795 477.864 186.339 477.864C186.883 477.864 187.379 477.736 187.827 477.48C188.286 477.213 188.648 476.835 188.915 476.344C189.182 475.843 189.315 475.261 189.315 474.6ZM197.52 470.072C198.586 470.072 199.45 470.397 200.112 471.048C200.773 471.688 201.104 472.616 201.104 473.832V479H199.664V474.04C199.664 473.165 199.445 472.499 199.008 472.04C198.57 471.571 197.973 471.336 197.216 471.336C196.448 471.336 195.834 471.576 195.376 472.056C194.928 472.536 194.704 473.235 194.704 474.152V479H193.248V470.232H194.704V471.48C194.992 471.032 195.381 470.685 195.872 470.44C196.373 470.195 196.922 470.072 197.52 470.072ZM202.938 474.584C202.938 473.688 203.119 472.904 203.482 472.232C203.845 471.549 204.341 471.021 204.97 470.648C205.61 470.275 206.325 470.088 207.114 470.088C207.797 470.088 208.431 470.248 209.018 470.568C209.605 470.877 210.053 471.288 210.362 471.8V467.16H211.834V479H210.362V477.352C210.074 477.875 209.647 478.307 209.082 478.648C208.517 478.979 207.855 479.144 207.098 479.144C206.319 479.144 205.61 478.952 204.97 478.568C204.341 478.184 203.845 477.645 203.482 476.952C203.119 476.259 202.938 475.469 202.938 474.584ZM210.362 474.6C210.362 473.939 210.229 473.363 209.962 472.872C209.695 472.381 209.333 472.008 208.874 471.752C208.426 471.485 207.93 471.352 207.386 471.352C206.842 471.352 206.346 471.48 205.898 471.736C205.45 471.992 205.093 472.365 204.826 472.856C204.559 473.347 204.426 473.923 204.426 474.584C204.426 475.256 204.559 475.843 204.826 476.344C205.093 476.835 205.45 477.213 205.898 477.48C206.346 477.736 206.842 477.864 207.386 477.864C207.93 477.864 208.426 477.736 208.874 477.48C209.333 477.213 209.695 476.835 209.962 476.344C210.229 475.843 210.362 475.261 210.362 474.6ZM215.047 468.808C214.769 468.808 214.535 468.712 214.343 468.52C214.151 468.328 214.055 468.093 214.055 467.816C214.055 467.539 214.151 467.304 214.343 467.112C214.535 466.92 214.769 466.824 215.047 466.824C215.313 466.824 215.537 466.92 215.719 467.112C215.911 467.304 216.007 467.539 216.007 467.816C216.007 468.093 215.911 468.328 215.719 468.52C215.537 468.712 215.313 468.808 215.047 468.808ZM215.751 470.232V479H214.295V470.232H215.751ZM217.688 474.584C217.688 473.688 217.869 472.904 218.232 472.232C218.595 471.549 219.091 471.021 219.72 470.648C220.36 470.275 221.075 470.088 221.864 470.088C222.547 470.088 223.181 470.248 223.768 470.568C224.355 470.877 224.803 471.288 225.112 471.8V467.16H226.584V479H225.112V477.352C224.824 477.875 224.397 478.307 223.832 478.648C223.267 478.979 222.605 479.144 221.848 479.144C221.069 479.144 220.36 478.952 219.72 478.568C219.091 478.184 218.595 477.645 218.232 476.952C217.869 476.259 217.688 475.469 217.688 474.584ZM225.112 474.6C225.112 473.939 224.979 473.363 224.712 472.872C224.445 472.381 224.083 472.008 223.624 471.752C223.176 471.485 222.68 471.352 222.136 471.352C221.592 471.352 221.096 471.48 220.648 471.736C220.2 471.992 219.843 472.365 219.576 472.856C219.309 473.347 219.176 473.923 219.176 474.584C219.176 475.256 219.309 475.843 219.576 476.344C219.843 476.835 220.2 477.213 220.648 477.48C221.096 477.736 221.592 477.864 222.136 477.864C222.68 477.864 223.176 477.736 223.624 477.48C224.083 477.213 224.445 476.835 224.712 476.344C224.979 475.843 225.112 475.261 225.112 474.6ZM228.501 474.584C228.501 473.688 228.682 472.904 229.045 472.232C229.407 471.549 229.903 471.021 230.533 470.648C231.173 470.275 231.882 470.088 232.661 470.088C233.429 470.088 234.095 470.253 234.661 470.584C235.226 470.915 235.647 471.331 235.925 471.832V470.232H237.397V479H235.925V477.368C235.637 477.88 235.205 478.307 234.629 478.648C234.063 478.979 233.402 479.144 232.645 479.144C231.866 479.144 231.162 478.952 230.533 478.568C229.903 478.184 229.407 477.645 229.045 476.952C228.682 476.259 228.501 475.469 228.501 474.584ZM235.925 474.6C235.925 473.939 235.791 473.363 235.525 472.872C235.258 472.381 234.895 472.008 234.437 471.752C233.989 471.485 233.493 471.352 232.949 471.352C232.405 471.352 231.909 471.48 231.461 471.736C231.013 471.992 230.655 472.365 230.389 472.856C230.122 473.347 229.989 473.923 229.989 474.584C229.989 475.256 230.122 475.843 230.389 476.344C230.655 476.835 231.013 477.213 231.461 477.48C231.909 477.736 232.405 477.864 232.949 477.864C233.493 477.864 233.989 477.736 234.437 477.48C234.895 477.213 235.258 476.835 235.525 476.344C235.791 475.843 235.925 475.261 235.925 474.6ZM241.633 471.432V476.6C241.633 477.027 241.724 477.331 241.905 477.512C242.086 477.683 242.401 477.768 242.849 477.768H243.921V479H242.609C241.798 479 241.19 478.813 240.785 478.44C240.38 478.067 240.177 477.453 240.177 476.6V471.432H239.041V470.232H240.177V468.024H241.633V470.232H243.921V471.432H241.633ZM256.031 472.52V473.752H249.647V472.52H256.031ZM262.613 477.832C263.968 476.744 265.029 475.853 265.797 475.16C266.565 474.456 267.21 473.725 267.733 472.968C268.266 472.2 268.533 471.448 268.533 470.712C268.533 470.019 268.362 469.475 268.021 469.08C267.69 468.675 267.152 468.472 266.405 468.472C265.68 468.472 265.114 468.701 264.709 469.16C264.314 469.608 264.101 470.211 264.069 470.968H262.661C262.704 469.773 263.066 468.851 263.749 468.2C264.432 467.549 265.312 467.224 266.389 467.224C267.488 467.224 268.357 467.528 268.997 468.136C269.648 468.744 269.973 469.581 269.973 470.648C269.973 471.533 269.706 472.397 269.173 473.24C268.65 474.072 268.053 474.808 267.381 475.448C266.709 476.077 265.85 476.813 264.805 477.656H270.309V478.872H262.613V477.832Z" fill="#333333"/>
<g filter="url(#filter2_dii_634_321)">
<circle cx="298" cy="473" r="13" fill="#A10D59"/>
</g>
<path d="M355.686 478L351.094 472.912V478H349.638V466.848H351.094V472.016L355.702 466.848H357.542L352.486 472.432L357.59 478H355.686ZM358.672 473.584C358.672 472.688 358.854 471.904 359.216 471.232C359.579 470.549 360.075 470.021 360.704 469.648C361.344 469.275 362.054 469.088 362.832 469.088C363.6 469.088 364.267 469.253 364.832 469.584C365.398 469.915 365.819 470.331 366.096 470.832V469.232H367.568V478H366.096V476.368C365.808 476.88 365.376 477.307 364.8 477.648C364.235 477.979 363.574 478.144 362.816 478.144C362.038 478.144 361.334 477.952 360.704 477.568C360.075 477.184 359.579 476.645 359.216 475.952C358.854 475.259 358.672 474.469 358.672 473.584ZM366.096 473.6C366.096 472.939 365.963 472.363 365.696 471.872C365.43 471.381 365.067 471.008 364.608 470.752C364.16 470.485 363.664 470.352 363.12 470.352C362.576 470.352 362.08 470.48 361.632 470.736C361.184 470.992 360.827 471.365 360.56 471.856C360.294 472.347 360.16 472.923 360.16 473.584C360.16 474.256 360.294 474.843 360.56 475.344C360.827 475.835 361.184 476.213 361.632 476.48C362.08 476.736 362.576 476.864 363.12 476.864C363.664 476.864 364.16 476.736 364.608 476.48C365.067 476.213 365.43 475.835 365.696 475.344C365.963 474.843 366.096 474.261 366.096 473.6ZM374.301 469.072C375.368 469.072 376.232 469.397 376.893 470.048C377.554 470.688 377.885 471.616 377.885 472.832V478H376.445V473.04C376.445 472.165 376.226 471.499 375.789 471.04C375.352 470.571 374.754 470.336 373.997 470.336C373.229 470.336 372.616 470.576 372.157 471.056C371.709 471.536 371.485 472.235 371.485 473.152V478H370.029V469.232H371.485V470.48C371.773 470.032 372.162 469.685 372.653 469.44C373.154 469.195 373.704 469.072 374.301 469.072ZM379.719 473.584C379.719 472.688 379.901 471.904 380.263 471.232C380.626 470.549 381.122 470.021 381.751 469.648C382.391 469.275 383.106 469.088 383.895 469.088C384.578 469.088 385.213 469.248 385.799 469.568C386.386 469.877 386.834 470.288 387.143 470.8V466.16H388.615V478H387.143V476.352C386.855 476.875 386.429 477.307 385.863 477.648C385.298 477.979 384.637 478.144 383.879 478.144C383.101 478.144 382.391 477.952 381.751 477.568C381.122 477.184 380.626 476.645 380.263 475.952C379.901 475.259 379.719 474.469 379.719 473.584ZM387.143 473.6C387.143 472.939 387.01 472.363 386.743 471.872C386.477 471.381 386.114 471.008 385.655 470.752C385.207 470.485 384.711 470.352 384.167 470.352C383.623 470.352 383.127 470.48 382.679 470.736C382.231 470.992 381.874 471.365 381.607 471.856C381.341 472.347 381.207 472.923 381.207 473.584C381.207 474.256 381.341 474.843 381.607 475.344C381.874 475.835 382.231 476.213 382.679 476.48C383.127 476.736 383.623 476.864 384.167 476.864C384.711 476.864 385.207 476.736 385.655 476.48C386.114 476.213 386.477 475.835 386.743 475.344C387.01 474.843 387.143 474.261 387.143 473.6ZM391.828 467.808C391.55 467.808 391.316 467.712 391.124 467.52C390.932 467.328 390.836 467.093 390.836 466.816C390.836 466.539 390.932 466.304 391.124 466.112C391.316 465.92 391.55 465.824 391.828 465.824C392.094 465.824 392.318 465.92 392.5 466.112C392.692 466.304 392.788 466.539 392.788 466.816C392.788 467.093 392.692 467.328 392.5 467.52C392.318 467.712 392.094 467.808 391.828 467.808ZM392.532 469.232V478H391.076V469.232H392.532ZM394.469 473.584C394.469 472.688 394.651 471.904 395.013 471.232C395.376 470.549 395.872 470.021 396.501 469.648C397.141 469.275 397.856 469.088 398.645 469.088C399.328 469.088 399.963 469.248 400.549 469.568C401.136 469.877 401.584 470.288 401.893 470.8V466.16H403.365V478H401.893V476.352C401.605 476.875 401.179 477.307 400.613 477.648C400.048 477.979 399.387 478.144 398.629 478.144C397.851 478.144 397.141 477.952 396.501 477.568C395.872 477.184 395.376 476.645 395.013 475.952C394.651 475.259 394.469 474.469 394.469 473.584ZM401.893 473.6C401.893 472.939 401.76 472.363 401.493 471.872C401.227 471.381 400.864 471.008 400.405 470.752C399.957 470.485 399.461 470.352 398.917 470.352C398.373 470.352 397.877 470.48 397.429 470.736C396.981 470.992 396.624 471.365 396.357 471.856C396.091 472.347 395.957 472.923 395.957 473.584C395.957 474.256 396.091 474.843 396.357 475.344C396.624 475.835 396.981 476.213 397.429 476.48C397.877 476.736 398.373 476.864 398.917 476.864C399.461 476.864 399.957 476.736 400.405 476.48C400.864 476.213 401.227 475.835 401.493 475.344C401.76 474.843 401.893 474.261 401.893 473.6ZM405.282 473.584C405.282 472.688 405.463 471.904 405.826 471.232C406.188 470.549 406.684 470.021 407.314 469.648C407.954 469.275 408.663 469.088 409.442 469.088C410.21 469.088 410.876 469.253 411.442 469.584C412.007 469.915 412.428 470.331 412.706 470.832V469.232H414.178V478H412.706V476.368C412.418 476.88 411.986 477.307 411.41 477.648C410.844 477.979 410.183 478.144 409.426 478.144C408.647 478.144 407.943 477.952 407.314 477.568C406.684 477.184 406.188 476.645 405.826 475.952C405.463 475.259 405.282 474.469 405.282 473.584ZM412.706 473.6C412.706 472.939 412.572 472.363 412.306 471.872C412.039 471.381 411.676 471.008 411.218 470.752C410.77 470.485 410.274 470.352 409.73 470.352C409.186 470.352 408.69 470.48 408.242 470.736C407.794 470.992 407.436 471.365 407.17 471.856C406.903 472.347 406.77 472.923 406.77 473.584C406.77 474.256 406.903 474.843 407.17 475.344C407.436 475.835 407.794 476.213 408.242 476.48C408.69 476.736 409.186 476.864 409.73 476.864C410.274 476.864 410.77 476.736 411.218 476.48C411.676 476.213 412.039 475.835 412.306 475.344C412.572 474.843 412.706 474.261 412.706 473.6ZM418.414 470.432V475.6C418.414 476.027 418.505 476.331 418.686 476.512C418.868 476.683 419.182 476.768 419.63 476.768H420.702V478H419.39C418.58 478 417.972 477.813 417.566 477.44C417.161 477.067 416.958 476.453 416.958 475.6V470.432H415.822V469.232H416.958V467.024H418.414V469.232H420.702V470.432H418.414ZM432.812 471.52V472.752H426.428V471.52H432.812ZM439.538 469.344C439.613 468.363 439.991 467.595 440.674 467.04C441.357 466.485 442.242 466.208 443.33 466.208C444.055 466.208 444.679 466.341 445.202 466.608C445.735 466.864 446.135 467.216 446.402 467.664C446.679 468.112 446.818 468.619 446.818 469.184C446.818 469.845 446.626 470.416 446.242 470.896C445.869 471.376 445.378 471.685 444.77 471.824V471.904C445.463 472.075 446.013 472.411 446.418 472.912C446.823 473.413 447.026 474.069 447.026 474.88C447.026 475.488 446.887 476.037 446.61 476.528C446.333 477.008 445.917 477.387 445.362 477.664C444.807 477.941 444.141 478.08 443.362 478.08C442.231 478.08 441.303 477.787 440.578 477.2C439.853 476.603 439.447 475.76 439.362 474.672H440.77C440.845 475.312 441.106 475.835 441.554 476.24C442.002 476.645 442.599 476.848 443.346 476.848C444.093 476.848 444.658 476.656 445.042 476.272C445.437 475.877 445.634 475.371 445.634 474.752C445.634 473.952 445.367 473.376 444.834 473.024C444.301 472.672 443.495 472.496 442.418 472.496H442.05V471.28H442.434C443.415 471.269 444.157 471.109 444.658 470.8C445.159 470.48 445.41 469.989 445.41 469.328C445.41 468.763 445.223 468.309 444.85 467.968C444.487 467.627 443.965 467.456 443.282 467.456C442.621 467.456 442.087 467.627 441.682 467.968C441.277 468.309 441.037 468.768 440.962 469.344H439.538Z" fill="#333333"/>
<g filter="url(#filter3_dii_634_321)">
<circle cx="475" cy="473" r="13" fill="#0E71B4"/>
</g>
<path d="M533.046 479L528.454 473.912V479H526.998V467.848H528.454V473.016L533.062 467.848H534.902L529.846 473.432L534.95 479H533.046ZM536.032 474.584C536.032 473.688 536.213 472.904 536.576 472.232C536.938 471.549 537.434 471.021 538.064 470.648C538.704 470.275 539.413 470.088 540.192 470.088C540.96 470.088 541.626 470.253 542.192 470.584C542.757 470.915 543.178 471.331 543.456 471.832V470.232H544.928V479H543.456V477.368C543.168 477.88 542.736 478.307 542.16 478.648C541.594 478.979 540.933 479.144 540.176 479.144C539.397 479.144 538.693 478.952 538.064 478.568C537.434 478.184 536.938 477.645 536.576 476.952C536.213 476.259 536.032 475.469 536.032 474.584ZM543.456 474.6C543.456 473.939 543.322 473.363 543.056 472.872C542.789 472.381 542.426 472.008 541.968 471.752C541.52 471.485 541.024 471.352 540.48 471.352C539.936 471.352 539.44 471.48 538.992 471.736C538.544 471.992 538.186 472.365 537.92 472.856C537.653 473.347 537.52 473.923 537.52 474.584C537.52 475.256 537.653 475.843 537.92 476.344C538.186 476.835 538.544 477.213 538.992 477.48C539.44 477.736 539.936 477.864 540.48 477.864C541.024 477.864 541.52 477.736 541.968 477.48C542.426 477.213 542.789 476.835 543.056 476.344C543.322 475.843 543.456 475.261 543.456 474.6ZM551.66 470.072C552.727 470.072 553.591 470.397 554.252 471.048C554.914 471.688 555.244 472.616 555.244 473.832V479H553.804V474.04C553.804 473.165 553.586 472.499 553.148 472.04C552.711 471.571 552.114 471.336 551.356 471.336C550.588 471.336 549.975 471.576 549.516 472.056C549.068 472.536 548.844 473.235 548.844 474.152V479H547.388V470.232H548.844V471.48C549.132 471.032 549.522 470.685 550.012 470.44C550.514 470.195 551.063 470.072 551.66 470.072ZM557.079 474.584C557.079 473.688 557.26 472.904 557.623 472.232C557.985 471.549 558.481 471.021 559.111 470.648C559.751 470.275 560.465 470.088 561.255 470.088C561.937 470.088 562.572 470.248 563.159 470.568C563.745 470.877 564.193 471.288 564.503 471.8V467.16H565.975V479H564.503V477.352C564.215 477.875 563.788 478.307 563.223 478.648C562.657 478.979 561.996 479.144 561.239 479.144C560.46 479.144 559.751 478.952 559.111 478.568C558.481 478.184 557.985 477.645 557.623 476.952C557.26 476.259 557.079 475.469 557.079 474.584ZM564.503 474.6C564.503 473.939 564.369 473.363 564.103 472.872C563.836 472.381 563.473 472.008 563.015 471.752C562.567 471.485 562.071 471.352 561.527 471.352C560.983 471.352 560.487 471.48 560.039 471.736C559.591 471.992 559.233 472.365 558.967 472.856C558.7 473.347 558.567 473.923 558.567 474.584C558.567 475.256 558.7 475.843 558.967 476.344C559.233 476.835 559.591 477.213 560.039 477.48C560.487 477.736 560.983 477.864 561.527 477.864C562.071 477.864 562.567 477.736 563.015 477.48C563.473 477.213 563.836 476.835 564.103 476.344C564.369 475.843 564.503 475.261 564.503 474.6ZM569.187 468.808C568.91 468.808 568.675 468.712 568.483 468.52C568.291 468.328 568.195 468.093 568.195 467.816C568.195 467.539 568.291 467.304 568.483 467.112C568.675 466.92 568.91 466.824 569.187 466.824C569.454 466.824 569.678 466.92 569.859 467.112C570.051 467.304 570.147 467.539 570.147 467.816C570.147 468.093 570.051 468.328 569.859 468.52C569.678 468.712 569.454 468.808 569.187 468.808ZM569.891 470.232V479H568.435V470.232H569.891ZM571.829 474.584C571.829 473.688 572.01 472.904 572.373 472.232C572.735 471.549 573.231 471.021 573.861 470.648C574.501 470.275 575.215 470.088 576.005 470.088C576.687 470.088 577.322 470.248 577.909 470.568C578.495 470.877 578.943 471.288 579.253 471.8V467.16H580.725V479H579.253V477.352C578.965 477.875 578.538 478.307 577.973 478.648C577.407 478.979 576.746 479.144 575.989 479.144C575.21 479.144 574.501 478.952 573.861 478.568C573.231 478.184 572.735 477.645 572.373 476.952C572.01 476.259 571.829 475.469 571.829 474.584ZM579.253 474.6C579.253 473.939 579.119 473.363 578.853 472.872C578.586 472.381 578.223 472.008 577.765 471.752C577.317 471.485 576.821 471.352 576.277 471.352C575.733 471.352 575.237 471.48 574.789 471.736C574.341 471.992 573.983 472.365 573.717 472.856C573.45 473.347 573.317 473.923 573.317 474.584C573.317 475.256 573.45 475.843 573.717 476.344C573.983 476.835 574.341 477.213 574.789 477.48C575.237 477.736 575.733 477.864 576.277 477.864C576.821 477.864 577.317 477.736 577.765 477.48C578.223 477.213 578.586 476.835 578.853 476.344C579.119 475.843 579.253 475.261 579.253 474.6ZM582.641 474.584C582.641 473.688 582.822 472.904 583.185 472.232C583.548 471.549 584.044 471.021 584.673 470.648C585.313 470.275 586.022 470.088 586.801 470.088C587.569 470.088 588.236 470.253 588.801 470.584C589.366 470.915 589.788 471.331 590.065 471.832V470.232H591.537V479H590.065V477.368C589.777 477.88 589.345 478.307 588.769 478.648C588.204 478.979 587.542 479.144 586.785 479.144C586.006 479.144 585.302 478.952 584.673 478.568C584.044 478.184 583.548 477.645 583.185 476.952C582.822 476.259 582.641 475.469 582.641 474.584ZM590.065 474.6C590.065 473.939 589.932 473.363 589.665 472.872C589.398 472.381 589.036 472.008 588.577 471.752C588.129 471.485 587.633 471.352 587.089 471.352C586.545 471.352 586.049 471.48 585.601 471.736C585.153 471.992 584.796 472.365 584.529 472.856C584.262 473.347 584.129 473.923 584.129 474.584C584.129 475.256 584.262 475.843 584.529 476.344C584.796 476.835 585.153 477.213 585.601 477.48C586.049 477.736 586.545 477.864 587.089 477.864C587.633 477.864 588.129 477.736 588.577 477.48C589.036 477.213 589.398 476.835 589.665 476.344C589.932 475.843 590.065 475.261 590.065 474.6ZM595.774 471.432V476.6C595.774 477.027 595.864 477.331 596.046 477.512C596.227 477.683 596.542 477.768 596.99 477.768H598.062V479H596.75C595.939 479 595.331 478.813 594.926 478.44C594.52 478.067 594.318 477.453 594.318 476.6V471.432H593.182V470.232H594.318V468.024H595.774V470.232H598.062V471.432H595.774ZM610.171 472.52V473.752H603.787V472.52H610.171ZM616.578 476.424V475.32L622.194 467.544H623.938V475.16H625.538V476.424H623.938V479H622.498V476.424H616.578ZM622.562 469.064L618.258 475.16H622.562V469.064Z" fill="#333333"/>
<g filter="url(#filter4_dii_634_321)">
<circle cx="655" cy="473" r="13" fill="#96BF0D"/>
</g>
<path d="M58.112 232.031C59.04 232.031 59.8133 232.351 60.432 232.991C61.04 233.62 61.344 234.585 61.344 235.887V238.031H66V239.487H54.848V235.887C54.848 234.628 55.152 233.673 55.76 233.023C56.368 232.361 57.152 232.031 58.112 232.031ZM60.144 235.887C60.144 235.076 59.968 234.479 59.616 234.095C59.264 233.711 58.7627 233.519 58.112 233.519C56.736 233.519 56.048 234.308 56.048 235.887V238.031H60.144V235.887ZM57.232 222.445H66V223.901H64.704C65.152 224.178 65.504 224.568 65.76 225.069C66.0053 225.56 66.128 226.104 66.128 226.701C66.128 227.384 65.9893 227.997 65.712 228.541C65.424 229.085 64.9973 229.517 64.432 229.837C63.8667 230.146 63.1787 230.301 62.368 230.301H57.232V228.861H62.176C63.04 228.861 63.7067 228.642 64.176 228.205C64.6347 227.768 64.864 227.17 64.864 226.413C64.864 225.634 64.624 225.021 64.144 224.573C63.664 224.125 62.9653 223.901 62.048 223.901H57.232V222.445ZM57.072 215.715C57.072 214.648 57.3973 213.784 58.048 213.123C58.688 212.461 59.616 212.131 60.832 212.131H66V213.571H61.04C60.1653 213.571 59.4987 213.789 59.04 214.227C58.5707 214.664 58.336 215.261 58.336 216.019C58.336 216.787 58.576 217.4 59.056 217.859C59.536 218.307 60.2347 218.531 61.152 218.531H66V219.987H57.232V218.531H58.48C58.032 218.243 57.6853 217.853 57.44 217.363C57.1947 216.861 57.072 216.312 57.072 215.715ZM66 204.856L62.128 208.296H66V209.752H54.16V208.296H61.12L57.232 204.92V202.888L61.6 207.016L66 202.872V204.856ZM58.432 199.742H63.6C64.0267 199.742 64.3307 199.651 64.512 199.47C64.6827 199.289 64.768 198.974 64.768 198.526V197.454H66V198.766C66 199.577 65.8133 200.185 65.44 200.59C65.0667 200.995 64.4533 201.198 63.6 201.198H58.432V202.334H57.232V201.198H55.024V199.742H57.232V197.454H58.432V199.742ZM61.28 187.69C61.5573 187.69 61.8507 187.706 62.16 187.738V194.746C63.024 194.693 63.7013 194.399 64.192 193.866C64.672 193.322 64.912 192.666 64.912 191.898C64.912 191.269 64.768 190.746 64.48 190.33C64.1813 189.903 63.7867 189.605 63.296 189.434V187.866C64.1387 188.101 64.8267 188.57 65.36 189.274C65.8827 189.978 66.144 190.853 66.144 191.898C66.144 192.73 65.9573 193.477 65.584 194.138C65.2107 194.789 64.6827 195.301 64 195.674C63.3067 196.047 62.5067 196.234 61.6 196.234C60.6933 196.234 59.8987 196.053 59.216 195.69C58.5333 195.327 58.0107 194.821 57.648 194.17C57.2747 193.509 57.088 192.751 57.088 191.898C57.088 191.066 57.2693 190.33 57.632 189.69C57.9947 189.05 58.496 188.559 59.136 188.218C59.7653 187.866 60.48 187.69 61.28 187.69ZM60.976 189.194C60.4213 189.194 59.9467 189.317 59.552 189.562C59.1467 189.807 58.8427 190.143 58.64 190.57C58.4267 190.986 58.32 191.45 58.32 191.962C58.32 192.698 58.5547 193.327 59.024 193.85C59.4933 194.362 60.144 194.655 60.976 194.73V189.194Z" fill="black"/>
<path d="M257.402 393.52H252.538L251.642 396H250.106L254.138 384.912H255.818L259.834 396H258.298L257.402 393.52ZM256.986 392.336L254.97 386.704L252.954 392.336H256.986ZM265.863 387.072C266.93 387.072 267.794 387.397 268.455 388.048C269.117 388.688 269.447 389.616 269.447 390.832V396H268.007V391.04C268.007 390.165 267.789 389.499 267.351 389.04C266.914 388.571 266.317 388.336 265.559 388.336C264.791 388.336 264.178 388.576 263.719 389.056C263.271 389.536 263.047 390.235 263.047 391.152V396H261.591V387.232H263.047V388.48C263.335 388.032 263.725 387.685 264.215 387.44C264.717 387.195 265.266 387.072 265.863 387.072ZM271.282 391.584C271.282 390.688 271.463 389.904 271.826 389.232C272.188 388.549 272.684 388.021 273.314 387.648C273.954 387.275 274.663 387.088 275.442 387.088C276.21 387.088 276.876 387.253 277.442 387.584C278.007 387.915 278.428 388.331 278.706 388.832V387.232H280.178V396H278.706V394.368C278.418 394.88 277.986 395.307 277.41 395.648C276.844 395.979 276.183 396.144 275.426 396.144C274.647 396.144 273.943 395.952 273.314 395.568C272.684 395.184 272.188 394.645 271.826 393.952C271.463 393.259 271.282 392.469 271.282 391.584ZM278.706 391.6C278.706 390.939 278.572 390.363 278.306 389.872C278.039 389.381 277.676 389.008 277.218 388.752C276.77 388.485 276.274 388.352 275.73 388.352C275.186 388.352 274.69 388.48 274.242 388.736C273.794 388.992 273.436 389.365 273.17 389.856C272.903 390.347 272.77 390.923 272.77 391.584C272.77 392.256 272.903 392.843 273.17 393.344C273.436 393.835 273.794 394.213 274.242 394.48C274.69 394.736 275.186 394.864 275.73 394.864C276.274 394.864 276.77 394.736 277.218 394.48C277.676 394.213 278.039 393.835 278.306 393.344C278.572 392.843 278.706 392.261 278.706 391.6ZM283.726 394.8H288.03V396H282.062V394.8L286.318 388.416H282.094V387.232H287.998V388.416L283.726 394.8ZM294.272 387.072C294.933 387.072 295.53 387.216 296.064 387.504C296.597 387.781 297.013 388.203 297.312 388.768C297.621 389.333 297.776 390.021 297.776 390.832V396H296.336V391.04C296.336 390.165 296.117 389.499 295.68 389.04C295.242 388.571 294.645 388.336 293.888 388.336C293.12 388.336 292.506 388.576 292.048 389.056C291.6 389.536 291.376 390.235 291.376 391.152V396H289.92V384.16H291.376V388.48C291.664 388.032 292.058 387.685 292.56 387.44C293.072 387.195 293.642 387.072 294.272 387.072ZM300.906 385.808C300.629 385.808 300.394 385.712 300.202 385.52C300.01 385.328 299.914 385.093 299.914 384.816C299.914 384.539 300.01 384.304 300.202 384.112C300.394 383.92 300.629 383.824 300.906 383.824C301.173 383.824 301.397 383.92 301.578 384.112C301.77 384.304 301.866 384.539 301.866 384.816C301.866 385.093 301.77 385.328 301.578 385.52C301.397 385.712 301.173 385.808 300.906 385.808ZM301.61 387.232V396H300.154V387.232H301.61ZM314.949 393.52H310.085L309.189 396H307.653L311.685 384.912H313.365L317.381 396H315.845L314.949 393.52ZM314.533 392.336L312.517 386.704L310.501 392.336H314.533ZM326.914 387.232V396H325.458V394.704C325.181 395.152 324.792 395.504 324.29 395.76C323.8 396.005 323.256 396.128 322.658 396.128C321.976 396.128 321.362 395.989 320.818 395.712C320.274 395.424 319.842 394.997 319.522 394.432C319.213 393.867 319.058 393.179 319.058 392.368V387.232H320.498V392.176C320.498 393.04 320.717 393.707 321.154 394.176C321.592 394.635 322.189 394.864 322.946 394.864C323.725 394.864 324.338 394.624 324.786 394.144C325.234 393.664 325.458 392.965 325.458 392.048V387.232H326.914ZM332.941 388.432H331.101V396H329.645V388.432H328.509V387.232H329.645V386.608C329.645 385.627 329.895 384.912 330.397 384.464C330.909 384.005 331.725 383.776 332.845 383.776V384.992C332.205 384.992 331.751 385.12 331.485 385.376C331.229 385.621 331.101 386.032 331.101 386.608V387.232H332.941V388.432ZM338.254 387.088C339.012 387.088 339.673 387.253 340.238 387.584C340.814 387.915 341.241 388.331 341.518 388.832V387.232H342.99V396.192C342.99 396.992 342.82 397.701 342.478 398.32C342.137 398.949 341.646 399.44 341.006 399.792C340.377 400.144 339.641 400.32 338.798 400.32C337.646 400.32 336.686 400.048 335.918 399.504C335.15 398.96 334.697 398.219 334.558 397.28H335.998C336.158 397.813 336.489 398.24 336.99 398.56C337.492 398.891 338.094 399.056 338.798 399.056C339.598 399.056 340.249 398.805 340.75 398.304C341.262 397.803 341.518 397.099 341.518 396.192V394.352C341.23 394.864 340.804 395.291 340.238 395.632C339.673 395.973 339.012 396.144 338.254 396.144C337.476 396.144 336.766 395.952 336.126 395.568C335.497 395.184 335.001 394.645 334.638 393.952C334.276 393.259 334.094 392.469 334.094 391.584C334.094 390.688 334.276 389.904 334.638 389.232C335.001 388.549 335.497 388.021 336.126 387.648C336.766 387.275 337.476 387.088 338.254 387.088ZM341.518 391.6C341.518 390.939 341.385 390.363 341.118 389.872C340.852 389.381 340.489 389.008 340.03 388.752C339.582 388.485 339.086 388.352 338.542 388.352C337.998 388.352 337.502 388.48 337.054 388.736C336.606 388.992 336.249 389.365 335.982 389.856C335.716 390.347 335.582 390.923 335.582 391.584C335.582 392.256 335.716 392.843 335.982 393.344C336.249 393.835 336.606 394.213 337.054 394.48C337.502 394.736 337.998 394.864 338.542 394.864C339.086 394.864 339.582 394.736 340.03 394.48C340.489 394.213 340.852 393.835 341.118 393.344C341.385 392.843 341.518 392.261 341.518 391.6ZM344.907 391.584C344.907 390.688 345.088 389.904 345.451 389.232C345.813 388.549 346.309 388.021 346.939 387.648C347.579 387.275 348.288 387.088 349.067 387.088C349.835 387.088 350.501 387.253 351.067 387.584C351.632 387.915 352.053 388.331 352.331 388.832V387.232H353.803V396H352.331V394.368C352.043 394.88 351.611 395.307 351.035 395.648C350.469 395.979 349.808 396.144 349.051 396.144C348.272 396.144 347.568 395.952 346.939 395.568C346.309 395.184 345.813 394.645 345.451 393.952C345.088 393.259 344.907 392.469 344.907 391.584ZM352.331 391.6C352.331 390.939 352.197 390.363 351.931 389.872C351.664 389.381 351.301 389.008 350.843 388.752C350.395 388.485 349.899 388.352 349.355 388.352C348.811 388.352 348.315 388.48 347.867 388.736C347.419 388.992 347.061 389.365 346.795 389.856C346.528 390.347 346.395 390.923 346.395 391.584C346.395 392.256 346.528 392.843 346.795 393.344C347.061 393.835 347.419 394.213 347.867 394.48C348.315 394.736 348.811 394.864 349.355 394.864C349.899 394.864 350.395 394.736 350.843 394.48C351.301 394.213 351.664 393.835 351.931 393.344C352.197 392.843 352.331 392.261 352.331 391.6ZM357.719 388.864C358.018 388.341 358.455 387.915 359.031 387.584C359.607 387.253 360.263 387.088 360.999 387.088C361.789 387.088 362.498 387.275 363.127 387.648C363.757 388.021 364.253 388.549 364.615 389.232C364.978 389.904 365.159 390.688 365.159 391.584C365.159 392.469 364.978 393.259 364.615 393.952C364.253 394.645 363.751 395.184 363.111 395.568C362.482 395.952 361.778 396.144 360.999 396.144C360.242 396.144 359.575 395.979 358.999 395.648C358.434 395.317 358.007 394.896 357.719 394.384V396H356.263V384.16H357.719V388.864ZM363.671 391.584C363.671 390.923 363.538 390.347 363.271 389.856C363.005 389.365 362.642 388.992 362.183 388.736C361.735 388.48 361.239 388.352 360.695 388.352C360.162 388.352 359.666 388.485 359.207 388.752C358.759 389.008 358.397 389.387 358.119 389.888C357.853 390.379 357.719 390.949 357.719 391.6C357.719 392.261 357.853 392.843 358.119 393.344C358.397 393.835 358.759 394.213 359.207 394.48C359.666 394.736 360.162 394.864 360.695 394.864C361.239 394.864 361.735 394.736 362.183 394.48C362.642 394.213 363.005 393.835 363.271 393.344C363.538 392.843 363.671 392.256 363.671 391.584ZM375.076 391.28C375.076 391.557 375.06 391.851 375.028 392.16H368.02C368.073 393.024 368.366 393.701 368.9 394.192C369.444 394.672 370.1 394.912 370.868 394.912C371.497 394.912 372.02 394.768 372.436 394.48C372.862 394.181 373.161 393.787 373.332 393.296H374.9C374.665 394.139 374.196 394.827 373.492 395.36C372.788 395.883 371.913 396.144 370.868 396.144C370.036 396.144 369.289 395.957 368.628 395.584C367.977 395.211 367.465 394.683 367.092 394C366.718 393.307 366.532 392.507 366.532 391.6C366.532 390.693 366.713 389.899 367.076 389.216C367.438 388.533 367.945 388.011 368.596 387.648C369.257 387.275 370.014 387.088 370.868 387.088C371.7 387.088 372.436 387.269 373.076 387.632C373.716 387.995 374.206 388.496 374.548 389.136C374.9 389.765 375.076 390.48 375.076 391.28ZM373.572 390.976C373.572 390.421 373.449 389.947 373.204 389.552C372.958 389.147 372.622 388.843 372.196 388.64C371.78 388.427 371.316 388.32 370.804 388.32C370.068 388.32 369.438 388.555 368.916 389.024C368.404 389.493 368.11 390.144 368.036 390.976H373.572ZM381.27 387.072C382.336 387.072 383.2 387.397 383.862 388.048C384.523 388.688 384.854 389.616 384.854 390.832V396H383.414V391.04C383.414 390.165 383.195 389.499 382.758 389.04C382.32 388.571 381.723 388.336 380.966 388.336C380.198 388.336 379.584 388.576 379.126 389.056C378.678 389.536 378.454 390.235 378.454 391.152V396H376.998V387.232H378.454V388.48C378.742 388.032 379.131 387.685 379.622 387.44C380.123 387.195 380.672 387.072 381.27 387.072Z" fill="black"/>
<defs>
<filter id="filter0_d_634_321" x="33" y="26" width="591" height="402" filterUnits="userSpaceOnUse" color-interpolation-filters="sRGB">
<feFlood flood-opacity="0" result="BackgroundImageFix"/>
<feColorMatrix in="SourceAlpha" type="matrix" values="0 0 0 0 0 0 0 0 0 0 0 0 0 0 0 0 0 0 127 0" result="hardAlpha"/>
<feOffset dy="5"/>
<feGaussianBlur stdDeviation="5"/>
<feComposite in2="hardAlpha" operator="out"/>
<feColorMatrix type="matrix" values="0 0 0 0 0.854167 0 0 0 0 0.854167 0 0 0 0 0.854167 0 0 0 0.5 0"/>
<feBlend mode="normal" in2="BackgroundImageFix" result="effect1_dropShadow_634_321"/>
<feBlend mode="normal" in="SourceGraphic" in2="effect1_dropShadow_634_321" result="shape"/>
</filter>
<filter id="filter1_dii_634_321" x="98" y="450" width="46" height="44" filterUnits="userSpaceOnUse" color-interpolation-filters="sRGB">
<feFlood flood-opacity="0" result="BackgroundImageFix"/>
<feColorMatrix in="SourceAlpha" type="matrix" values="0 0 0 0 0 0 0 0 0 0 0 0 0 0 0 0 0 0 127 0" result="hardAlpha"/>
<feOffset dy="4"/>
<feGaussianBlur stdDeviation="2"/>
<feComposite in2="hardAlpha" operator="out"/>
<feColorMatrix type="matrix" values="0 0 0 0 0 0 0 0 0 0 0 0 0 0 0 0 0 0 0.25 0"/>
<feBlend mode="normal" in2="BackgroundImageFix" result="effect1_dropShadow_634_321"/>
<feBlend mode="normal" in="SourceGraphic" in2="effect1_dropShadow_634_321" result="shape"/>
<feColorMatrix in="SourceAlpha" type="matrix" values="0 0 0 0 0 0 0 0 0 0 0 0 0 0 0 0 0 0 127 0" result="hardAlpha"/>
<feOffset dx="-10" dy="-10"/>
<feGaussianBlur stdDeviation="5"/>
<feComposite in2="hardAlpha" operator="arithmetic" k2="-1" k3="1"/>
<feColorMatrix type="matrix" values="0 0 0 0 1 0 0 0 0 1 0 0 0 0 1 0 0 0 0.25 0"/>
<feBlend mode="normal" in2="shape" result="effect2_innerShadow_634_321"/>
<feColorMatrix in="SourceAlpha" type="matrix" values="0 0 0 0 0 0 0 0 0 0 0 0 0 0 0 0 0 0 127 0" result="hardAlpha"/>
<feOffset dx="10" dy="-10"/>
<feGaussianBlur stdDeviation="5"/>
<feComposite in2="hardAlpha" operator="arithmetic" k2="-1" k3="1"/>
<feColorMatrix type="matrix" values="0 0 0 0 0 0 0 0 0 0 0 0 0 0 0 0 0 0 0.25 0"/>
<feBlend mode="normal" in2="effect2_innerShadow_634_321" result="effect3_innerShadow_634_321"/>
</filter>
<filter id="filter2_dii_634_321" x="275" y="450" width="46" height="44" filterUnits="userSpaceOnUse" color-interpolation-filters="sRGB">
<feFlood flood-opacity="0" result="BackgroundImageFix"/>
<feColorMatrix in="SourceAlpha" type="matrix" values="0 0 0 0 0 0 0 0 0 0 0 0 0 0 0 0 0 0 127 0" result="hardAlpha"/>
<feOffset dy="4"/>
<feGaussianBlur stdDeviation="2"/>
<feComposite in2="hardAlpha" operator="out"/>
<feColorMatrix type="matrix" values="0 0 0 0 0 0 0 0 0 0 0 0 0 0 0 0 0 0 0.25 0"/>
<feBlend mode="normal" in2="BackgroundImageFix" result="effect1_dropShadow_634_321"/>
<feBlend mode="normal" in="SourceGraphic" in2="effect1_dropShadow_634_321" result="shape"/>
<feColorMatrix in="SourceAlpha" type="matrix" values="0 0 0 0 0 0 0 0 0 0 0 0 0 0 0 0 0 0 127 0" result="hardAlpha"/>
<feOffset dx="-10" dy="-10"/>
<feGaussianBlur stdDeviation="5"/>
<feComposite in2="hardAlpha" operator="arithmetic" k2="-1" k3="1"/>
<feColorMatrix type="matrix" values="0 0 0 0 1 0 0 0 0 1 0 0 0 0 1 0 0 0 0.25 0"/>
<feBlend mode="normal" in2="shape" result="effect2_innerShadow_634_321"/>
<feColorMatrix in="SourceAlpha" type="matrix" values="0 0 0 0 0 0 0 0 0 0 0 0 0 0 0 0 0 0 127 0" result="hardAlpha"/>
<feOffset dx="10" dy="-10"/>
<feGaussianBlur stdDeviation="5"/>
<feComposite in2="hardAlpha" operator="arithmetic" k2="-1" k3="1"/>
<feColorMatrix type="matrix" values="0 0 0 0 0 0 0 0 0 0 0 0 0 0 0 0 0 0 0.25 0"/>
<feBlend mode="normal" in2="effect2_innerShadow_634_321" result="effect3_innerShadow_634_321"/>
</filter>
<filter id="filter3_dii_634_321" x="452" y="450" width="46" height="44" filterUnits="userSpaceOnUse" color-interpolation-filters="sRGB">
<feFlood flood-opacity="0" result="BackgroundImageFix"/>
<feColorMatrix in="SourceAlpha" type="matrix" values="0 0 0 0 0 0 0 0 0 0 0 0 0 0 0 0 0 0 127 0" result="hardAlpha"/>
<feOffset dy="4"/>
<feGaussianBlur stdDeviation="2"/>
<feComposite in2="hardAlpha" operator="out"/>
<feColorMatrix type="matrix" values="0 0 0 0 0 0 0 0 0 0 0 0 0 0 0 0 0 0 0.25 0"/>
<feBlend mode="normal" in2="BackgroundImageFix" result="effect1_dropShadow_634_321"/>
<feBlend mode="normal" in="SourceGraphic" in2="effect1_dropShadow_634_321" result="shape"/>
<feColorMatrix in="SourceAlpha" type="matrix" values="0 0 0 0 0 0 0 0 0 0 0 0 0 0 0 0 0 0 127 0" result="hardAlpha"/>
<feOffset dx="-10" dy="-10"/>
<feGaussianBlur stdDeviation="5"/>
<feComposite in2="hardAlpha" operator="arithmetic" k2="-1" k3="1"/>
<feColorMatrix type="matrix" values="0 0 0 0 1 0 0 0 0 1 0 0 0 0 1 0 0 0 0.25 0"/>
<feBlend mode="normal" in2="shape" result="effect2_innerShadow_634_321"/>
<feColorMatrix in="SourceAlpha" type="matrix" values="0 0 0 0 0 0 0 0 0 0 0 0 0 0 0 0 0 0 127 0" result="hardAlpha"/>
<feOffset dx="10" dy="-10"/>
<feGaussianBlur stdDeviation="5"/>
<feComposite in2="hardAlpha" operator="arithmetic" k2="-1" k3="1"/>
<feColorMatrix type="matrix" values="0 0 0 0 0 0 0 0 0 0 0 0 0 0 0 0 0 0 0.25 0"/>
<feBlend mode="normal" in2="effect2_innerShadow_634_321" result="effect3_innerShadow_634_321"/>
</filter>
<filter id="filter4_dii_634_321" x="632" y="450" width="46" height="44" filterUnits="userSpaceOnUse" color-interpolation-filters="sRGB">
<feFlood flood-opacity="0" result="BackgroundImageFix"/>
<feColorMatrix in="SourceAlpha" type="matrix" values="0 0 0 0 0 0 0 0 0 0 0 0 0 0 0 0 0 0 127 0" result="hardAlpha"/>
<feOffset dy="4"/>
<feGaussianBlur stdDeviation="2"/>
<feComposite in2="hardAlpha" operator="out"/>
<feColorMatrix type="matrix" values="0 0 0 0 0 0 0 0 0 0 0 0 0 0 0 0 0 0 0.25 0"/>
<feBlend mode="normal" in2="BackgroundImageFix" result="effect1_dropShadow_634_321"/>
<feBlend mode="normal" in="SourceGraphic" in2="effect1_dropShadow_634_321" result="shape"/>
<feColorMatrix in="SourceAlpha" type="matrix" values="0 0 0 0 0 0 0 0 0 0 0 0 0 0 0 0 0 0 127 0" result="hardAlpha"/>
<feOffset dx="-10" dy="-10"/>
<feGaussianBlur stdDeviation="5"/>
<feComposite in2="hardAlpha" operator="arithmetic" k2="-1" k3="1"/>
<feColorMatrix type="matrix" values="0 0 0 0 1 0 0 0 0 1 0 0 0 0 1 0 0 0 0.25 0"/>
<feBlend mode="normal" in2="shape" result="effect2_innerShadow_634_321"/>
<feColorMatrix in="SourceAlpha" type="matrix" values="0 0 0 0 0 0 0 0 0 0 0 0 0 0 0 0 0 0 127 0" result="hardAlpha"/>
<feOffset dx="10" dy="-10"/>
<feGaussianBlur stdDeviation="5"/>
<feComposite in2="hardAlpha" operator="arithmetic" k2="-1" k3="1"/>
<feColorMatrix type="matrix" values="0 0 0 0 0 0 0 0 0 0 0 0 0 0 0 0 0 0 0.25 0"/>
<feBlend mode="normal" in2="effect2_innerShadow_634_321" result="effect3_innerShadow_634_321"/>
</filter>
</defs>
</svg>
