<svg width="649" height="445" viewBox="0 0 649 445" fill="none" xmlns="http://www.w3.org/2000/svg">
<rect width="649" height="445" rx="14" fill="white"/>
<g filter="url(#filter0_d_203_531)">
<path d="M39 36C39 33.2386 41.2386 31 44 31H605C607.761 31 610 33.2386 610 36V408C610 410.761 607.761 413 605 413H44C41.2386 413 39 410.761 39 408V36Z" fill="#F7F7F7"/>
</g>
<path d="M227.5 236L129 334L227.5 333V236Z" fill="#FDD898"/>
<path d="M128 334H531" stroke="#C6C6C6" stroke-width="2"/>
<path d="M129 87V334" stroke="#C6C6C6" stroke-width="2"/>
<path d="M365 198.5L227.5 235.5V333H365V198.5Z" fill="#FBC55D"/>
<path d="M458.5 111.5L365 198.5V333H458.5V111.5Z" fill="#F8B118"/>
<path d="M130 196H365L457 109.5L130 108V196Z" fill="#FEECCD"/>
<path d="M129 333.5L227 235L365.5 197.5L457.5 111L568.5 81" stroke="#C6C6C6" stroke-width="2"/>
<path d="M201.37 136L197.352 131.548V136H196.078V126.242H197.352V130.764L201.384 126.242H202.994L198.57 131.128L203.036 136H201.37ZM208.197 128.188C209.13 128.188 209.886 128.473 210.465 129.042C211.044 129.602 211.333 130.414 211.333 131.478V136H210.073V131.66C210.073 130.895 209.882 130.311 209.499 129.91C209.116 129.499 208.594 129.294 207.931 129.294C207.259 129.294 206.722 129.504 206.321 129.924C205.929 130.344 205.733 130.955 205.733 131.758V136H204.459V128.328H205.733V129.42C205.985 129.028 206.326 128.725 206.755 128.51C207.194 128.295 207.674 128.188 208.197 128.188ZM216.76 136.126C216.041 136.126 215.388 135.963 214.8 135.636C214.221 135.309 213.764 134.847 213.428 134.25C213.101 133.643 212.938 132.943 212.938 132.15C212.938 131.366 213.106 130.675 213.442 130.078C213.787 129.471 214.254 129.009 214.842 128.692C215.43 128.365 216.088 128.202 216.816 128.202C217.544 128.202 218.202 128.365 218.79 128.692C219.378 129.009 219.84 129.467 220.176 130.064C220.521 130.661 220.694 131.357 220.694 132.15C220.694 132.943 220.517 133.643 220.162 134.25C219.817 134.847 219.345 135.309 218.748 135.636C218.151 135.963 217.488 136.126 216.76 136.126ZM216.76 135.006C217.217 135.006 217.647 134.899 218.048 134.684C218.449 134.469 218.771 134.147 219.014 133.718C219.266 133.289 219.392 132.766 219.392 132.15C219.392 131.534 219.271 131.011 219.028 130.582C218.785 130.153 218.468 129.835 218.076 129.63C217.684 129.415 217.259 129.308 216.802 129.308C216.335 129.308 215.906 129.415 215.514 129.63C215.131 129.835 214.823 130.153 214.59 130.582C214.357 131.011 214.24 131.534 214.24 132.15C214.24 132.775 214.352 133.303 214.576 133.732C214.809 134.161 215.117 134.483 215.5 134.698C215.883 134.903 216.303 135.006 216.76 135.006ZM232.589 128.328L230.195 136H228.879L227.031 129.91L225.183 136H223.867L221.459 128.328H222.761L224.525 134.768L226.429 128.328H227.731L229.593 134.782L231.329 128.328H232.589ZM237.661 128.188C238.24 128.188 238.763 128.314 239.229 128.566C239.696 128.809 240.06 129.177 240.321 129.672C240.592 130.167 240.727 130.769 240.727 131.478V136H239.467V131.66C239.467 130.895 239.276 130.311 238.893 129.91C238.511 129.499 237.988 129.294 237.325 129.294C236.653 129.294 236.117 129.504 235.715 129.924C235.323 130.344 235.127 130.955 235.127 131.758V136H233.853V125.64H235.127V129.42C235.379 129.028 235.725 128.725 236.163 128.51C236.611 128.295 237.111 128.188 237.661 128.188ZM246.154 136.126C245.436 136.126 244.782 135.963 244.194 135.636C243.616 135.309 243.158 134.847 242.822 134.25C242.496 133.643 242.332 132.943 242.332 132.15C242.332 131.366 242.5 130.675 242.836 130.078C243.182 129.471 243.648 129.009 244.236 128.692C244.824 128.365 245.482 128.202 246.21 128.202C246.938 128.202 247.596 128.365 248.184 128.692C248.772 129.009 249.234 129.467 249.57 130.064C249.916 130.661 250.088 131.357 250.088 132.15C250.088 132.943 249.911 133.643 249.556 134.25C249.211 134.847 248.74 135.309 248.142 135.636C247.545 135.963 246.882 136.126 246.154 136.126ZM246.154 135.006C246.612 135.006 247.041 134.899 247.442 134.684C247.844 134.469 248.166 134.147 248.408 133.718C248.66 133.289 248.786 132.766 248.786 132.15C248.786 131.534 248.665 131.011 248.422 130.582C248.18 130.153 247.862 129.835 247.47 129.63C247.078 129.415 246.654 129.308 246.196 129.308C245.73 129.308 245.3 129.415 244.908 129.63C244.526 129.835 244.218 130.153 243.984 130.582C243.751 131.011 243.634 131.534 243.634 132.15C243.634 132.775 243.746 133.303 243.97 133.732C244.204 134.161 244.512 134.483 244.894 134.698C245.277 134.903 245.697 135.006 246.154 135.006ZM261.984 128.328L259.59 136H258.274L256.426 129.91L254.578 136H253.262L250.854 128.328H252.156L253.92 134.768L255.824 128.328H257.126L258.988 134.782L260.724 128.328H261.984ZM266.412 128.202C267.075 128.202 267.653 128.347 268.148 128.636C268.652 128.925 269.025 129.289 269.268 129.728V128.328H270.556V136.168C270.556 136.868 270.407 137.489 270.108 138.03C269.809 138.581 269.38 139.01 268.82 139.318C268.269 139.626 267.625 139.78 266.888 139.78C265.88 139.78 265.04 139.542 264.368 139.066C263.696 138.59 263.299 137.941 263.178 137.12H264.438C264.578 137.587 264.867 137.96 265.306 138.24C265.745 138.529 266.272 138.674 266.888 138.674C267.588 138.674 268.157 138.455 268.596 138.016C269.044 137.577 269.268 136.961 269.268 136.168V134.558C269.016 135.006 268.643 135.379 268.148 135.678C267.653 135.977 267.075 136.126 266.412 136.126C265.731 136.126 265.11 135.958 264.55 135.622C263.999 135.286 263.565 134.815 263.248 134.208C262.931 133.601 262.772 132.911 262.772 132.136C262.772 131.352 262.931 130.666 263.248 130.078C263.565 129.481 263.999 129.019 264.55 128.692C265.11 128.365 265.731 128.202 266.412 128.202ZM269.268 132.15C269.268 131.571 269.151 131.067 268.918 130.638C268.685 130.209 268.367 129.882 267.966 129.658C267.574 129.425 267.14 129.308 266.664 129.308C266.188 129.308 265.754 129.42 265.362 129.644C264.97 129.868 264.657 130.195 264.424 130.624C264.191 131.053 264.074 131.557 264.074 132.136C264.074 132.724 264.191 133.237 264.424 133.676C264.657 134.105 264.97 134.437 265.362 134.67C265.754 134.894 266.188 135.006 266.664 135.006C267.14 135.006 267.574 134.894 267.966 134.67C268.367 134.437 268.685 134.105 268.918 133.676C269.151 133.237 269.268 132.729 269.268 132.15ZM279.709 131.87C279.709 132.113 279.695 132.369 279.667 132.64H273.535C273.582 133.396 273.838 133.989 274.305 134.418C274.781 134.838 275.355 135.048 276.027 135.048C276.578 135.048 277.035 134.922 277.399 134.67C277.772 134.409 278.034 134.063 278.183 133.634H279.555C279.35 134.371 278.939 134.973 278.323 135.44C277.707 135.897 276.942 136.126 276.027 136.126C275.299 136.126 274.646 135.963 274.067 135.636C273.498 135.309 273.05 134.847 272.723 134.25C272.396 133.643 272.233 132.943 272.233 132.15C272.233 131.357 272.392 130.661 272.709 130.064C273.026 129.467 273.47 129.009 274.039 128.692C274.618 128.365 275.28 128.202 276.027 128.202C276.755 128.202 277.399 128.361 277.959 128.678C278.519 128.995 278.948 129.434 279.247 129.994C279.555 130.545 279.709 131.17 279.709 131.87ZM278.393 131.604C278.393 131.119 278.286 130.703 278.071 130.358C277.856 130.003 277.562 129.737 277.189 129.56C276.825 129.373 276.419 129.28 275.971 129.28C275.327 129.28 274.776 129.485 274.319 129.896C273.871 130.307 273.614 130.876 273.549 131.604H278.393ZM291.611 128.328L289.217 136H287.901L286.053 129.91L284.205 136H282.889L280.481 128.328H281.783L283.547 134.768L285.451 128.328H286.753L288.615 134.782L290.351 128.328H291.611ZM293.533 127.082C293.29 127.082 293.085 126.998 292.917 126.83C292.749 126.662 292.665 126.457 292.665 126.214C292.665 125.971 292.749 125.766 292.917 125.598C293.085 125.43 293.29 125.346 293.533 125.346C293.766 125.346 293.962 125.43 294.121 125.598C294.289 125.766 294.373 125.971 294.373 126.214C294.373 126.457 294.289 126.662 294.121 126.83C293.962 126.998 293.766 127.082 293.533 127.082ZM294.149 128.328V136H292.875V128.328H294.149ZM300.058 128.188C300.992 128.188 301.748 128.473 302.326 129.042C302.905 129.602 303.194 130.414 303.194 131.478V136H301.934V131.66C301.934 130.895 301.743 130.311 301.36 129.91C300.978 129.499 300.455 129.294 299.792 129.294C299.12 129.294 298.584 129.504 298.182 129.924C297.79 130.344 297.594 130.955 297.594 131.758V136H296.32V128.328H297.594V129.42C297.846 129.028 298.187 128.725 298.616 128.51C299.055 128.295 299.536 128.188 300.058 128.188ZM309.013 128.188C309.947 128.188 310.703 128.473 311.281 129.042C311.86 129.602 312.149 130.414 312.149 131.478V136H310.889V131.66C310.889 130.895 310.698 130.311 310.315 129.91C309.933 129.499 309.41 129.294 308.747 129.294C308.075 129.294 307.539 129.504 307.137 129.924C306.745 130.344 306.549 130.955 306.549 131.758V136H305.275V128.328H306.549V129.42C306.801 129.028 307.142 128.725 307.571 128.51C308.01 128.295 308.491 128.188 309.013 128.188ZM317.487 132.136C317.487 131.352 317.645 130.666 317.963 130.078C318.28 129.481 318.714 129.019 319.265 128.692C319.825 128.365 320.45 128.202 321.141 128.202C321.738 128.202 322.293 128.342 322.807 128.622C323.32 128.893 323.712 129.252 323.983 129.7V125.64H325.271V136H323.983V134.558C323.731 135.015 323.357 135.393 322.863 135.692C322.368 135.981 321.789 136.126 321.127 136.126C320.445 136.126 319.825 135.958 319.265 135.622C318.714 135.286 318.28 134.815 317.963 134.208C317.645 133.601 317.487 132.911 317.487 132.136ZM323.983 132.15C323.983 131.571 323.866 131.067 323.633 130.638C323.399 130.209 323.082 129.882 322.681 129.658C322.289 129.425 321.855 129.308 321.379 129.308C320.903 129.308 320.469 129.42 320.077 129.644C319.685 129.868 319.372 130.195 319.139 130.624C318.905 131.053 318.789 131.557 318.789 132.136C318.789 132.724 318.905 133.237 319.139 133.676C319.372 134.105 319.685 134.437 320.077 134.67C320.469 134.894 320.903 135.006 321.379 135.006C321.855 135.006 322.289 134.894 322.681 134.67C323.082 134.437 323.399 134.105 323.633 133.676C323.866 133.237 323.983 132.729 323.983 132.15ZM334.424 131.87C334.424 132.113 334.41 132.369 334.382 132.64H328.25C328.296 133.396 328.553 133.989 329.02 134.418C329.496 134.838 330.07 135.048 330.742 135.048C331.292 135.048 331.75 134.922 332.114 134.67C332.487 134.409 332.748 134.063 332.898 133.634H334.27C334.064 134.371 333.654 134.973 333.038 135.44C332.422 135.897 331.656 136.126 330.742 136.126C330.014 136.126 329.36 135.963 328.782 135.636C328.212 135.309 327.764 134.847 327.438 134.25C327.111 133.643 326.948 132.943 326.948 132.15C326.948 131.357 327.106 130.661 327.424 130.064C327.741 129.467 328.184 129.009 328.754 128.692C329.332 128.365 329.995 128.202 330.742 128.202C331.47 128.202 332.114 128.361 332.674 128.678C333.234 128.995 333.663 129.434 333.962 129.994C334.27 130.545 334.424 131.17 334.424 131.87ZM333.108 131.604C333.108 131.119 333 130.703 332.786 130.358C332.571 130.003 332.277 129.737 331.904 129.56C331.54 129.373 331.134 129.28 330.686 129.28C330.042 129.28 329.491 129.485 329.034 129.896C328.586 130.307 328.329 130.876 328.264 131.604H333.108ZM337.379 129.574C337.603 129.135 337.921 128.795 338.331 128.552C338.751 128.309 339.26 128.188 339.857 128.188V129.504H339.521C338.093 129.504 337.379 130.279 337.379 131.828V136H336.105V128.328H337.379V129.574ZM201.846 154.83H197.59L196.806 157H195.462L198.99 147.298H200.46L203.974 157H202.63L201.846 154.83ZM201.482 153.794L199.718 148.866L197.954 153.794H201.482ZM212.316 149.328V157H211.042V155.866C210.799 156.258 210.458 156.566 210.02 156.79C209.59 157.005 209.114 157.112 208.592 157.112C207.994 157.112 207.458 156.991 206.982 156.748C206.506 156.496 206.128 156.123 205.848 155.628C205.577 155.133 205.442 154.531 205.442 153.822V149.328H206.702V153.654C206.702 154.41 206.893 154.993 207.276 155.404C207.658 155.805 208.181 156.006 208.844 156.006C209.525 156.006 210.062 155.796 210.454 155.376C210.846 154.956 211.042 154.345 211.042 153.542V149.328H212.316ZM217.183 157.126C216.595 157.126 216.067 157.028 215.601 156.832C215.134 156.627 214.765 156.347 214.495 155.992C214.224 155.628 214.075 155.213 214.047 154.746H215.363C215.4 155.129 215.577 155.441 215.895 155.684C216.221 155.927 216.646 156.048 217.169 156.048C217.654 156.048 218.037 155.941 218.317 155.726C218.597 155.511 218.737 155.241 218.737 154.914C218.737 154.578 218.587 154.331 218.289 154.172C217.99 154.004 217.528 153.841 216.903 153.682C216.333 153.533 215.867 153.383 215.503 153.234C215.148 153.075 214.84 152.847 214.579 152.548C214.327 152.24 214.201 151.839 214.201 151.344C214.201 150.952 214.317 150.593 214.551 150.266C214.784 149.939 215.115 149.683 215.545 149.496C215.974 149.3 216.464 149.202 217.015 149.202C217.864 149.202 218.55 149.417 219.073 149.846C219.595 150.275 219.875 150.863 219.913 151.61H218.639C218.611 151.209 218.447 150.887 218.149 150.644C217.859 150.401 217.467 150.28 216.973 150.28C216.515 150.28 216.151 150.378 215.881 150.574C215.61 150.77 215.475 151.027 215.475 151.344C215.475 151.596 215.554 151.806 215.713 151.974C215.881 152.133 216.086 152.263 216.329 152.366C216.581 152.459 216.926 152.567 217.365 152.688C217.915 152.837 218.363 152.987 218.709 153.136C219.054 153.276 219.348 153.491 219.591 153.78C219.843 154.069 219.973 154.447 219.983 154.914C219.983 155.334 219.866 155.712 219.633 156.048C219.399 156.384 219.068 156.65 218.639 156.846C218.219 157.033 217.733 157.126 217.183 157.126ZM227.101 151.33V152.408H221.515V151.33H227.101ZM236.57 157.126C235.852 157.126 235.198 156.963 234.61 156.636C234.032 156.309 233.574 155.847 233.238 155.25C232.912 154.643 232.748 153.943 232.748 153.15C232.748 152.366 232.916 151.675 233.252 151.078C233.598 150.471 234.064 150.009 234.652 149.692C235.24 149.365 235.898 149.202 236.626 149.202C237.354 149.202 238.012 149.365 238.6 149.692C239.188 150.009 239.65 150.467 239.986 151.064C240.332 151.661 240.504 152.357 240.504 153.15C240.504 153.943 240.327 154.643 239.972 155.25C239.627 155.847 239.156 156.309 238.558 156.636C237.961 156.963 237.298 157.126 236.57 157.126ZM236.57 156.006C237.028 156.006 237.457 155.899 237.858 155.684C238.26 155.469 238.582 155.147 238.824 154.718C239.076 154.289 239.202 153.766 239.202 153.15C239.202 152.534 239.081 152.011 238.838 151.582C238.596 151.153 238.278 150.835 237.886 150.63C237.494 150.415 237.07 150.308 236.612 150.308C236.146 150.308 235.716 150.415 235.324 150.63C234.942 150.835 234.634 151.153 234.4 151.582C234.167 152.011 234.05 152.534 234.05 153.15C234.05 153.775 234.162 154.303 234.386 154.732C234.62 155.161 234.928 155.483 235.31 155.698C235.693 155.903 236.113 156.006 236.57 156.006ZM241.704 153.136C241.704 152.352 241.862 151.666 242.18 151.078C242.497 150.481 242.931 150.019 243.482 149.692C244.042 149.365 244.667 149.202 245.358 149.202C245.955 149.202 246.51 149.342 247.024 149.622C247.537 149.893 247.929 150.252 248.2 150.7V146.64H249.488V157H248.2V155.558C247.948 156.015 247.574 156.393 247.08 156.692C246.585 156.981 246.006 157.126 245.344 157.126C244.662 157.126 244.042 156.958 243.482 156.622C242.931 156.286 242.497 155.815 242.18 155.208C241.862 154.601 241.704 153.911 241.704 153.136ZM248.2 153.15C248.2 152.571 248.083 152.067 247.85 151.638C247.616 151.209 247.299 150.882 246.898 150.658C246.506 150.425 246.072 150.308 245.596 150.308C245.12 150.308 244.686 150.42 244.294 150.644C243.902 150.868 243.589 151.195 243.356 151.624C243.122 152.053 243.006 152.557 243.006 153.136C243.006 153.724 243.122 154.237 243.356 154.676C243.589 155.105 243.902 155.437 244.294 155.67C244.686 155.894 245.12 156.006 245.596 156.006C246.072 156.006 246.506 155.894 246.898 155.67C247.299 155.437 247.616 155.105 247.85 154.676C248.083 154.237 248.2 153.729 248.2 153.15ZM258.641 152.87C258.641 153.113 258.627 153.369 258.599 153.64H252.467C252.513 154.396 252.77 154.989 253.237 155.418C253.713 155.838 254.287 156.048 254.959 156.048C255.509 156.048 255.967 155.922 256.331 155.67C256.704 155.409 256.965 155.063 257.115 154.634H258.487C258.281 155.371 257.871 155.973 257.255 156.44C256.639 156.897 255.873 157.126 254.959 157.126C254.231 157.126 253.577 156.963 252.999 156.636C252.429 156.309 251.981 155.847 251.655 155.25C251.328 154.643 251.165 153.943 251.165 153.15C251.165 152.357 251.323 151.661 251.641 151.064C251.958 150.467 252.401 150.009 252.971 149.692C253.549 149.365 254.212 149.202 254.959 149.202C255.687 149.202 256.331 149.361 256.891 149.678C257.451 149.995 257.88 150.434 258.179 150.994C258.487 151.545 258.641 152.17 258.641 152.87ZM257.325 152.604C257.325 152.119 257.217 151.703 257.003 151.358C256.788 151.003 256.494 150.737 256.121 150.56C255.757 150.373 255.351 150.28 254.903 150.28C254.259 150.28 253.708 150.485 253.251 150.896C252.803 151.307 252.546 151.876 252.481 152.604H257.325ZM261.596 150.574C261.82 150.135 262.137 149.795 262.548 149.552C262.968 149.309 263.477 149.188 264.074 149.188V150.504H263.738C262.31 150.504 261.596 151.279 261.596 152.828V157H260.322V149.328H261.596V150.574ZM281.541 147.242L278.713 157H277.285L275.017 149.146L272.665 157L271.251 157.014L268.521 147.242H269.879L272.007 155.516L274.359 147.242H275.787L278.027 155.488L280.169 147.242H281.541ZM289.935 152.87C289.935 153.113 289.921 153.369 289.893 153.64H283.761C283.808 154.396 284.065 154.989 284.531 155.418C285.007 155.838 285.581 156.048 286.253 156.048C286.804 156.048 287.261 155.922 287.625 155.67C287.999 155.409 288.26 155.063 288.409 154.634H289.781C289.576 155.371 289.165 155.973 288.549 156.44C287.933 156.897 287.168 157.126 286.253 157.126C285.525 157.126 284.872 156.963 284.293 156.636C283.724 156.309 283.276 155.847 282.949 155.25C282.623 154.643 282.459 153.943 282.459 153.15C282.459 152.357 282.618 151.661 282.935 151.064C283.253 150.467 283.696 150.009 284.265 149.692C284.844 149.365 285.507 149.202 286.253 149.202C286.981 149.202 287.625 149.361 288.185 149.678C288.745 149.995 289.175 150.434 289.473 150.994C289.781 151.545 289.935 152.17 289.935 152.87ZM288.619 152.604C288.619 152.119 288.512 151.703 288.297 151.358C288.083 151.003 287.789 150.737 287.415 150.56C287.051 150.373 286.645 150.28 286.197 150.28C285.553 150.28 285.003 150.485 284.545 150.896C284.097 151.307 283.841 151.876 283.775 152.604H288.619ZM292.275 148.082C292.032 148.082 291.827 147.998 291.659 147.83C291.491 147.662 291.407 147.457 291.407 147.214C291.407 146.971 291.491 146.766 291.659 146.598C291.827 146.43 292.032 146.346 292.275 146.346C292.508 146.346 292.704 146.43 292.863 146.598C293.031 146.766 293.115 146.971 293.115 147.214C293.115 147.457 293.031 147.662 292.863 147.83C292.704 147.998 292.508 148.082 292.275 148.082ZM292.891 149.328V157H291.617V149.328H292.891ZM296.616 150.378V154.9C296.616 155.273 296.696 155.539 296.854 155.698C297.013 155.847 297.288 155.922 297.68 155.922H298.618V157H297.47C296.761 157 296.229 156.837 295.874 156.51C295.52 156.183 295.342 155.647 295.342 154.9V150.378H294.348V149.328H295.342V147.396H296.616V149.328H298.618V150.378H296.616ZM307.162 152.87C307.162 153.113 307.148 153.369 307.12 153.64H300.988C301.035 154.396 301.291 154.989 301.758 155.418C302.234 155.838 302.808 156.048 303.48 156.048C304.031 156.048 304.488 155.922 304.852 155.67C305.225 155.409 305.487 155.063 305.636 154.634H307.008C306.803 155.371 306.392 155.973 305.776 156.44C305.16 156.897 304.395 157.126 303.48 157.126C302.752 157.126 302.099 156.963 301.52 156.636C300.951 156.309 300.503 155.847 300.176 155.25C299.849 154.643 299.686 153.943 299.686 153.15C299.686 152.357 299.845 151.661 300.162 151.064C300.479 150.467 300.923 150.009 301.492 149.692C302.071 149.365 302.733 149.202 303.48 149.202C304.208 149.202 304.852 149.361 305.412 149.678C305.972 149.995 306.401 150.434 306.7 150.994C307.008 151.545 307.162 152.17 307.162 152.87ZM305.846 152.604C305.846 152.119 305.739 151.703 305.524 151.358C305.309 151.003 305.015 150.737 304.642 150.56C304.278 150.373 303.872 150.28 303.424 150.28C302.78 150.28 302.229 150.485 301.772 150.896C301.324 151.307 301.067 151.876 301.002 152.604H305.846ZM310.118 150.574C310.342 150.135 310.659 149.795 311.07 149.552C311.49 149.309 311.998 149.188 312.596 149.188V150.504H312.26C310.832 150.504 310.118 151.279 310.118 152.828V157H308.844V149.328H310.118V150.574ZM319.386 151.33V152.408H313.8V151.33H319.386ZM197.352 171.756C197.613 171.299 197.996 170.925 198.5 170.636C199.004 170.347 199.578 170.202 200.222 170.202C200.913 170.202 201.533 170.365 202.084 170.692C202.635 171.019 203.069 171.481 203.386 172.078C203.703 172.666 203.862 173.352 203.862 174.136C203.862 174.911 203.703 175.601 203.386 176.208C203.069 176.815 202.63 177.286 202.07 177.622C201.519 177.958 200.903 178.126 200.222 178.126C199.559 178.126 198.976 177.981 198.472 177.692C197.977 177.403 197.604 177.034 197.352 176.586V178H196.078V167.64H197.352V171.756ZM202.56 174.136C202.56 173.557 202.443 173.053 202.21 172.624C201.977 172.195 201.659 171.868 201.258 171.644C200.866 171.42 200.432 171.308 199.956 171.308C199.489 171.308 199.055 171.425 198.654 171.658C198.262 171.882 197.945 172.213 197.702 172.652C197.469 173.081 197.352 173.581 197.352 174.15C197.352 174.729 197.469 175.237 197.702 175.676C197.945 176.105 198.262 176.437 198.654 176.67C199.055 176.894 199.489 177.006 199.956 177.006C200.432 177.006 200.866 176.894 201.258 176.67C201.659 176.437 201.977 176.105 202.21 175.676C202.443 175.237 202.56 174.724 202.56 174.136ZM206.197 169.082C205.954 169.082 205.749 168.998 205.581 168.83C205.413 168.662 205.329 168.457 205.329 168.214C205.329 167.971 205.413 167.766 205.581 167.598C205.749 167.43 205.954 167.346 206.197 167.346C206.43 167.346 206.626 167.43 206.785 167.598C206.953 167.766 207.037 167.971 207.037 168.214C207.037 168.457 206.953 168.662 206.785 168.83C206.626 168.998 206.43 169.082 206.197 169.082ZM206.813 170.328V178H205.539V170.328H206.813ZM210.258 167.64V178H208.984V167.64H210.258ZM211.954 174.136C211.954 173.352 212.112 172.666 212.43 172.078C212.747 171.481 213.181 171.019 213.732 170.692C214.292 170.365 214.917 170.202 215.608 170.202C216.205 170.202 216.76 170.342 217.274 170.622C217.787 170.893 218.179 171.252 218.45 171.7V167.64H219.738V178H218.45V176.558C218.198 177.015 217.824 177.393 217.33 177.692C216.835 177.981 216.256 178.126 215.594 178.126C214.912 178.126 214.292 177.958 213.732 177.622C213.181 177.286 212.747 176.815 212.43 176.208C212.112 175.601 211.954 174.911 211.954 174.136ZM218.45 174.15C218.45 173.571 218.333 173.067 218.1 172.638C217.866 172.209 217.549 171.882 217.148 171.658C216.756 171.425 216.322 171.308 215.846 171.308C215.37 171.308 214.936 171.42 214.544 171.644C214.152 171.868 213.839 172.195 213.606 172.624C213.372 173.053 213.256 173.557 213.256 174.136C213.256 174.724 213.372 175.237 213.606 175.676C213.839 176.105 214.152 176.437 214.544 176.67C214.936 176.894 215.37 177.006 215.846 177.006C216.322 177.006 216.756 176.894 217.148 176.67C217.549 176.437 217.866 176.105 218.1 175.676C218.333 175.237 218.45 174.729 218.45 174.15ZM228.695 170.328V178H227.421V176.866C227.178 177.258 226.837 177.566 226.399 177.79C225.969 178.005 225.493 178.112 224.971 178.112C224.373 178.112 223.837 177.991 223.361 177.748C222.885 177.496 222.507 177.123 222.227 176.628C221.956 176.133 221.821 175.531 221.821 174.822V170.328H223.081V174.654C223.081 175.41 223.272 175.993 223.655 176.404C224.037 176.805 224.56 177.006 225.223 177.006C225.904 177.006 226.441 176.796 226.833 176.376C227.225 175.956 227.421 175.345 227.421 174.542V170.328H228.695ZM234.584 170.188C235.517 170.188 236.273 170.473 236.852 171.042C237.43 171.602 237.72 172.414 237.72 173.478V178H236.46V173.66C236.46 172.895 236.268 172.311 235.886 171.91C235.503 171.499 234.98 171.294 234.318 171.294C233.646 171.294 233.109 171.504 232.708 171.924C232.316 172.344 232.12 172.955 232.12 173.758V178H230.846V170.328H232.12V171.42C232.372 171.028 232.712 170.725 233.142 170.51C233.58 170.295 234.061 170.188 234.584 170.188ZM242.965 170.202C243.627 170.202 244.206 170.347 244.701 170.636C245.205 170.925 245.578 171.289 245.821 171.728V170.328H247.109V178.168C247.109 178.868 246.959 179.489 246.661 180.03C246.362 180.581 245.933 181.01 245.373 181.318C244.822 181.626 244.178 181.78 243.441 181.78C242.433 181.78 241.593 181.542 240.921 181.066C240.249 180.59 239.852 179.941 239.731 179.12H240.991C241.131 179.587 241.42 179.96 241.859 180.24C242.297 180.529 242.825 180.674 243.441 180.674C244.141 180.674 244.71 180.455 245.149 180.016C245.597 179.577 245.821 178.961 245.821 178.168V176.558C245.569 177.006 245.195 177.379 244.701 177.678C244.206 177.977 243.627 178.126 242.965 178.126C242.283 178.126 241.663 177.958 241.103 177.622C240.552 177.286 240.118 176.815 239.801 176.208C239.483 175.601 239.325 174.911 239.325 174.136C239.325 173.352 239.483 172.666 239.801 172.078C240.118 171.481 240.552 171.019 241.103 170.692C241.663 170.365 242.283 170.202 242.965 170.202ZM245.821 174.15C245.821 173.571 245.704 173.067 245.471 172.638C245.237 172.209 244.92 171.882 244.519 171.658C244.127 171.425 243.693 171.308 243.217 171.308C242.741 171.308 242.307 171.42 241.915 171.644C241.523 171.868 241.21 172.195 240.977 172.624C240.743 173.053 240.627 173.557 240.627 174.136C240.627 174.724 240.743 175.237 240.977 175.676C241.21 176.105 241.523 176.437 241.915 176.67C242.307 176.894 242.741 177.006 243.217 177.006C243.693 177.006 244.127 176.894 244.519 176.67C244.92 176.437 245.237 176.105 245.471 175.676C245.704 175.237 245.821 174.729 245.821 174.15ZM251.978 178.126C251.39 178.126 250.862 178.028 250.396 177.832C249.929 177.627 249.56 177.347 249.29 176.992C249.019 176.628 248.87 176.213 248.842 175.746H250.158C250.195 176.129 250.372 176.441 250.69 176.684C251.016 176.927 251.441 177.048 251.964 177.048C252.449 177.048 252.832 176.941 253.112 176.726C253.392 176.511 253.532 176.241 253.532 175.914C253.532 175.578 253.382 175.331 253.084 175.172C252.785 175.004 252.323 174.841 251.698 174.682C251.128 174.533 250.662 174.383 250.298 174.234C249.943 174.075 249.635 173.847 249.374 173.548C249.122 173.24 248.996 172.839 248.996 172.344C248.996 171.952 249.112 171.593 249.346 171.266C249.579 170.939 249.91 170.683 250.34 170.496C250.769 170.3 251.259 170.202 251.81 170.202C252.659 170.202 253.345 170.417 253.868 170.846C254.39 171.275 254.67 171.863 254.708 172.61H253.434C253.406 172.209 253.242 171.887 252.944 171.644C252.654 171.401 252.262 171.28 251.768 171.28C251.31 171.28 250.946 171.378 250.676 171.574C250.405 171.77 250.27 172.027 250.27 172.344C250.27 172.596 250.349 172.806 250.508 172.974C250.676 173.133 250.881 173.263 251.124 173.366C251.376 173.459 251.721 173.567 252.16 173.688C252.71 173.837 253.158 173.987 253.504 174.136C253.849 174.276 254.143 174.491 254.386 174.78C254.638 175.069 254.768 175.447 254.778 175.914C254.778 176.334 254.661 176.712 254.428 177.048C254.194 177.384 253.863 177.65 253.434 177.846C253.014 178.033 252.528 178.126 251.978 178.126ZM265.802 170.188C266.399 170.188 266.931 170.314 267.398 170.566C267.865 170.809 268.233 171.177 268.504 171.672C268.775 172.167 268.91 172.769 268.91 173.478V178H267.65V173.66C267.65 172.895 267.459 172.311 267.076 171.91C266.703 171.499 266.194 171.294 265.55 171.294C264.887 171.294 264.36 171.509 263.968 171.938C263.576 172.358 263.38 172.969 263.38 173.772V178H262.12V173.66C262.12 172.895 261.929 172.311 261.546 171.91C261.173 171.499 260.664 171.294 260.02 171.294C259.357 171.294 258.83 171.509 258.438 171.938C258.046 172.358 257.85 172.969 257.85 173.772V178H256.576V170.328H257.85V171.434C258.102 171.033 258.438 170.725 258.858 170.51C259.287 170.295 259.759 170.188 260.272 170.188C260.916 170.188 261.485 170.333 261.98 170.622C262.475 170.911 262.843 171.336 263.086 171.896C263.301 171.355 263.655 170.935 264.15 170.636C264.645 170.337 265.195 170.188 265.802 170.188ZM270.524 174.136C270.524 173.352 270.683 172.666 271 172.078C271.317 171.481 271.751 171.019 272.302 170.692C272.862 170.365 273.483 170.202 274.164 170.202C274.836 170.202 275.419 170.347 275.914 170.636C276.409 170.925 276.777 171.289 277.02 171.728V170.328H278.308V178H277.02V176.572C276.768 177.02 276.39 177.393 275.886 177.692C275.391 177.981 274.813 178.126 274.15 178.126C273.469 178.126 272.853 177.958 272.302 177.622C271.751 177.286 271.317 176.815 271 176.208C270.683 175.601 270.524 174.911 270.524 174.136ZM277.02 174.15C277.02 173.571 276.903 173.067 276.67 172.638C276.437 172.209 276.119 171.882 275.718 171.658C275.326 171.425 274.892 171.308 274.416 171.308C273.94 171.308 273.506 171.42 273.114 171.644C272.722 171.868 272.409 172.195 272.176 172.624C271.943 173.053 271.826 173.557 271.826 174.136C271.826 174.724 271.943 175.237 272.176 175.676C272.409 176.105 272.722 176.437 273.114 176.67C273.506 176.894 273.94 177.006 274.416 177.006C274.892 177.006 275.326 176.894 275.718 176.67C276.119 176.437 276.437 176.105 276.67 175.676C276.903 175.237 277.02 174.729 277.02 174.15ZM283.177 178.126C282.589 178.126 282.061 178.028 281.595 177.832C281.128 177.627 280.759 177.347 280.489 176.992C280.218 176.628 280.069 176.213 280.041 175.746H281.357C281.394 176.129 281.571 176.441 281.889 176.684C282.215 176.927 282.64 177.048 283.163 177.048C283.648 177.048 284.031 176.941 284.311 176.726C284.591 176.511 284.731 176.241 284.731 175.914C284.731 175.578 284.581 175.331 284.283 175.172C283.984 175.004 283.522 174.841 282.897 174.682C282.327 174.533 281.861 174.383 281.497 174.234C281.142 174.075 280.834 173.847 280.573 173.548C280.321 173.24 280.195 172.839 280.195 172.344C280.195 171.952 280.311 171.593 280.545 171.266C280.778 170.939 281.109 170.683 281.539 170.496C281.968 170.3 282.458 170.202 283.009 170.202C283.858 170.202 284.544 170.417 285.067 170.846C285.589 171.275 285.869 171.863 285.907 172.61H284.633C284.605 172.209 284.441 171.887 284.143 171.644C283.853 171.401 283.461 171.28 282.967 171.28C282.509 171.28 282.145 171.378 281.875 171.574C281.604 171.77 281.469 172.027 281.469 172.344C281.469 172.596 281.548 172.806 281.707 172.974C281.875 173.133 282.08 173.263 282.323 173.366C282.575 173.459 282.92 173.567 283.359 173.688C283.909 173.837 284.357 173.987 284.703 174.136C285.048 174.276 285.342 174.491 285.585 174.78C285.837 175.069 285.967 175.447 285.977 175.914C285.977 176.334 285.86 176.712 285.627 177.048C285.393 177.384 285.062 177.65 284.633 177.846C284.213 178.033 283.727 178.126 283.177 178.126ZM290.491 178.126C289.903 178.126 289.376 178.028 288.909 177.832C288.443 177.627 288.074 177.347 287.803 176.992C287.533 176.628 287.383 176.213 287.355 175.746H288.671C288.709 176.129 288.886 176.441 289.203 176.684C289.53 176.927 289.955 177.048 290.477 177.048C290.963 177.048 291.345 176.941 291.625 176.726C291.905 176.511 292.045 176.241 292.045 175.914C292.045 175.578 291.896 175.331 291.597 175.172C291.299 175.004 290.837 174.841 290.211 174.682C289.642 174.533 289.175 174.383 288.811 174.234C288.457 174.075 288.149 173.847 287.887 173.548C287.635 173.24 287.509 172.839 287.509 172.344C287.509 171.952 287.626 171.593 287.859 171.266C288.093 170.939 288.424 170.683 288.853 170.496C289.283 170.3 289.773 170.202 290.323 170.202C291.173 170.202 291.859 170.417 292.381 170.846C292.904 171.275 293.184 171.863 293.221 172.61H291.947C291.919 172.209 291.756 171.887 291.457 171.644C291.168 171.401 290.776 171.28 290.281 171.28C289.824 171.28 289.46 171.378 289.189 171.574C288.919 171.77 288.783 172.027 288.783 172.344C288.783 172.596 288.863 172.806 289.021 172.974C289.189 173.133 289.395 173.263 289.637 173.366C289.889 173.459 290.235 173.567 290.673 173.688C291.224 173.837 291.672 173.987 292.017 174.136C292.363 174.276 292.657 174.491 292.899 174.78C293.151 175.069 293.282 175.447 293.291 175.914C293.291 176.334 293.175 176.712 292.941 177.048C292.708 177.384 292.377 177.65 291.947 177.846C291.527 178.033 291.042 178.126 290.491 178.126ZM298.828 170.188C299.761 170.188 300.517 170.473 301.096 171.042C301.674 171.602 301.964 172.414 301.964 173.478V178H300.704V173.66C300.704 172.895 300.512 172.311 300.13 171.91C299.747 171.499 299.224 171.294 298.562 171.294C297.89 171.294 297.353 171.504 296.952 171.924C296.56 172.344 296.364 172.955 296.364 173.758V178H295.09V170.328H296.364V171.42C296.616 171.028 296.956 170.725 297.386 170.51C297.824 170.295 298.305 170.188 298.828 170.188ZM303.569 174.136C303.569 173.352 303.727 172.666 304.045 172.078C304.362 171.481 304.796 171.019 305.347 170.692C305.907 170.365 306.527 170.202 307.209 170.202C307.881 170.202 308.464 170.347 308.959 170.636C309.453 170.925 309.822 171.289 310.065 171.728V170.328H311.353V178H310.065V176.572C309.813 177.02 309.435 177.393 308.931 177.692C308.436 177.981 307.857 178.126 307.195 178.126C306.513 178.126 305.897 177.958 305.347 177.622C304.796 177.286 304.362 176.815 304.045 176.208C303.727 175.601 303.569 174.911 303.569 174.136ZM310.065 174.15C310.065 173.571 309.948 173.067 309.715 172.638C309.481 172.209 309.164 171.882 308.763 171.658C308.371 171.425 307.937 171.308 307.461 171.308C306.985 171.308 306.551 171.42 306.159 171.644C305.767 171.868 305.454 172.195 305.221 172.624C304.987 173.053 304.871 173.557 304.871 174.136C304.871 174.724 304.987 175.237 305.221 175.676C305.454 176.105 305.767 176.437 306.159 176.67C306.551 176.894 306.985 177.006 307.461 177.006C307.937 177.006 308.371 176.894 308.763 176.67C309.164 176.437 309.481 176.105 309.715 175.676C309.948 175.237 310.065 174.729 310.065 174.15ZM317.314 170.188C317.892 170.188 318.415 170.314 318.882 170.566C319.348 170.809 319.712 171.177 319.974 171.672C320.244 172.167 320.38 172.769 320.38 173.478V178H319.12V173.66C319.12 172.895 318.928 172.311 318.546 171.91C318.163 171.499 317.64 171.294 316.978 171.294C316.306 171.294 315.769 171.504 315.368 171.924C314.976 172.344 314.78 172.955 314.78 173.758V178H313.506V167.64H314.78V171.42C315.032 171.028 315.377 170.725 315.816 170.51C316.264 170.295 316.763 170.188 317.314 170.188ZM331.687 170.188C332.284 170.188 332.816 170.314 333.283 170.566C333.749 170.809 334.118 171.177 334.389 171.672C334.659 172.167 334.795 172.769 334.795 173.478V178H333.535V173.66C333.535 172.895 333.343 172.311 332.961 171.91C332.587 171.499 332.079 171.294 331.435 171.294C330.772 171.294 330.245 171.509 329.853 171.938C329.461 172.358 329.265 172.969 329.265 173.772V178H328.005V173.66C328.005 172.895 327.813 172.311 327.431 171.91C327.057 171.499 326.549 171.294 325.905 171.294C325.242 171.294 324.715 171.509 324.323 171.938C323.931 172.358 323.735 172.969 323.735 173.772V178H322.461V170.328H323.735V171.434C323.987 171.033 324.323 170.725 324.743 170.51C325.172 170.295 325.643 170.188 326.157 170.188C326.801 170.188 327.37 170.333 327.865 170.622C328.359 170.911 328.728 171.336 328.971 171.896C329.185 171.355 329.54 170.935 330.035 170.636C330.529 170.337 331.08 170.188 331.687 170.188ZM343.885 173.87C343.885 174.113 343.871 174.369 343.843 174.64H337.711C337.757 175.396 338.014 175.989 338.481 176.418C338.957 176.838 339.531 177.048 340.203 177.048C340.753 177.048 341.211 176.922 341.575 176.67C341.948 176.409 342.209 176.063 342.359 175.634H343.731C343.525 176.371 343.115 176.973 342.499 177.44C341.883 177.897 341.117 178.126 340.203 178.126C339.475 178.126 338.821 177.963 338.243 177.636C337.673 177.309 337.225 176.847 336.899 176.25C336.572 175.643 336.409 174.943 336.409 174.15C336.409 173.357 336.567 172.661 336.885 172.064C337.202 171.467 337.645 171.009 338.215 170.692C338.793 170.365 339.456 170.202 340.203 170.202C340.931 170.202 341.575 170.361 342.135 170.678C342.695 170.995 343.124 171.434 343.423 171.994C343.731 172.545 343.885 173.17 343.885 173.87ZM342.569 173.604C342.569 173.119 342.461 172.703 342.247 172.358C342.032 172.003 341.738 171.737 341.365 171.56C341.001 171.373 340.595 171.28 340.147 171.28C339.503 171.28 338.952 171.485 338.495 171.896C338.047 172.307 337.79 172.876 337.725 173.604H342.569Z" fill="black"/>
<line x1="151.5" y1="119" x2="151.5" y2="187" stroke="#606060"/>
<path d="M153 119H150L151.5 117.5L153 119Z" fill="#3E3C3C"/>
<path d="M150 186.5H153L151.5 188L150 186.5Z" fill="#3E3C3C"/>
<path d="M102 270.017L96.912 274.609H102V276.065H90.848V274.609H96.016L90.848 270.001V268.161L96.432 273.217L102 268.113V270.017ZM102.144 262.663C102.144 263.484 101.957 264.231 101.584 264.903C101.211 265.564 100.683 266.087 100 266.471C99.3067 266.844 98.5067 267.031 97.6 267.031C96.704 267.031 95.9147 266.839 95.232 266.455C94.5387 266.06 94.0107 265.527 93.648 264.855C93.2747 264.183 93.088 263.431 93.088 262.599C93.088 261.767 93.2747 261.015 93.648 260.343C94.0107 259.671 94.5333 259.143 95.216 258.759C95.8987 258.364 96.6933 258.167 97.6 258.167C98.5067 258.167 99.3067 258.369 100 258.775C100.683 259.169 101.211 259.708 101.584 260.391C101.957 261.073 102.144 261.831 102.144 262.663ZM100.864 262.663C100.864 262.14 100.741 261.649 100.496 261.191C100.251 260.732 99.8827 260.364 99.392 260.087C98.9013 259.799 98.304 259.655 97.6 259.655C96.896 259.655 96.2987 259.793 95.808 260.071C95.3173 260.348 94.9547 260.711 94.72 261.159C94.4747 261.607 94.352 262.092 94.352 262.615C94.352 263.148 94.4747 263.639 94.72 264.087C94.9547 264.524 95.3173 264.876 95.808 265.143C96.2987 265.409 96.896 265.543 97.6 265.543C98.3147 265.543 98.9173 265.415 99.408 265.159C99.8987 264.892 100.267 264.54 100.512 264.103C100.747 263.665 100.864 263.185 100.864 262.663ZM93.072 245.708C93.072 245.026 93.216 244.418 93.504 243.884C93.7813 243.351 94.2027 242.93 94.768 242.62C95.3333 242.311 96.0213 242.156 96.832 242.156H102V243.596H97.04C96.1653 243.596 95.4987 243.815 95.04 244.252C94.5707 244.679 94.336 245.26 94.336 245.996C94.336 246.754 94.5813 247.356 95.072 247.804C95.552 248.252 96.2507 248.476 97.168 248.476H102V249.916H97.04C96.1653 249.916 95.4987 250.135 95.04 250.572C94.5707 250.999 94.336 251.58 94.336 252.316C94.336 253.074 94.5813 253.676 95.072 254.124C95.552 254.572 96.2507 254.796 97.168 254.796H102V256.252H93.232V254.796H94.496C94.0373 254.508 93.6853 254.124 93.44 253.644C93.1947 253.154 93.072 252.615 93.072 252.028C93.072 251.292 93.2373 250.642 93.568 250.076C93.8987 249.511 94.384 249.09 95.024 248.812C94.4053 248.567 93.9253 248.162 93.584 247.596C93.2427 247.031 93.072 246.402 93.072 245.708ZM94.848 238.312C94.3467 238.024 93.9307 237.597 93.6 237.032C93.2587 236.456 93.088 235.789 93.088 235.032C93.088 234.253 93.2747 233.549 93.648 232.92C94.0213 232.28 94.5493 231.779 95.232 231.416C95.904 231.053 96.688 230.872 97.584 230.872C98.4693 230.872 99.2587 231.053 99.952 231.416C100.645 231.779 101.184 232.28 101.568 232.92C101.952 233.549 102.144 234.253 102.144 235.032C102.144 235.779 101.979 236.44 101.648 237.016C101.307 237.581 100.885 238.013 100.384 238.312H106.16V239.768H93.232V238.312H94.848ZM97.584 232.36C96.9227 232.36 96.3467 232.493 95.856 232.76C95.3653 233.027 94.992 233.389 94.736 233.848C94.48 234.296 94.352 234.792 94.352 235.336C94.352 235.869 94.4853 236.365 94.752 236.824C95.008 237.272 95.3867 237.635 95.888 237.912C96.3787 238.179 96.9493 238.312 97.6 238.312C98.2613 238.312 98.8427 238.179 99.344 237.912C99.8347 237.635 100.213 237.272 100.48 236.824C100.736 236.365 100.864 235.869 100.864 235.336C100.864 234.792 100.736 234.296 100.48 233.848C100.213 233.389 99.8347 233.027 99.344 232.76C98.8427 232.493 98.256 232.36 97.584 232.36ZM97.28 220.955C97.5573 220.955 97.8507 220.971 98.16 221.003V228.011C99.024 227.958 99.7013 227.665 100.192 227.131C100.672 226.587 100.912 225.931 100.912 225.163C100.912 224.534 100.768 224.011 100.48 223.595C100.181 223.169 99.7867 222.87 99.296 222.699V221.131C100.139 221.366 100.827 221.835 101.36 222.539C101.883 223.243 102.144 224.118 102.144 225.163C102.144 225.995 101.957 226.742 101.584 227.403C101.211 228.054 100.683 228.566 100 228.939C99.3067 229.313 98.5067 229.499 97.6 229.499C96.6933 229.499 95.8987 229.318 95.216 228.955C94.5333 228.593 94.0107 228.086 93.648 227.435C93.2747 226.774 93.088 226.017 93.088 225.163C93.088 224.331 93.2693 223.595 93.632 222.955C93.9947 222.315 94.496 221.825 95.136 221.483C95.7653 221.131 96.48 220.955 97.28 220.955ZM96.976 222.459C96.4213 222.459 95.9467 222.582 95.552 222.827C95.1467 223.073 94.8427 223.409 94.64 223.835C94.4267 224.251 94.32 224.715 94.32 225.227C94.32 225.963 94.5547 226.593 95.024 227.115C95.4933 227.627 96.144 227.921 96.976 227.995V222.459ZM94.432 217.258H99.6C100.027 217.258 100.331 217.167 100.512 216.986C100.683 216.804 100.768 216.49 100.768 216.042V214.97H102V216.282C102 217.092 101.813 217.7 101.44 218.106C101.067 218.511 100.453 218.714 99.6 218.714H94.432V219.85H93.232V218.714H91.024V217.258H93.232V214.97H94.432V217.258ZM97.28 205.205C97.5573 205.205 97.8507 205.221 98.16 205.253V212.261C99.024 212.208 99.7013 211.915 100.192 211.381C100.672 210.837 100.912 210.181 100.912 209.413C100.912 208.784 100.768 208.261 100.48 207.845C100.181 207.419 99.7867 207.12 99.296 206.949V205.381C100.139 205.616 100.827 206.085 101.36 206.789C101.883 207.493 102.144 208.368 102.144 209.413C102.144 210.245 101.957 210.992 101.584 211.653C101.211 212.304 100.683 212.816 100 213.189C99.3067 213.563 98.5067 213.749 97.6 213.749C96.6933 213.749 95.8987 213.568 95.216 213.205C94.5333 212.843 94.0107 212.336 93.648 211.685C93.2747 211.024 93.088 210.267 93.088 209.413C93.088 208.581 93.2693 207.845 93.632 207.205C93.9947 206.565 94.496 206.075 95.136 205.733C95.7653 205.381 96.48 205.205 97.28 205.205ZM96.976 206.709C96.4213 206.709 95.9467 206.832 95.552 207.077C95.1467 207.323 94.8427 207.659 94.64 208.085C94.4267 208.501 94.32 208.965 94.32 209.477C94.32 210.213 94.5547 210.843 95.024 211.365C95.4933 211.877 96.144 212.171 96.976 212.245V206.709ZM93.072 199.012C93.072 197.945 93.3973 197.081 94.048 196.42C94.688 195.758 95.616 195.428 96.832 195.428H102V196.868H97.04C96.1653 196.868 95.4987 197.086 95.04 197.524C94.5707 197.961 94.336 198.558 94.336 199.316C94.336 200.084 94.576 200.697 95.056 201.156C95.536 201.604 96.2347 201.828 97.152 201.828H102V203.284H93.232V201.828H94.48C94.032 201.54 93.6853 201.15 93.44 200.66C93.1947 200.158 93.072 199.609 93.072 199.012ZM100.8 191.961V187.657H102V193.625H100.8L94.416 189.369V193.593H93.232V187.689H94.416L100.8 191.961Z" fill="black"/>
<path d="M344.242 309.803H345.278V312.463H354V313.737H345.278V316.411H344.242V309.803ZM349.87 301.234C350.113 301.234 350.369 301.248 350.64 301.276V307.408C351.396 307.362 351.989 307.105 352.418 306.638C352.838 306.162 353.048 305.588 353.048 304.916C353.048 304.366 352.922 303.908 352.67 303.544C352.409 303.171 352.063 302.91 351.634 302.76V301.388C352.371 301.594 352.973 302.004 353.44 302.62C353.897 303.236 354.126 304.002 354.126 304.916C354.126 305.644 353.963 306.298 353.636 306.876C353.309 307.446 352.847 307.894 352.25 308.22C351.643 308.547 350.943 308.71 350.15 308.71C349.357 308.71 348.661 308.552 348.064 308.234C347.467 307.917 347.009 307.474 346.692 306.904C346.365 306.326 346.202 305.663 346.202 304.916C346.202 304.188 346.361 303.544 346.678 302.984C346.995 302.424 347.434 301.995 347.994 301.696C348.545 301.388 349.17 301.234 349.87 301.234ZM349.604 302.55C349.119 302.55 348.703 302.658 348.358 302.872C348.003 303.087 347.737 303.381 347.56 303.754C347.373 304.118 347.28 304.524 347.28 304.972C347.28 305.616 347.485 306.167 347.896 306.624C348.307 307.072 348.876 307.329 349.604 307.394V302.55ZM354.126 296.837C354.126 297.425 354.028 297.952 353.832 298.419C353.627 298.886 353.347 299.254 352.992 299.525C352.628 299.796 352.213 299.945 351.746 299.973V298.657C352.129 298.62 352.441 298.442 352.684 298.125C352.927 297.798 353.048 297.374 353.048 296.851C353.048 296.366 352.941 295.983 352.726 295.703C352.511 295.423 352.241 295.283 351.914 295.283C351.578 295.283 351.331 295.432 351.172 295.731C351.004 296.03 350.841 296.492 350.682 297.117C350.533 297.686 350.383 298.153 350.234 298.517C350.075 298.872 349.847 299.18 349.548 299.441C349.24 299.693 348.839 299.819 348.344 299.819C347.952 299.819 347.593 299.702 347.266 299.469C346.939 299.236 346.683 298.904 346.496 298.475C346.3 298.046 346.202 297.556 346.202 297.005C346.202 296.156 346.417 295.47 346.846 294.947C347.275 294.424 347.863 294.144 348.61 294.107V295.381C348.209 295.409 347.887 295.572 347.644 295.871C347.401 296.16 347.28 296.552 347.28 297.047C347.28 297.504 347.378 297.868 347.574 298.139C347.77 298.41 348.027 298.545 348.344 298.545C348.596 298.545 348.806 298.466 348.974 298.307C349.133 298.139 349.263 297.934 349.366 297.691C349.459 297.439 349.567 297.094 349.688 296.655C349.837 296.104 349.987 295.656 350.136 295.311C350.276 294.966 350.491 294.672 350.78 294.429C351.069 294.177 351.447 294.046 351.914 294.037C352.334 294.037 352.712 294.154 353.048 294.387C353.384 294.62 353.65 294.952 353.846 295.381C354.033 295.801 354.126 296.286 354.126 296.837ZM347.378 290.684H351.9C352.273 290.684 352.539 290.605 352.698 290.446C352.847 290.288 352.922 290.012 352.922 289.62V288.682H354V289.83C354 290.54 353.837 291.072 353.51 291.426C353.183 291.781 352.647 291.958 351.9 291.958H347.378V292.952H346.328V291.958H344.396V290.684H346.328V288.682H347.378V290.684ZM345.04 283.952H343.878V281.32H354V282.608H345.04V283.952Z" fill="black"/>
<path d="M436.242 310.371H437.278V313.031H446V314.305H437.278V316.979H436.242V310.371ZM441.87 301.803C442.113 301.803 442.369 301.817 442.64 301.845V307.977C443.396 307.93 443.989 307.674 444.418 307.207C444.838 306.731 445.048 306.157 445.048 305.485C445.048 304.934 444.922 304.477 444.67 304.113C444.409 303.74 444.063 303.478 443.634 303.329V301.957C444.371 302.162 444.973 302.573 445.44 303.189C445.897 303.805 446.126 304.57 446.126 305.485C446.126 306.213 445.963 306.866 445.636 307.445C445.309 308.014 444.847 308.462 444.25 308.789C443.643 309.116 442.943 309.279 442.15 309.279C441.357 309.279 440.661 309.12 440.064 308.803C439.467 308.486 439.009 308.042 438.692 307.473C438.365 306.894 438.202 306.232 438.202 305.485C438.202 304.757 438.361 304.113 438.678 303.553C438.995 302.993 439.434 302.564 439.994 302.265C440.545 301.957 441.17 301.803 441.87 301.803ZM441.604 303.119C441.119 303.119 440.703 303.226 440.358 303.441C440.003 303.656 439.737 303.95 439.56 304.323C439.373 304.687 439.28 305.093 439.28 305.541C439.28 306.185 439.485 306.736 439.896 307.193C440.307 307.641 440.876 307.898 441.604 307.963V303.119ZM446.126 297.405C446.126 297.993 446.028 298.521 445.832 298.987C445.627 299.454 445.347 299.823 444.992 300.093C444.628 300.364 444.213 300.513 443.746 300.541V299.225C444.129 299.188 444.441 299.011 444.684 298.693C444.927 298.367 445.048 297.942 445.048 297.419C445.048 296.934 444.941 296.551 444.726 296.271C444.511 295.991 444.241 295.851 443.914 295.851C443.578 295.851 443.331 296.001 443.172 296.299C443.004 296.598 442.841 297.06 442.682 297.685C442.533 298.255 442.383 298.721 442.234 299.085C442.075 299.44 441.847 299.748 441.548 300.009C441.24 300.261 440.839 300.387 440.344 300.387C439.952 300.387 439.593 300.271 439.266 300.037C438.939 299.804 438.683 299.473 438.496 299.043C438.3 298.614 438.202 298.124 438.202 297.573C438.202 296.724 438.417 296.038 438.846 295.515C439.275 294.993 439.863 294.713 440.61 294.675V295.949C440.209 295.977 439.887 296.141 439.644 296.439C439.401 296.729 439.28 297.121 439.28 297.615C439.28 298.073 439.378 298.437 439.574 298.707C439.77 298.978 440.027 299.113 440.344 299.113C440.596 299.113 440.806 299.034 440.974 298.875C441.133 298.707 441.263 298.502 441.366 298.259C441.459 298.007 441.567 297.662 441.688 297.223C441.837 296.673 441.987 296.225 442.136 295.879C442.276 295.534 442.491 295.24 442.78 294.997C443.069 294.745 443.447 294.615 443.914 294.605C444.334 294.605 444.712 294.722 445.048 294.955C445.384 295.189 445.65 295.52 445.846 295.949C446.033 296.369 446.126 296.855 446.126 297.405ZM439.378 291.253H443.9C444.273 291.253 444.539 291.173 444.698 291.015C444.847 290.856 444.922 290.581 444.922 290.189V289.251H446V290.399C446 291.108 445.837 291.64 445.51 291.995C445.183 292.349 444.647 292.527 443.9 292.527H439.378V293.521H438.328V292.527H436.396V291.253H438.328V289.251H439.378V291.253ZM444.978 284.339C444.026 283.153 443.247 282.225 442.64 281.553C442.024 280.881 441.385 280.316 440.722 279.859C440.05 279.392 439.392 279.159 438.748 279.159C438.141 279.159 437.665 279.308 437.32 279.607C436.965 279.896 436.788 280.367 436.788 281.021C436.788 281.655 436.989 282.15 437.39 282.505C437.782 282.85 438.309 283.037 438.972 283.065V284.297C437.927 284.259 437.119 283.942 436.55 283.345C435.981 282.747 435.696 281.977 435.696 281.035C435.696 280.073 435.962 279.313 436.494 278.753C437.026 278.183 437.759 277.899 438.692 277.899C439.467 277.899 440.223 278.132 440.96 278.599C441.688 279.056 442.332 279.579 442.892 280.167C443.443 280.755 444.087 281.506 444.824 282.421V277.605H445.888V284.339H444.978Z" fill="black"/>
<path d="M313.12 370.736H318.56V372H311.392V370.848L316.8 362.112H311.456V360.848H318.528V362L313.12 370.736ZM328.545 367.28C328.545 367.557 328.529 367.851 328.497 368.16H321.489C321.542 369.024 321.835 369.701 322.369 370.192C322.913 370.672 323.569 370.912 324.337 370.912C324.966 370.912 325.489 370.768 325.905 370.48C326.331 370.181 326.63 369.787 326.801 369.296H328.369C328.134 370.139 327.665 370.827 326.961 371.36C326.257 371.883 325.382 372.144 324.337 372.144C323.505 372.144 322.758 371.957 322.097 371.584C321.446 371.211 320.934 370.683 320.561 370C320.187 369.307 320.001 368.507 320.001 367.6C320.001 366.693 320.182 365.899 320.545 365.216C320.907 364.533 321.414 364.011 322.065 363.648C322.726 363.275 323.483 363.088 324.337 363.088C325.169 363.088 325.905 363.269 326.545 363.632C327.185 363.995 327.675 364.496 328.017 365.136C328.369 365.765 328.545 366.48 328.545 367.28ZM327.041 366.976C327.041 366.421 326.918 365.947 326.673 365.552C326.427 365.147 326.091 364.843 325.665 364.64C325.249 364.427 324.785 364.32 324.273 364.32C323.537 364.32 322.907 364.555 322.385 365.024C321.873 365.493 321.579 366.144 321.505 366.976H327.041ZM331.218 361.808C330.941 361.808 330.706 361.712 330.514 361.52C330.322 361.328 330.226 361.093 330.226 360.816C330.226 360.539 330.322 360.304 330.514 360.112C330.706 359.92 330.941 359.824 331.218 359.824C331.485 359.824 331.709 359.92 331.89 360.112C332.082 360.304 332.178 360.539 332.178 360.816C332.178 361.093 332.082 361.328 331.89 361.52C331.709 361.712 331.485 361.808 331.218 361.808ZM331.922 363.232V372H330.466V363.232H331.922ZM336.18 364.432V369.6C336.18 370.027 336.271 370.331 336.452 370.512C336.633 370.683 336.948 370.768 337.396 370.768H338.468V372H337.156C336.345 372 335.737 371.813 335.332 371.44C334.927 371.067 334.724 370.453 334.724 369.6V364.432H333.588V363.232H334.724V361.024H336.18V363.232H338.468V364.432H336.18Z" fill="black"/>
<defs>
<filter id="filter0_d_203_531" x="29" y="26" width="591" height="402" filterUnits="userSpaceOnUse" color-interpolation-filters="sRGB">
<feFlood flood-opacity="0" result="BackgroundImageFix"/>
<feColorMatrix in="SourceAlpha" type="matrix" values="0 0 0 0 0 0 0 0 0 0 0 0 0 0 0 0 0 0 127 0" result="hardAlpha"/>
<feOffset dy="5"/>
<feGaussianBlur stdDeviation="5"/>
<feComposite in2="hardAlpha" operator="out"/>
<feColorMatrix type="matrix" values="0 0 0 0 0.854167 0 0 0 0 0.854167 0 0 0 0 0.854167 0 0 0 0.5 0"/>
<feBlend mode="normal" in2="BackgroundImageFix" result="effect1_dropShadow_203_531"/>
<feBlend mode="normal" in="SourceGraphic" in2="effect1_dropShadow_203_531" result="shape"/>
</filter>
</defs>
</svg>
