<svg width="133" height="33" viewBox="0 0 133 33" fill="none" xmlns="http://www.w3.org/2000/svg">
<path fill-rule="evenodd" clip-rule="evenodd" d="M103.866 13.4362C103.866 12.0219 103.866 10.6862 103.866 9.19336C105.054 9.19336 106.162 9.19336 107.35 9.19336C107.35 9.3505 107.35 9.58622 107.35 9.74336C107.35 14.1434 107.35 18.5434 107.35 22.9434C107.35 23.4148 107.191 23.5719 106.716 23.5719C104.737 23.6505 102.837 23.8076 100.858 23.7291C97.3748 23.7291 95.6331 20.9005 96.0289 17.8362C96.1081 17.0505 96.4248 16.2648 96.8206 15.5576C97.6914 13.9862 99.1956 13.4362 101.016 13.3576C102.046 13.3576 102.916 13.4362 103.866 13.4362ZM103.866 21.6076C103.866 21.3719 103.866 21.1362 103.866 20.9791C103.866 19.4862 103.866 17.9934 103.866 16.5791C103.866 15.4791 104.025 15.7148 102.916 15.6362C101.333 15.4791 100.383 16.0291 100.066 17.3648C99.8289 18.2291 99.8289 19.1719 100.066 20.0362C100.304 20.8219 100.7 21.5291 101.571 21.6862C102.283 21.6862 103.075 21.6076 103.866 21.6076Z" fill="#AF0944"/>
<path fill-rule="evenodd" clip-rule="evenodd" d="M32.1417 23.4929C30.9542 23.4929 29.7667 23.4929 28.5792 23.4929C28.5792 20.1929 28.5792 16.8929 28.5792 13.5929C29.6084 13.5929 30.6376 13.5929 31.6667 13.5929C31.6667 13.9072 31.7459 14.1429 31.7459 14.4572C32.6167 14.1429 33.4876 13.7501 34.3584 13.5929C35.0709 13.4358 35.7834 13.3572 36.4959 13.5144C38.0001 13.7501 38.9501 14.7715 38.9501 16.2644C39.0292 18.6215 38.9501 21.0572 38.9501 23.4144C38.9501 23.4144 38.9501 23.4929 38.8709 23.5715C37.7626 23.5715 36.5751 23.5715 35.3876 23.5715C35.3876 23.4144 35.3876 23.1787 35.3876 23.0215C35.3876 21.2144 35.3876 19.4072 35.3876 17.6001C35.3876 16.3429 34.7542 15.7929 33.4876 16.0287C31.9834 16.2644 31.9834 16.2644 31.9834 17.7572C31.9834 19.4858 31.9834 21.2144 31.9834 23.0215C32.1417 23.1001 32.1417 23.2572 32.1417 23.4929Z" fill="#AF0944"/>
<path fill-rule="evenodd" clip-rule="evenodd" d="M64.6 23.4923C63.4125 23.4923 62.225 23.4923 61.0375 23.4923C61.0375 23.178 61.0375 22.9423 61.0375 22.628C61.0375 20.8994 61.0375 19.1708 61.0375 17.4423C61.0375 16.3423 60.4833 15.7923 59.2958 15.8708C57.7916 16.028 57.6333 16.1851 57.6333 17.5994C57.6333 19.4851 57.6333 21.4494 57.6333 23.4137C56.4458 23.4137 55.2583 23.4137 54.0708 23.4137C54.0708 20.1137 54.0708 16.8923 54.0708 13.5923C55.1 13.5923 56.1291 13.5923 57.2375 13.5923C57.2375 13.9065 57.3166 14.1423 57.3166 14.4565C58.1875 14.1423 59.0583 13.7494 59.9291 13.5923C60.5625 13.4351 61.275 13.3565 61.9083 13.4351C63.4125 13.5923 64.4416 14.5351 64.5208 16.1065C64.6791 18.5423 64.6 20.978 64.6 23.4923Z" fill="#AF0944"/>
<path fill-rule="evenodd" clip-rule="evenodd" d="M94.5251 18.4647C94.5251 21.7647 92.5459 23.729 89.1418 23.8075C87.6376 23.8075 86.2126 23.6504 85.0251 22.7075C83.2834 21.4504 82.8876 19.5647 83.1251 17.6004C83.4418 15.0075 84.8668 13.5933 87.5584 13.3575C88.6668 13.279 89.8543 13.279 90.9626 13.5147C93.0209 13.9075 94.2876 15.4004 94.5251 17.5218C94.5251 17.8361 94.5251 18.1504 94.5251 18.4647ZM86.6084 18.5433C86.6876 19.1718 86.7668 19.8004 86.9251 20.429C87.1626 21.3718 87.8751 21.7647 89.0626 21.6861C89.9334 21.6861 90.5668 21.2147 90.7251 20.2718C90.9626 19.0933 90.9626 17.9147 90.7251 16.7361C90.4876 15.7933 89.9334 15.3218 88.9834 15.3218C87.7959 15.2433 87.0834 15.6361 86.8459 16.6575C86.7668 17.2861 86.6876 17.9147 86.6084 18.5433Z" fill="#AF0944"/>
<path fill-rule="evenodd" clip-rule="evenodd" d="M120.967 18.4642C121.046 22.2357 118.275 24.0428 114.713 23.8071C113.367 23.7285 112.1 23.3357 111.071 22.4714C109.646 21.1357 109.329 19.4857 109.567 17.5999C109.883 15.0071 111.308 13.5928 113.921 13.4357C115.029 13.3571 116.217 13.3571 117.325 13.5928C119.383 13.9857 120.729 15.4785 120.888 17.5999C120.967 17.8357 120.967 18.1499 120.967 18.4642ZM113.05 18.5428C113.129 19.1714 113.208 19.8785 113.367 20.4285C113.604 21.3714 114.317 21.6857 115.504 21.6857C116.375 21.6857 117.008 21.2142 117.246 20.3499C117.563 19.1714 117.563 17.9142 117.246 16.7357C117.008 15.7928 116.454 15.3214 115.504 15.3214C114.317 15.2428 113.604 15.6357 113.367 16.5785C113.208 17.2857 113.129 17.9142 113.05 18.5428Z" fill="#AF0944"/>
<path fill-rule="evenodd" clip-rule="evenodd" d="M17.7336 19.4864C15.2003 19.4864 12.8253 19.4864 10.4503 19.4864C10.3711 20.4293 10.8461 21.0579 11.7961 21.3722C12.8253 21.765 13.8544 21.765 14.8836 21.6079C15.5169 21.5293 16.1503 21.4507 16.7836 21.3722C16.7836 21.9222 16.7836 22.5507 16.7836 23.1007C16.7836 23.1793 16.6253 23.3364 16.5461 23.3364C14.4878 23.6507 12.4294 23.8864 10.3711 23.3364C8.15443 22.7079 6.88776 21.1364 6.80859 18.8579C6.80859 18.2293 6.80859 17.5222 6.96693 16.8936C7.52109 14.6936 9.26276 13.3579 11.7961 13.2793C12.5878 13.2793 13.3003 13.2793 14.0919 13.4364C16.2294 13.8293 17.4169 15.165 17.6544 17.4436C17.7336 18.0722 17.7336 18.7793 17.7336 19.4864ZM14.2503 17.6007C14.2503 16.7364 14.1711 15.8722 13.3003 15.4793C12.5878 15.0864 11.7961 15.0864 11.1628 15.5579C10.4503 16.0293 10.4503 16.815 10.4503 17.6007C11.7169 17.6007 12.9836 17.6007 14.2503 17.6007Z" fill="#AF0944"/>
<path fill-rule="evenodd" clip-rule="evenodd" d="M44.7291 19.4864C44.7291 20.5079 45.2832 21.0579 46.0749 21.4507C47.1041 21.8436 48.1332 21.765 49.1624 21.6864C49.7957 21.6079 50.4291 21.5293 51.0624 21.4507C51.0624 22.0007 51.0624 22.5507 51.0624 23.1793C51.0624 23.3364 50.9041 23.4936 50.7457 23.4936C48.7666 23.8079 46.7082 23.965 44.7291 23.4936C42.4332 22.9436 41.1666 21.2936 41.0874 18.9364C41.0874 18.3079 41.0874 17.6007 41.2457 16.9722C41.7207 14.7722 43.5416 13.4364 45.9957 13.2793C46.7874 13.2793 47.5791 13.2793 48.2916 13.4364C50.4291 13.8293 51.6166 15.165 51.8541 17.365C51.9332 18.0722 51.9332 18.7007 51.9332 19.4864C49.5582 19.4864 47.1832 19.4864 44.7291 19.4864ZM44.7291 17.6007C45.9957 17.6007 47.2624 17.6007 48.5291 17.6007C48.6874 16.1864 48.0541 15.2436 46.7874 15.2436C45.3624 15.2436 44.7291 16.0293 44.7291 17.6007Z" fill="#AF0944"/>
<path fill-rule="evenodd" clip-rule="evenodd" d="M81.8587 13.6719C81.8587 14.3791 81.8587 15.0076 81.8587 15.7148C81.4629 15.7148 81.1462 15.6362 80.7504 15.6362C80.1962 15.6362 79.5629 15.5576 79.0087 15.5576C76.5545 15.7148 75.2879 18.2291 76.6337 20.2719C77.1879 21.1362 78.0587 21.2934 78.9295 21.3719C79.8795 21.4505 80.8295 21.3719 81.8587 21.3719C81.8587 22.0005 81.8587 22.6291 81.8587 23.4148C81.3045 23.4934 80.7504 23.5719 80.1962 23.6505C78.8504 23.8076 77.5045 23.7291 76.1587 23.3362C74.0212 22.7076 72.7545 21.1362 72.5962 18.9362C72.5962 18.3076 72.5962 17.6005 72.7545 16.9719C73.0712 15.4791 73.942 14.3791 75.367 13.8291C77.5045 13.0434 79.7212 13.3576 81.8587 13.6719Z" fill="#AF0944"/>
<path fill-rule="evenodd" clip-rule="evenodd" d="M131.813 15.6353C130.942 15.6353 130.071 15.6353 129.279 15.6353C128.883 15.6353 128.488 15.7139 128.092 15.7925C127.063 16.0282 126.35 16.5782 126.192 17.6782C126.113 18.3853 126.113 19.0925 126.271 19.7996C126.508 20.821 127.458 21.4496 128.804 21.4496C129.754 21.4496 130.704 21.4496 131.733 21.4496C131.733 21.9996 131.733 22.6282 131.733 23.2567C131.733 23.3353 131.575 23.4925 131.417 23.4925C129.596 23.8067 127.775 23.8853 125.954 23.3353C123.817 22.7067 122.55 21.1353 122.471 18.9353C122.471 18.3067 122.471 17.5996 122.629 16.971C123.104 14.9282 124.45 13.9067 126.429 13.5139C128.092 13.1996 129.754 13.3567 131.338 13.5925C131.496 13.5925 131.654 13.8282 131.654 13.9067C131.813 14.5353 131.813 15.0853 131.813 15.6353Z" fill="#AF0944"/>
<path fill-rule="evenodd" clip-rule="evenodd" d="M1.1875 9.19336C2.375 9.19336 3.48333 9.19336 4.67083 9.19336C4.67083 13.9862 4.67083 18.7005 4.67083 23.4934C3.48333 23.4934 2.375 23.4934 1.1875 23.4934C1.1875 18.7791 1.1875 13.9862 1.1875 9.19336Z" fill="#AF0944"/>
<path fill-rule="evenodd" clip-rule="evenodd" d="M23.4336 23.4922C22.2461 23.4922 21.0586 23.4922 19.8711 23.4922C19.8711 20.1922 19.8711 16.9708 19.8711 13.5922C20.9003 13.5922 21.9294 13.5922 23.0378 13.5922C23.0378 13.9065 23.1169 14.1422 23.1169 14.5351C24.3044 13.828 25.5711 13.3565 26.9961 13.5137C26.9961 14.378 26.9961 15.3208 26.9961 16.2637C26.6003 16.2637 26.2044 16.2637 25.8878 16.2637C25.2544 16.3423 24.6211 16.4208 24.0669 16.4994C23.6711 16.578 23.5128 16.8137 23.5128 17.2851C23.5128 19.1708 23.5128 21.0565 23.5128 22.8637C23.4336 23.0994 23.4336 23.2565 23.4336 23.4922Z" fill="#AF0944"/>
<path fill-rule="evenodd" clip-rule="evenodd" d="M70.6169 23.4934C69.5086 23.4934 68.4794 23.4934 67.3711 23.4934C67.3711 22.472 67.3711 21.4506 67.3711 20.3506C68.4003 20.3506 69.5086 20.3506 70.6169 20.3506C70.6169 21.4506 70.6169 22.472 70.6169 23.4934Z" fill="#AF0944"/>
</svg>
