<svg width="132" height="36" viewBox="0 0 132 36" fill="none" xmlns="http://www.w3.org/2000/svg">
<path d="M21.7278 3.92285C13.4495 3.92285 6.73474 10.9924 6.73474 19.6976C6.73474 28.4012 13.4495 35.5219 21.7278 35.5219C29.8892 35.5219 36.7688 28.5064 36.7688 19.6976C36.7693 10.9924 30.005 3.92285 21.7278 3.92285ZM20.7946 30.083V27.4202H22.4185V12.5617H20.7946V9.89829H27.053V12.5617H25.4292V27.4202H29.7722V23.4292H32.6062V30.083H20.7946Z" fill="#010101"/>
<path d="M40.8822 27.664H45.1106V25.733H47.8298V27.3001C47.7732 28.5078 47.5959 30.2032 44.7011 30.1992H41.2314C40.5342 30.2032 39.4389 30.2032 38.6851 29.2351C38.1059 28.5117 38.1059 27.9082 38.0488 26.3405V20.5428C38.0488 19.6951 38.0488 18.6978 38.6226 17.8197C39.3198 16.7881 40.2998 16.7881 41.3995 16.7324H44.5863C46.0302 16.7324 47.8265 16.8522 47.8298 19.8054V24.3965H40.8822V27.664ZM40.8822 22.1144H45.1106V19.2114H40.8822V22.1144Z" fill="#010101"/>
<path d="M57.0255 19.3272H54.4868V27.5481H55.9916V30.0833H50.1394V27.5481H51.6485V19.3272H50.1394V16.792H56.3359C58.1284 16.8522 59.7533 17.0963 59.6951 20.059V22.1144H57.0255V19.3272Z" fill="#010101"/>
<path d="M72.8358 27.5487H74.3406V30.0839H69.9366V19.3272H65.9987V27.5481H67.5143V30.0833H61.6023V27.5481H63.161V19.3272H61.6023V16.792H69.8181C70.6343 16.792 71.2038 16.8482 71.79 17.2718C72.832 18.0554 72.8358 19.0881 72.8358 20.1704V27.5487Z" fill="#010101"/>
<path d="M79.8935 30.0833V35.5294H77.0029V19.3272H75.4895V16.792H83.5975C84.2904 16.792 85.2214 16.8482 86.0301 17.512C86.9525 18.2393 87.0635 19.3142 87.0678 20.5298V26.2246C87.0597 27.7838 86.9568 28.8711 86.0177 29.599C85.4396 30.0754 84.9924 30.0754 83.7053 30.0827L79.8935 30.0833ZM79.8935 27.5487H84.1719V19.3272H79.8935V27.5487Z" fill="#010101"/>
<path d="M99.4542 27.5485H100.959V30.0837H93.4409C91.8084 30.0837 91.358 30.0752 90.767 29.5954C89.7374 28.8805 89.6064 27.9169 89.6064 26.7087C89.6064 24.5211 89.6178 22.8263 92.8472 22.5979H96.5663V19.3276H92.5056V21.2671H89.7336V19.8192C89.8446 18.7032 89.955 16.7322 92.8628 16.7924H96.3357C97.2549 16.7924 97.9521 16.7924 98.6449 17.5118C99.1083 17.9956 99.4542 18.6036 99.4542 20.1792V27.5485ZM92.5051 27.6717H96.5658V25.0009H92.5051V27.6717Z" fill="#010101"/>
<path d="M109.993 19.1968H105.941V22.1016H109.759C110.568 22.1055 111.371 22.11 112.061 22.5977C112.873 23.3093 112.884 24.1699 112.884 25.1284V27.0561C112.88 27.5483 112.88 28.0365 112.54 28.6401C111.953 29.9552 111.019 29.967 109.636 30.0829H103.148V26.0875H105.941V27.6675H109.993V24.6401H106.17C103.738 24.6401 103.155 23.6766 103.148 21.5059V19.6907C103.263 18.4791 103.389 16.791 106.52 16.791H112.758V20.6582H109.993V19.1968H109.993Z" fill="#010101"/>
<path d="M122.141 19.1968H118.089V22.1016H121.908C122.716 22.1055 123.421 22.11 124.11 22.5977C124.922 23.3093 125.034 24.1699 125.034 25.1284V27.0561C125.029 27.5483 125.029 28.0365 124.688 28.6401C124.102 29.9552 123.068 29.967 121.784 30.0829H115.198V26.0875H118.089V27.6675H122.141V24.6401H118.318C115.886 24.6401 115.304 23.6766 115.198 21.5059V19.6907C115.313 18.4791 115.538 16.791 118.666 16.791H124.806V20.6582H122.141V19.1968H122.141Z" fill="#010101"/>
<path d="M105.234 10.2007V12.8067H103.845V5.0043H103.043V3.79492H106.977C107.323 3.79492 107.786 3.79661 108.138 4.10092C108.597 4.46317 108.603 4.94805 108.605 5.55105V8.33205C108.601 9.05598 108.599 9.59711 108.132 9.95936C107.895 10.1439 107.671 10.1439 106.981 10.2001H105.234V10.2007ZM105.234 8.9733H107.214V5.0043H105.234V8.9733Z" fill="#010101" stroke="#010101" stroke-width="0.216" stroke-miterlimit="10"/>
<path d="M110.454 1.68205L109.75 1.62693V0.416992H111.843V8.93887H112.641V10.2H109.75V8.93887H110.454V1.68205Z" fill="#010101" stroke="#010101" stroke-width="0.216" stroke-miterlimit="10"/>
<path d="M117.402 5.0043H116.7V3.79492H118.791V8.9733H119.593V10.2007H115.891C115.198 10.1444 115.071 10.1444 114.729 9.96161C114.146 9.59598 114.043 8.91311 114.042 8.20717V5.0043H113.343V3.79492H115.432V8.9733H117.402V5.0043H117.402Z" fill="#010101" stroke="#010101" stroke-width="0.216" stroke-miterlimit="10"/>
<path d="M123.876 4.94298H121.91V6.33348H123.761C124.113 6.33517 124.563 6.33742 124.806 6.57986C125.26 6.88248 125.266 7.36173 125.266 7.78698V8.69373C125.264 8.97273 125.264 9.23317 125.144 9.48123C124.803 10.0842 124.338 10.1416 123.651 10.1995H120.521V8.21167H121.91V8.99917H123.876V7.54455H122.025C120.865 7.54455 120.525 7.0653 120.521 6.03705V5.18542C120.627 4.58242 120.641 3.79492 122.247 3.79492H125.153V5.61461H123.876V4.94298Z" fill="#010101" stroke="#010101" stroke-width="0.216" stroke-miterlimit="10"/>
</svg>
