<svg width="149" height="54" viewBox="0 0 149 54" fill="none" xmlns="http://www.w3.org/2000/svg">
<path d="M39.995 21.9951H43.3279V27.1976H43.3933C44.1121 26.2098 45.0924 25.6829 46.2687 25.6829C47.7718 25.7488 48.8174 26.2756 49.5363 27.3293C50.2551 28.3829 50.6472 29.5683 50.6472 31.0829C50.6472 31.8732 50.5819 32.5976 50.3858 33.1902C50.3205 33.5195 50.1898 33.8488 50.0591 34.178C49.9284 34.5073 49.7323 34.7707 49.5363 35.1C48.8174 36.2854 47.6411 36.9439 46.0073 36.9439C44.7656 36.9439 43.9161 36.4171 43.1972 35.3634H43.1319V36.6146H39.9297L39.995 21.9951ZM45.2885 28.3829C45.0271 28.3829 44.831 28.4488 44.5696 28.5146C44.3082 28.5805 44.1121 28.778 43.8507 28.9756C43.6547 29.1732 43.524 29.5024 43.3933 29.8317C43.2626 30.2268 43.1972 30.6878 43.1972 31.2805C43.1972 32.2024 43.3279 32.9927 43.6547 33.4537C43.9814 34.0463 44.5042 34.3098 45.2885 34.3098C45.6806 34.3098 46.0073 34.2439 46.2687 34.0463C46.5301 33.8488 46.7262 33.5854 46.8569 33.3219C47.1836 32.6634 47.3143 32.0049 47.3143 31.2805C47.3143 30.5561 47.1836 29.8976 46.8569 29.3049C46.7262 29.0415 46.4648 28.778 46.2687 28.6463C45.942 28.5146 45.6152 28.3829 45.2885 28.3829Z" fill="#4C4C4C"/>
<path d="M54.4374 33.1249C54.4374 33.6518 54.6334 34.0469 55.0255 34.3103C55.4177 34.5737 55.8751 34.7054 56.3979 34.7054C56.79 34.7054 57.1821 34.6396 57.5089 34.442C57.901 34.2444 58.097 33.981 58.097 33.5859C58.097 33.1908 57.901 32.9274 57.5089 32.7298C57.1168 32.5981 56.7247 32.4664 56.3979 32.4005C55.8751 32.2688 55.2869 32.1371 54.6988 32.0054C54.1106 31.8737 53.5878 31.742 53.065 31.4786C52.6076 31.281 52.2155 30.9518 51.8887 30.5566C51.5619 30.1615 51.3659 29.5688 51.3659 28.8444C51.3659 28.1859 51.4966 27.6591 51.8887 27.1981C52.2155 26.803 52.6076 26.4737 53.065 26.2103C53.5225 25.9469 54.0453 25.8152 54.6334 25.6835C55.2216 25.5518 55.7444 25.5518 56.2672 25.5518C56.8554 25.5518 57.4435 25.6176 58.0317 25.6835C58.6198 25.7493 59.0773 25.9469 59.6001 26.2103C60.0576 26.4737 60.4497 26.803 60.7111 27.264C60.9725 27.7249 61.1685 28.3176 61.1685 28.9761H57.9663C57.9663 28.5152 57.8356 28.1859 57.5089 28.0542C57.1821 27.8566 56.8554 27.7908 56.3979 27.7908C56.0712 27.7908 55.7444 27.8566 55.4177 27.9225C55.0909 28.0542 54.8948 28.2518 54.8295 28.6469C54.8295 28.9103 54.9602 29.1079 55.287 29.2396C55.5484 29.4371 55.8751 29.5688 56.2672 29.6347C57.1168 29.8322 58.0317 30.0298 58.8159 30.2274C59.3387 30.3591 59.7962 30.4908 60.1229 30.6883C60.4497 30.9518 60.7111 31.2152 60.9071 31.4786C61.2339 32.0713 61.4299 32.5981 61.4299 33.1249C61.3646 34.5737 60.8418 35.4957 59.7962 36.0883C58.7505 36.681 57.6396 36.9444 56.3979 36.9444C55.0909 36.9444 54.0453 36.681 52.9997 36.0883C51.9541 35.5615 51.3659 34.5079 51.3005 33.1249C51.2352 33.1249 54.4374 33.1249 54.4374 33.1249Z" fill="#4C4C4C"/>
<path d="M69.4682 29.8984C69.4682 29.4374 69.2721 29.0423 68.9454 28.7788C68.6186 28.5154 68.2265 28.3837 67.7691 28.3837C67.3116 28.3837 66.9195 28.4496 66.6581 28.6471C66.3967 28.8447 66.1353 29.1081 66.0046 29.3715C65.8085 29.6349 65.7432 30.0301 65.6778 30.4252C65.6125 30.8203 65.6125 31.2154 65.6125 31.6106C65.6125 32.3349 65.7432 32.9935 66.0699 33.5203C66.2006 33.7837 66.462 34.0471 66.7234 34.1788C66.9849 34.3764 67.2463 34.4423 67.6384 34.4423C68.8147 34.4423 69.4682 33.7837 69.5335 32.5984H72.8011C72.605 34.0471 72.0822 35.1008 71.102 35.891C70.187 36.6813 69.0107 37.0764 67.6384 37.0764C66.0699 37.0764 64.8283 36.5496 63.7827 35.5618C62.737 34.574 62.2142 33.3227 62.2142 31.6106C62.2142 29.8325 62.737 28.5154 63.7173 27.4618C64.6976 26.4081 65.9392 25.8154 67.6384 25.8154C68.9454 25.8154 70.0563 26.1447 71.0366 26.8691C72.0169 27.5935 72.5397 28.6471 72.6704 29.9642L69.4682 29.8984Z" fill="#4C4C4C"/>
<path d="M4.83592 11.3936C4.83592 11.3936 13.1355 16.3984 12.482 26.2765C11.8285 36.0887 4.11707 40.7643 4.11707 40.7643C4.11707 40.7643 10.7175 34.574 10.7175 26.0789C10.7175 17.5838 4.83592 11.3936 4.83592 11.3936Z" fill="#A6D734"/>
<path d="M6.60055 13.5664C6.60055 13.5664 11.4365 21.7981 7.97292 27.6591C4.44397 33.5201 1.30713 35.1664 1.30713 35.1664L3.98651 40.5006C3.98651 40.5006 9.21459 36.4176 10.4563 29.1737C12.2207 18.9006 6.60055 13.5664 6.60055 13.5664Z" fill="#4C4C4C"/>
<path d="M37.1846 24.433C37.1846 24.433 29.4732 30.294 20.6508 26.0794C11.7631 21.733 10.4561 12.8428 10.4561 12.8428C10.4561 12.8428 13.7236 21.3379 21.5003 24.433C29.2771 27.594 37.1846 24.433 37.1846 24.433Z" fill="#A6D734"/>
<path d="M34.4401 25.1572C34.4401 25.1572 25.0295 26.6718 20.9778 21.1401C16.926 15.6084 16.4686 12.1182 16.4686 12.1182L10.6523 12.7108C10.6523 12.7108 12.5475 19.0987 18.6905 22.984C27.4475 28.5816 34.4401 25.1572 34.4401 25.1572Z" fill="#4C4C4C"/>
<path d="M7.64648 42.6084C7.64648 42.6084 9.08421 32.9279 18.364 29.7669C27.6439 26.606 34.8325 32.006 34.8325 32.006C34.8325 32.006 26.6636 28.2523 18.8868 31.4791C11.1101 34.706 7.64648 42.6084 7.64648 42.6084Z" fill="#A6D734"/>
<path d="M9.08398 40.1712C9.08398 40.1712 14.8349 32.5322 21.5006 33.5858C28.2318 34.6395 30.9765 36.8785 30.9765 36.8785L34.8322 32.3346C34.8322 32.3346 29.0814 29.0419 21.9581 30.5566C11.7634 32.8614 9.08398 40.1712 9.08398 40.1712Z" fill="#4C4C4C"/>
<path d="M74.7615 22.0615H76.0031V28.1201H76.0685C76.3952 27.3298 76.8527 26.7371 77.5062 26.342C78.1597 25.9469 78.8786 25.7493 79.5974 25.7493C81.1659 25.7493 82.2768 26.342 83.061 27.3957C83.7799 28.5152 84.172 29.7664 84.172 31.3469C84.172 32.9274 83.7799 34.1786 83.061 35.2323C82.2768 36.3518 81.1659 36.8786 79.5974 36.9444C78.7479 36.9444 78.029 36.7469 77.4409 36.2859C76.7874 35.8908 76.3299 35.2981 76.0031 34.5737H75.9378V36.6152H74.7615V22.0615ZM82.9303 31.4786C82.9303 30.2932 82.6689 29.3054 82.1461 28.3835C81.6233 27.4615 80.7738 27.0005 79.5974 26.9347C78.2904 26.9347 77.3755 27.4615 76.8527 28.3835C76.2646 29.3054 76.0031 30.2932 76.0031 31.4786C76.0031 32.0054 76.0685 32.5981 76.1992 33.0591C76.3299 33.5859 76.526 34.1127 76.8527 34.5079C77.3755 35.4298 78.3558 35.9566 79.5974 35.9566C80.7738 35.9566 81.6233 35.4298 82.1461 34.5079C82.6689 33.5859 82.9303 32.5981 82.9303 31.4786Z" fill="#4C4C4C"/>
<path d="M86.3286 31.8076C86.3286 32.7954 86.59 33.7832 87.1781 34.5734C87.7009 35.4954 88.5505 35.9563 89.7268 35.9563C90.6417 35.9563 91.3606 35.6929 91.8181 35.1661C92.3409 34.6393 92.6676 34.0466 92.8637 33.1905H94.1053C93.6479 35.6271 92.2102 36.9441 89.6615 36.9441C88.0277 36.9441 86.9167 36.3515 86.1979 35.2319C85.479 34.1783 85.0869 32.8612 85.0869 31.3466C85.0869 29.8978 85.479 28.6466 86.1979 27.5271C86.9167 26.4076 88.0931 25.8149 89.6615 25.749C91.2952 25.749 92.4716 26.4076 93.1904 27.5929C93.9093 28.7783 94.236 30.0954 94.1707 31.6759L86.3286 31.8076ZM92.929 30.688C92.929 29.6344 92.6023 28.7783 92.0141 28.1198C91.426 27.3295 90.6417 27.0002 89.6615 26.9344C88.6159 26.9344 87.8317 27.3295 87.3088 28.1198C86.7207 28.8441 86.3939 29.7661 86.2632 30.688H92.929Z" fill="#4C4C4C"/>
<path d="M95.8699 26.1444H97.0462V28.581H97.1115C97.8304 26.8029 99.0721 26.0127 100.967 26.0127V27.3298C99.7909 27.2639 98.9414 27.659 98.2879 28.3176C97.569 29.042 97.2422 30.0298 97.2422 31.0834V36.7468H96.0006V26.2103H95.8699V26.1444Z" fill="#4C4C4C"/>
<path d="M101.752 29.3715C101.817 28.1203 102.275 27.2642 102.993 26.6715C103.778 26.0788 104.758 25.8154 105.869 25.8154C106.326 25.8154 106.784 25.8813 107.241 25.9471C107.699 26.013 108.091 26.2106 108.483 26.474C108.875 26.7374 109.136 27.0666 109.398 27.5276C109.594 27.9886 109.725 28.5813 109.725 29.3057V34.9032C109.725 35.4301 109.986 35.6935 110.443 35.6935C110.639 35.6935 110.77 35.6935 110.835 35.6276V36.7471C110.574 36.813 110.313 36.813 109.986 36.813C109.398 36.813 108.94 36.6154 108.81 36.2862C108.614 35.9569 108.483 35.4959 108.548 34.9691H108.483C108.091 35.6276 107.568 36.1545 106.98 36.5496C106.392 36.9447 105.673 37.1423 104.758 37.1423C103.778 37.1423 102.993 36.8788 102.405 36.352C101.752 35.8252 101.36 35.0349 101.36 34.0471C101.36 33.3227 101.556 32.7301 101.882 32.2691C102.209 31.874 102.601 31.5447 103.124 31.3471C103.647 31.1496 104.235 30.952 104.889 30.8862C105.542 30.8203 106.196 30.7545 106.849 30.6886C107.372 30.6227 107.764 30.5569 108.091 30.3593C108.352 30.1618 108.483 29.8325 108.483 29.2398C108.483 28.3837 108.221 27.791 107.699 27.4618C107.176 27.1984 106.522 27.0666 105.738 27.0666C104.954 27.0666 104.3 27.2642 103.843 27.6593C103.32 28.0545 103.059 28.713 102.993 29.5691L101.752 29.3715ZM108.352 30.952C108.221 31.0837 108.025 31.2154 107.829 31.2813C107.633 31.3471 107.437 31.413 107.241 31.4788C106.718 31.5447 106.13 31.6106 105.607 31.6764C105.019 31.7423 104.496 31.874 104.039 32.0057C103.582 32.1374 103.189 32.3349 102.928 32.6642C102.601 32.9935 102.471 33.3886 102.471 33.9154C102.471 34.574 102.732 35.1008 103.189 35.4301C103.647 35.8252 104.17 36.0227 104.758 36.0227C105.738 36.0227 106.588 35.6935 107.241 35.1008C107.96 34.5081 108.287 33.7179 108.287 32.7301L108.352 30.952Z" fill="#4C4C4C"/>
<path d="M114.364 26.1448H116.39V27.2643H114.364V34.3765C114.364 34.7716 114.43 35.1009 114.56 35.3643C114.691 35.6277 114.952 35.7594 115.41 35.8253C115.802 35.8253 116.129 35.8253 116.521 35.7594V36.8789C116.129 36.8789 115.737 36.8789 115.41 36.9448C114.56 36.9448 113.972 36.7472 113.645 36.418C113.319 36.0887 113.123 35.4302 113.123 34.5082V27.1985H111.293V26.0789H113.123V22.918H114.364V26.1448Z" fill="#4C4C4C"/>
<path d="M126.977 36.7464H125.801V34.8367H125.736C125.017 36.2854 123.775 37.0098 122.207 37.0098C119.789 36.944 118.612 35.5611 118.678 32.9928V26.144H119.919V32.9928C119.919 33.9806 120.181 34.705 120.573 35.1001C120.965 35.6269 121.684 35.8903 122.599 35.8903C123.644 35.8903 124.494 35.4293 124.886 34.5074C125.343 33.6513 125.605 32.6635 125.605 31.6098V26.0781H126.846V36.6806H126.977V36.7464Z" fill="#4C4C4C"/>
<path d="M128.807 26.1447H130.049V27.9886H130.114C130.375 27.3301 130.767 26.8032 131.421 26.4081C132.009 26.013 132.663 25.8154 133.381 25.8154C134.819 25.8154 135.734 26.2106 136.322 26.9349C136.845 27.6593 137.106 28.6471 137.106 29.8984V36.6813H135.865V30.1618C135.865 29.174 135.669 28.4496 135.342 27.9227C134.95 27.3301 134.296 27.0008 133.316 27.0008C132.27 27.0008 131.552 27.3301 131.029 28.0545C130.441 28.713 130.179 29.6349 130.114 30.6227V36.6813H128.872L128.807 26.1447Z" fill="#4C4C4C"/>
<path d="M147.759 35.8912C147.759 37.5375 147.432 38.7229 146.713 39.579C145.994 40.5009 144.818 40.9619 143.25 40.9619C142.204 40.9619 141.289 40.6985 140.505 40.1717C139.655 39.6448 139.198 38.8546 139.067 37.7351H140.309C140.505 38.5253 140.832 39.0521 141.42 39.3814C142.008 39.7107 142.596 39.9082 143.315 39.9082C145.471 39.9082 146.582 38.5253 146.582 35.957V34.5082H146.517C146.256 35.1668 145.798 35.6936 145.21 36.0887C144.622 36.4839 143.968 36.7473 143.25 36.7473C141.616 36.7473 140.505 36.2204 139.721 35.1009C139.002 34.0473 138.61 32.8619 138.61 31.2814C138.61 29.7668 139.002 28.5814 139.851 27.5278C140.635 26.4741 141.746 26.0131 143.25 25.9473C144.034 25.9473 144.687 26.1448 145.21 26.5399C145.798 26.9351 146.19 27.4619 146.452 28.1204H146.517V26.1448H147.759V35.8912ZM143.25 35.5619C144.361 35.5619 145.21 35.1009 145.668 34.2448C146.19 33.3887 146.517 32.4668 146.517 31.3473C146.517 30.2278 146.256 29.3058 145.798 28.3839C145.275 27.4619 144.426 27.0009 143.25 27.0009C142.073 27.0009 141.289 27.4619 140.766 28.3839C140.243 29.2399 139.917 30.2936 139.917 31.4131C139.917 32.5326 140.178 33.4546 140.766 34.3107C141.289 35.1009 142.073 35.496 143.25 35.5619Z" fill="#4C4C4C"/>
</svg>
